SplineFontDB: 3.0
FontName: Arbutus
FullName: Arbutus
FamilyName: Arbutus
Weight: Book
Copyright: Copyright (c) 2011, Sorkin Type Co (www.sorkintype.com)\nwith Reserved Font Name "Arbutus".\n\nThis Font Software is licensed under the SIL Open Font License,\nVersion 1.1. This license is available with a FAQ at:\nhttp://scripts.sil.org/OFL
Version: 1.002
ItalicAngle: 0
UnderlinePosition: -92
UnderlineWidth: 198
Ascent: 1638
Descent: 410
LayerCount: 2
Layer: 0 1 "Back"  1
Layer: 1 1 "Fore"  0
XUID: [1021 631 1661839179 6807686]
FSType: 0
OS2Version: 3
OS2_WeightWidthSlopeOnly: 0
OS2_UseTypoMetrics: 1
CreationTime: 1319885640
ModificationTime: 1322613283
PfmFamily: 17
TTFWeight: 400
TTFWidth: 5
LineGap: 0
VLineGap: 0
Panose: 2 0 0 0 0 0 0 0 0 0
OS2TypoAscent: 372
OS2TypoAOffset: 1
OS2TypoDescent: -140
OS2TypoDOffset: 1
OS2TypoLinegap: 0
OS2WinAscent: 0
OS2WinAOffset: 1
OS2WinDescent: 0
OS2WinDOffset: 1
HheadAscent: 0
HheadAOffset: 1
HheadDescent: 0
HheadDOffset: 1
OS2SubXSize: 1434
OS2SubYSize: 1331
OS2SubXOff: 0
OS2SubYOff: 287
OS2SupXSize: 1434
OS2SupYSize: 1331
OS2SupXOff: 0
OS2SupYOff: 977
OS2StrikeYSize: 368
OS2StrikeYPos: 656
OS2Vendor: 'STC '
OS2CodePages: 20000193.4d000000
OS2UnicodeRanges: a00000af.4800204a.14000000.00000000
DEI: 91125
TtTable: prep
PUSHW_1
 511
SCANCTRL
PUSHB_1
 4
SCANTYPE
EndTTInstrs
ShortTable: maxp 16
  1
  0
  424
  306
  7
  249
  5
  1
  0
  0
  0
  0
  0
  0
  2
  1
EndShort

StartChar: B
Encoding: 66 66 4
Width: 1539
Flags: W
LayerCount: 2
Fore
SplineSet
100 0 m 1,0,1
 106 25 106 25 110.5 60.5 c 128,-1,2
 115 96 115 96 115 134 c 0,3,4
 115 169 115 169 110 202.5 c 128,-1,5
 105 236 105 236 100 260 c 1,6,7
 145 260 145 260 179 267 c 128,-1,8
 213 274 213 274 236 290.5 c 128,-1,9
 259 307 259 307 270.5 335.5 c 128,-1,10
 282 364 282 364 282 407 c 0,11,12
 282 491 282 491 277.5 551 c 128,-1,13
 273 611 273 611 264.5 650 c 128,-1,14
 256 689 256 689 243 709.5 c 128,-1,15
 230 730 230 730 213 735 c 1,16,17
 231 741 231 741 244 754 c 128,-1,18
 257 767 257 767 265.5 798.5 c 128,-1,19
 274 830 274 830 278 885.5 c 128,-1,20
 282 941 282 941 282 1033 c 0,21,22
 282 1076 282 1076 270.5 1104.5 c 128,-1,23
 259 1133 259 1133 236 1149.5 c 128,-1,24
 213 1166 213 1166 179 1173 c 128,-1,25
 145 1180 145 1180 100 1180 c 1,26,27
 105 1204 105 1204 110 1237.5 c 128,-1,28
 115 1271 115 1271 115 1306 c 0,29,30
 115 1344 115 1344 110.5 1379.5 c 128,-1,31
 106 1415 106 1415 100 1440 c 1,32,33
 113 1435 113 1435 151 1430 c 128,-1,34
 189 1425 189 1425 240.5 1421.5 c 128,-1,35
 292 1418 292 1418 352 1415 c 128,-1,36
 412 1412 412 1412 470 1409.5 c 128,-1,37
 528 1407 528 1407 578.5 1406 c 128,-1,38
 629 1405 629 1405 662 1405 c 0,39,40
 745 1405 745 1405 824.5 1406.5 c 128,-1,41
 904 1408 904 1408 971 1412 c 128,-1,42
 1038 1416 1038 1416 1088 1423 c 128,-1,43
 1138 1430 1138 1430 1161 1440 c 1,44,45
 1162 1419 1162 1419 1177 1395.5 c 128,-1,46
 1192 1372 1192 1372 1216.5 1348.5 c 128,-1,47
 1241 1325 1241 1325 1271 1303 c 128,-1,48
 1301 1281 1301 1281 1332 1263.5 c 128,-1,49
 1363 1246 1363 1246 1392 1235.5 c 128,-1,50
 1421 1225 1421 1225 1443 1224 c 1,51,52
 1436 1211 1436 1211 1430.5 1186.5 c 128,-1,53
 1425 1162 1425 1162 1421 1131 c 128,-1,54
 1417 1100 1417 1100 1415 1067 c 128,-1,55
 1413 1034 1413 1034 1413 1004 c 0,56,57
 1413 940 1413 940 1419.5 884.5 c 128,-1,58
 1426 829 1426 829 1443 800 c 1,59,60
 1401 792 1401 792 1359 768 c 128,-1,61
 1317 744 1317 744 1280 711 c 1,62,63
 1334 679 1334 679 1397 658.5 c 128,-1,64
 1460 638 1460 638 1515 630 c 1,65,66
 1507 617 1507 617 1501 596 c 128,-1,67
 1495 575 1495 575 1491.5 549 c 128,-1,68
 1488 523 1488 523 1486.5 494 c 128,-1,69
 1485 465 1485 465 1485 436 c 0,70,71
 1485 406 1485 406 1486.5 372.5 c 128,-1,72
 1488 339 1488 339 1492 308.5 c 128,-1,73
 1496 278 1496 278 1501.5 253 c 128,-1,74
 1507 228 1507 228 1515 216 c 1,75,76
 1487 215 1487 215 1450.5 205 c 128,-1,77
 1414 195 1414 195 1375.5 178.5 c 128,-1,78
 1337 162 1337 162 1299.5 141 c 128,-1,79
 1262 120 1262 120 1231 96 c 128,-1,80
 1200 72 1200 72 1179 47.5 c 128,-1,81
 1158 23 1158 23 1153 0 c 1,82,83
 1141 6 1141 6 1094 10.5 c 128,-1,84
 1047 15 1047 15 978.5 18.5 c 128,-1,85
 910 22 910 22 827.5 23.5 c 128,-1,86
 745 25 745 25 662 25 c 0,87,88
 630 25 630 25 578 24 c 128,-1,89
 526 23 526 23 466 21 c 128,-1,90
 406 19 406 19 344.5 17 c 128,-1,91
 283 15 283 15 231.5 12 c 128,-1,92
 180 9 180 9 144 6 c 128,-1,93
 108 3 108 3 100 0 c 1,0,1
685 844 m 1,94,95
 699 839 699 839 713.5 835.5 c 128,-1,96
 728 832 728 832 746.5 829.5 c 128,-1,97
 765 827 765 827 789 826 c 128,-1,98
 813 825 813 825 845 825 c 0,99,100
 895 825 895 825 927.5 840 c 128,-1,101
 960 855 960 855 978.5 881 c 128,-1,102
 997 907 997 907 1004.5 942.5 c 128,-1,103
 1012 978 1012 978 1012 1019 c 0,104,105
 1012 1054 1012 1054 1008 1086.5 c 128,-1,106
 1004 1119 1004 1119 988 1144.5 c 128,-1,107
 972 1170 972 1170 941 1185 c 128,-1,108
 910 1200 910 1200 855 1200 c 0,109,110
 810 1200 810 1200 765 1194 c 128,-1,111
 720 1188 720 1188 683 1172 c 1,112,113
 679 1144 679 1144 677.5 1110.5 c 128,-1,114
 676 1077 676 1077 676 1042 c 0,115,116
 676 989 676 989 678.5 937.5 c 128,-1,117
 681 886 681 886 685 844 c 1,94,95
683 244 m 1,118,119
 731 231 731 231 782.5 225.5 c 128,-1,120
 834 220 834 220 895 220 c 0,121,122
 952 220 952 220 989.5 236.5 c 128,-1,123
 1027 253 1027 253 1050 281 c 128,-1,124
 1073 309 1073 309 1082.5 347 c 128,-1,125
 1092 385 1092 385 1092 429 c 0,126,127
 1092 468 1092 468 1086.5 504 c 128,-1,128
 1081 540 1081 540 1061.5 568 c 128,-1,129
 1042 596 1042 596 1005 613 c 128,-1,130
 968 630 968 630 905 630 c 0,131,132
 822 630 822 630 771 623.5 c 128,-1,133
 720 617 720 617 684 601 c 1,134,135
 679 567 679 567 677 526 c 128,-1,136
 675 485 675 485 675 440 c 0,137,138
 675 388 675 388 677.5 337.5 c 128,-1,139
 680 287 680 287 683 244 c 1,118,119
EndSplineSet
EndChar

StartChar: R
Encoding: 82 82 5
Width: 1703
Flags: W
LayerCount: 2
Fore
SplineSet
100 0 m 1,0,1
 106 25 106 25 110.5 60.5 c 128,-1,2
 115 96 115 96 115 134 c 0,3,4
 115 169 115 169 110 202.5 c 128,-1,5
 105 236 105 236 100 260 c 1,6,7
 145 260 145 260 179 267 c 128,-1,8
 213 274 213 274 236 290.5 c 128,-1,9
 259 307 259 307 270.5 335.5 c 128,-1,10
 282 364 282 364 282 407 c 0,11,12
 282 491 282 491 277.5 551 c 128,-1,13
 273 611 273 611 264.5 650 c 128,-1,14
 256 689 256 689 243 709.5 c 128,-1,15
 230 730 230 730 213 735 c 1,16,17
 231 741 231 741 244 754 c 128,-1,18
 257 767 257 767 265.5 798.5 c 128,-1,19
 274 830 274 830 278 885.5 c 128,-1,20
 282 941 282 941 282 1033 c 0,21,22
 282 1076 282 1076 270.5 1104.5 c 128,-1,23
 259 1133 259 1133 236 1149.5 c 128,-1,24
 213 1166 213 1166 179 1173 c 128,-1,25
 145 1180 145 1180 100 1180 c 1,26,27
 105 1204 105 1204 110 1237.5 c 128,-1,28
 115 1271 115 1271 115 1306 c 0,29,30
 115 1344 115 1344 110.5 1379.5 c 128,-1,31
 106 1415 106 1415 100 1440 c 1,32,33
 113 1435 113 1435 151 1430 c 128,-1,34
 189 1425 189 1425 240.5 1421.5 c 128,-1,35
 292 1418 292 1418 352 1415 c 128,-1,36
 412 1412 412 1412 470 1409.5 c 128,-1,37
 528 1407 528 1407 578.5 1406 c 128,-1,38
 629 1405 629 1405 662 1405 c 0,39,40
 757 1405 757 1405 854.5 1406.5 c 128,-1,41
 952 1408 952 1408 1036.5 1412 c 128,-1,42
 1121 1416 1121 1416 1184 1423 c 128,-1,43
 1247 1430 1247 1430 1273 1440 c 1,44,45
 1274 1420 1274 1420 1287.5 1397.5 c 128,-1,46
 1301 1375 1301 1375 1322.5 1352.5 c 128,-1,47
 1344 1330 1344 1330 1371 1309 c 128,-1,48
 1398 1288 1398 1288 1425.5 1272 c 128,-1,49
 1453 1256 1453 1256 1479 1246 c 128,-1,50
 1505 1236 1505 1236 1525 1235 c 1,51,52
 1518 1221 1518 1221 1512.5 1194 c 128,-1,53
 1507 1167 1507 1167 1503 1134 c 128,-1,54
 1499 1101 1499 1101 1497 1064.5 c 128,-1,55
 1495 1028 1495 1028 1495 995 c 0,56,57
 1495 957 1495 957 1496.5 920.5 c 128,-1,58
 1498 884 1498 884 1501 852 c 128,-1,59
 1504 820 1504 820 1510 793.5 c 128,-1,60
 1516 767 1516 767 1525 750 c 1,61,62
 1490 744 1490 744 1452 731 c 128,-1,63
 1414 718 1414 718 1377 699.5 c 128,-1,64
 1340 681 1340 681 1307 658 c 128,-1,65
 1274 635 1274 635 1250 609 c 1,66,67
 1265 588 1265 588 1285.5 570 c 128,-1,68
 1306 552 1306 552 1328 539.5 c 128,-1,69
 1350 527 1350 527 1373 520 c 128,-1,70
 1396 513 1396 513 1416 513 c 1,71,72
 1416 453 1416 453 1434.5 406 c 128,-1,73
 1453 359 1453 359 1487 326.5 c 128,-1,74
 1521 294 1521 294 1570 277 c 128,-1,75
 1619 260 1619 260 1681 260 c 1,76,77
 1672 236 1672 236 1669 202.5 c 128,-1,78
 1666 169 1666 169 1666 134 c 0,79,80
 1666 96 1666 96 1670 60.5 c 128,-1,81
 1674 25 1674 25 1683 0 c 1,82,83
 1673 4 1673 4 1644 8.5 c 128,-1,84
 1615 13 1615 13 1577.5 16.5 c 128,-1,85
 1540 20 1540 20 1500 22.5 c 128,-1,86
 1460 25 1460 25 1428 25 c 0,87,88
 1390 25 1390 25 1344 24 c 128,-1,89
 1298 23 1298 23 1254 20.5 c 128,-1,90
 1210 18 1210 18 1173.5 13 c 128,-1,91
 1137 8 1137 8 1118 0 c 1,92,93
 1120 20 1120 20 1121 39.5 c 128,-1,94
 1122 59 1122 59 1122 78 c 0,95,96
 1122 119 1122 119 1116 156.5 c 128,-1,97
 1110 194 1110 194 1096 225.5 c 128,-1,98
 1082 257 1082 257 1060 280.5 c 128,-1,99
 1038 304 1038 304 1006 317 c 1,100,101
 1015 334 1015 334 1022 363 c 128,-1,102
 1029 392 1029 392 1029 444 c 0,103,104
 1029 472 1029 472 1020 497 c 128,-1,105
 1011 522 1011 522 988.5 540 c 128,-1,106
 966 558 966 558 929 568.5 c 128,-1,107
 892 579 892 579 836 579 c 0,108,109
 812 579 812 579 778 577 c 128,-1,110
 744 575 744 575 706 570 c 1,111,112
 695 543 695 543 689 505.5 c 128,-1,113
 683 468 683 468 683 407 c 0,114,115
 683 364 683 364 692.5 335.5 c 128,-1,116
 702 307 702 307 724 290.5 c 128,-1,117
 746 274 746 274 780.5 267 c 128,-1,118
 815 260 815 260 865 260 c 1,119,120
 860 236 860 236 855 202.5 c 128,-1,121
 850 169 850 169 850 134 c 0,122,123
 850 96 850 96 854.5 60.5 c 128,-1,124
 859 25 859 25 865 0 c 1,125,126
 836 6 836 6 792 10.5 c 128,-1,127
 748 15 748 15 696 18.5 c 128,-1,128
 644 22 644 22 589 23.5 c 128,-1,129
 534 25 534 25 483 25 c 256,130,131
 432 25 432 25 376.5 23.5 c 128,-1,132
 321 22 321 22 269 18.5 c 128,-1,133
 217 15 217 15 172.5 10.5 c 128,-1,134
 128 6 128 6 100 0 c 1,0,1
685 798 m 1,135,136
 727 786 727 786 773.5 780.5 c 128,-1,137
 820 775 820 775 875 775 c 0,138,139
 929 775 929 775 971.5 791.5 c 128,-1,140
 1014 808 1014 808 1043 837 c 128,-1,141
 1072 866 1072 866 1087 905.5 c 128,-1,142
 1102 945 1102 945 1102 990 c 0,143,144
 1102 1032 1102 1032 1090.5 1072 c 128,-1,145
 1079 1112 1079 1112 1053.5 1142.5 c 128,-1,146
 1028 1173 1028 1173 986.5 1191.5 c 128,-1,147
 945 1210 945 1210 885 1210 c 0,148,149
 833 1210 833 1210 779.5 1203 c 128,-1,150
 726 1196 726 1196 684 1179 c 1,151,152
 679 1147 679 1147 677 1108.5 c 128,-1,153
 675 1070 675 1070 675 1028 c 0,154,155
 675 966 675 966 678 905.5 c 128,-1,156
 681 845 681 845 685 798 c 1,135,136
EndSplineSet
EndChar

StartChar: C
Encoding: 67 67 6
Width: 1707
Flags: W
LayerCount: 2
Fore
SplineSet
106 268 m 1,0,1
 125 294 125 294 141 374.5 c 128,-1,2
 157 455 157 455 157 594 c 0,3,4
 157 657 157 657 140 690.5 c 128,-1,5
 123 724 123 724 91 735 c 1,6,7
 109 740 109 740 122 758 c 128,-1,8
 135 776 135 776 144 802 c 128,-1,9
 153 828 153 828 157 859.5 c 128,-1,10
 161 891 161 891 161 924 c 0,11,12
 161 1010 161 1010 146.5 1076.5 c 128,-1,13
 132 1143 132 1143 106 1172 c 1,14,-1
 114 1172 l 2,15,16
 147 1172 147 1172 188 1187 c 128,-1,17
 229 1202 229 1202 271 1226.5 c 128,-1,18
 313 1251 313 1251 352.5 1281.5 c 128,-1,19
 392 1312 392 1312 423.5 1344 c 128,-1,20
 455 1376 455 1376 475 1406.5 c 128,-1,21
 495 1437 495 1437 497 1460 c 1,22,23
 530 1442 530 1442 612.5 1423.5 c 128,-1,24
 695 1405 695 1405 830 1405 c 0,25,26
 862 1405 862 1405 898.5 1409 c 128,-1,27
 935 1413 935 1413 969.5 1420.5 c 128,-1,28
 1004 1428 1004 1428 1034 1438 c 128,-1,29
 1064 1448 1064 1448 1083 1460 c 1,30,31
 1093 1429 1093 1429 1113 1396.5 c 128,-1,32
 1133 1364 1133 1364 1162 1341 c 1,33,34
 1190 1363 1190 1363 1202.5 1391 c 128,-1,35
 1215 1419 1215 1419 1220 1440 c 1,36,37
 1229 1435 1229 1435 1248 1431.5 c 128,-1,38
 1267 1428 1267 1428 1292 1425.5 c 128,-1,39
 1317 1423 1317 1423 1346 1421.5 c 128,-1,40
 1375 1420 1375 1420 1405 1420 c 0,41,42
 1423 1420 1423 1420 1447 1421.5 c 128,-1,43
 1471 1423 1471 1423 1495.5 1425.5 c 128,-1,44
 1520 1428 1520 1428 1543 1431.5 c 128,-1,45
 1566 1435 1566 1435 1583 1440 c 1,46,47
 1581 1432 1581 1432 1576.5 1409 c 128,-1,48
 1572 1386 1572 1386 1568 1356 c 128,-1,49
 1564 1326 1564 1326 1561 1292 c 128,-1,50
 1558 1258 1558 1258 1558 1227 c 0,51,52
 1558 1163 1558 1163 1561 1106 c 128,-1,53
 1564 1049 1564 1049 1567.5 1003 c 128,-1,54
 1571 957 1571 957 1575.5 924 c 128,-1,55
 1580 891 1580 891 1583 875 c 1,56,57
 1559 879 1559 879 1531.5 881.5 c 128,-1,58
 1504 884 1504 884 1475.5 886 c 128,-1,59
 1447 888 1447 888 1420 889 c 128,-1,60
 1393 890 1393 890 1372 890 c 0,61,62
 1250 890 1250 890 1153 875 c 1,63,64
 1153 943 1153 943 1135 1004 c 128,-1,65
 1117 1065 1117 1065 1083 1110.5 c 128,-1,66
 1049 1156 1049 1156 999 1183 c 128,-1,67
 949 1210 949 1210 885 1210 c 0,68,69
 850 1210 850 1210 815 1204 c 128,-1,70
 780 1198 780 1198 747.5 1179.5 c 128,-1,71
 715 1161 715 1161 687.5 1127 c 128,-1,72
 660 1093 660 1093 639.5 1036.5 c 128,-1,73
 619 980 619 980 607.5 898 c 128,-1,74
 596 816 596 816 596 702 c 0,75,76
 596 557 596 557 618.5 463.5 c 128,-1,77
 641 370 641 370 680 316 c 128,-1,78
 719 262 719 262 771.5 241 c 128,-1,79
 824 220 824 220 885 220 c 256,80,81
 946 220 946 220 992.5 245.5 c 128,-1,82
 1039 271 1039 271 1070.5 316 c 128,-1,83
 1102 361 1102 361 1118 423 c 128,-1,84
 1134 485 1134 485 1134 559 c 0,85,86
 1134 568 1134 568 1133.5 577 c 128,-1,87
 1133 586 1133 586 1133 595 c 1,88,89
 1167 588 1167 588 1195 583 c 128,-1,90
 1223 578 1223 578 1250 575 c 128,-1,91
 1277 572 1277 572 1306.5 571 c 128,-1,92
 1336 570 1336 570 1373 570 c 0,93,94
 1437 570 1437 570 1492 577 c 128,-1,95
 1547 584 1547 584 1583 595 c 1,96,97
 1577 583 1577 583 1572.5 559 c 128,-1,98
 1568 535 1568 535 1564.5 504 c 128,-1,99
 1561 473 1561 473 1559.5 438.5 c 128,-1,100
 1558 404 1558 404 1558 371 c 0,101,102
 1558 331 1558 331 1565.5 287 c 128,-1,103
 1573 243 1573 243 1583 203 c 1,104,105
 1495 202 1495 202 1428 175.5 c 128,-1,106
 1361 149 1361 149 1314.5 113.5 c 128,-1,107
 1268 78 1268 78 1241.5 43 c 128,-1,108
 1215 8 1215 8 1208 -10 c 1,109,110
 1187 -2 1187 -2 1159 4.5 c 128,-1,111
 1131 11 1131 11 1093.5 15.5 c 128,-1,112
 1056 20 1056 20 1007 22.5 c 128,-1,113
 958 25 958 25 895 25 c 0,114,115
 828 25 828 25 762.5 21.5 c 128,-1,116
 697 18 697 18 642 11.5 c 128,-1,117
 587 5 587 5 547 -3 c 128,-1,118
 507 -11 507 -11 491 -20 c 1,119,120
 479 26 479 26 437.5 75 c 128,-1,121
 396 124 396 124 340.5 165 c 128,-1,122
 285 206 285 206 222.5 234 c 128,-1,123
 160 262 160 262 106 268 c 1,0,1
EndSplineSet
EndChar

StartChar: D
Encoding: 68 68 7
Width: 1703
Flags: W
LayerCount: 2
Fore
SplineSet
100 0 m 1,0,1
 106 25 106 25 110.5 60.5 c 128,-1,2
 115 96 115 96 115 134 c 0,3,4
 115 169 115 169 110 202.5 c 128,-1,5
 105 236 105 236 100 260 c 1,6,7
 145 260 145 260 179 267 c 128,-1,8
 213 274 213 274 236 290.5 c 128,-1,9
 259 307 259 307 270.5 335.5 c 128,-1,10
 282 364 282 364 282 407 c 0,11,12
 282 491 282 491 277.5 551 c 128,-1,13
 273 611 273 611 264.5 650 c 128,-1,14
 256 689 256 689 243 709.5 c 128,-1,15
 230 730 230 730 213 735 c 1,16,17
 231 741 231 741 244 756 c 128,-1,18
 257 771 257 771 265.5 804 c 128,-1,19
 274 837 274 837 278 892 c 128,-1,20
 282 947 282 947 282 1033 c 0,21,22
 282 1076 282 1076 270.5 1104.5 c 128,-1,23
 259 1133 259 1133 236 1149.5 c 128,-1,24
 213 1166 213 1166 179 1173 c 128,-1,25
 145 1180 145 1180 100 1180 c 1,26,27
 105 1204 105 1204 110 1237.5 c 128,-1,28
 115 1271 115 1271 115 1306 c 0,29,30
 115 1344 115 1344 110.5 1379.5 c 128,-1,31
 106 1415 106 1415 100 1440 c 1,32,33
 113 1435 113 1435 151 1430 c 128,-1,34
 189 1425 189 1425 240.5 1421.5 c 128,-1,35
 292 1418 292 1418 352 1415 c 128,-1,36
 412 1412 412 1412 470 1409.5 c 128,-1,37
 528 1407 528 1407 578.5 1406 c 128,-1,38
 629 1405 629 1405 662 1405 c 0,39,40
 749 1405 749 1405 838.5 1406.5 c 128,-1,41
 928 1408 928 1408 1005 1412 c 128,-1,42
 1082 1416 1082 1416 1140 1423 c 128,-1,43
 1198 1430 1198 1430 1222 1440 c 1,44,45
 1223 1419 1223 1419 1240.5 1395.5 c 128,-1,46
 1258 1372 1258 1372 1285 1348.5 c 128,-1,47
 1312 1325 1312 1325 1347 1303 c 128,-1,48
 1382 1281 1382 1281 1417 1263.5 c 128,-1,49
 1452 1246 1452 1246 1485.5 1235.5 c 128,-1,50
 1519 1225 1519 1225 1544 1224 c 1,51,52
 1539 1194 1539 1194 1536.5 1163 c 128,-1,53
 1534 1132 1534 1132 1534 1101 c 0,54,55
 1534 1034 1534 1034 1544.5 971.5 c 128,-1,56
 1555 909 1555 909 1572.5 858.5 c 128,-1,57
 1590 808 1590 808 1613 775 c 128,-1,58
 1636 742 1636 742 1662 735 c 1,59,60
 1635 729 1635 729 1611.5 697 c 128,-1,61
 1588 665 1588 665 1570.5 614.5 c 128,-1,62
 1553 564 1553 564 1543.5 498 c 128,-1,63
 1534 432 1534 432 1534 359 c 0,64,65
 1534 324 1534 324 1536.5 288 c 128,-1,66
 1539 252 1539 252 1544 216 c 1,67,68
 1518 215 1518 215 1485.5 205 c 128,-1,69
 1453 195 1453 195 1418.5 178.5 c 128,-1,70
 1384 162 1384 162 1350.5 141 c 128,-1,71
 1317 120 1317 120 1290 96 c 128,-1,72
 1263 72 1263 72 1244.5 47.5 c 128,-1,73
 1226 23 1226 23 1222 0 c 1,74,75
 1198 7 1198 7 1140 12 c 128,-1,76
 1082 17 1082 17 1005 20 c 128,-1,77
 928 23 928 23 838.5 24 c 128,-1,78
 749 25 749 25 662 25 c 0,79,80
 629 25 629 25 578.5 24.5 c 128,-1,81
 528 24 528 24 470 22.5 c 128,-1,82
 412 21 412 21 352 18.5 c 128,-1,83
 292 16 292 16 240 13.5 c 128,-1,84
 188 11 188 11 150.5 7.5 c 128,-1,85
 113 4 113 4 100 0 c 1,0,1
687 242 m 1,86,87
 729 231 729 231 777.5 225.5 c 128,-1,88
 826 220 826 220 874 220 c 0,89,90
 940 220 940 220 995.5 250 c 128,-1,91
 1051 280 1051 280 1092 345 c 128,-1,92
 1133 410 1133 410 1156 512.5 c 128,-1,93
 1179 615 1179 615 1179 759 c 0,94,95
 1179 980 1179 980 1105.5 1095 c 128,-1,96
 1032 1210 1032 1210 884 1210 c 0,97,98
 862 1210 862 1210 836 1208.5 c 128,-1,99
 810 1207 810 1207 784 1203.5 c 128,-1,100
 758 1200 758 1200 732.5 1194.5 c 128,-1,101
 707 1189 707 1189 686 1181 c 1,102,103
 680 1133 680 1133 677.5 1044.5 c 128,-1,104
 675 956 675 956 675 848 c 0,105,106
 675 764 675 764 676 675.5 c 128,-1,107
 677 587 677 587 679 505.5 c 128,-1,108
 681 424 681 424 683 355.5 c 128,-1,109
 685 287 685 287 687 242 c 1,86,87
EndSplineSet
EndChar

StartChar: H
Encoding: 72 72 8
Width: 1879
Flags: W
LayerCount: 2
Fore
SplineSet
67 0 m 1,0,1
 73 25 73 25 77.5 60.5 c 128,-1,2
 82 96 82 96 82 134 c 0,3,4
 82 169 82 169 77 202.5 c 128,-1,5
 72 236 72 236 67 260 c 1,6,7
 117 260 117 260 151.5 267 c 128,-1,8
 186 274 186 274 208 290.5 c 128,-1,9
 230 307 230 307 239.5 335.5 c 128,-1,10
 249 364 249 364 249 407 c 0,11,12
 249 491 249 491 244.5 551 c 128,-1,13
 240 611 240 611 231.5 650 c 128,-1,14
 223 689 223 689 210 709.5 c 128,-1,15
 197 730 197 730 180 735 c 1,16,17
 198 741 198 741 211 756.5 c 128,-1,18
 224 772 224 772 232.5 807 c 128,-1,19
 241 842 241 842 245 900.5 c 128,-1,20
 249 959 249 959 249 1051 c 0,21,22
 249 1091 249 1091 237.5 1116 c 128,-1,23
 226 1141 226 1141 205 1155.5 c 128,-1,24
 184 1170 184 1170 154 1175 c 128,-1,25
 124 1180 124 1180 87 1180 c 2,26,-1
 67 1180 l 1,27,28
 72 1204 72 1204 77 1235.5 c 128,-1,29
 82 1267 82 1267 82 1302 c 0,30,31
 82 1339 82 1339 77.5 1377 c 128,-1,32
 73 1415 73 1415 67 1440 c 1,33,34
 86 1433 86 1433 126.5 1427 c 128,-1,35
 167 1421 167 1421 219.5 1416 c 128,-1,36
 272 1411 272 1411 332 1408 c 128,-1,37
 392 1405 392 1405 449 1405 c 256,38,39
 506 1405 506 1405 565.5 1408 c 128,-1,40
 625 1411 625 1411 677.5 1416 c 128,-1,41
 730 1421 730 1421 771 1427 c 128,-1,42
 812 1433 812 1433 832 1440 c 1,43,44
 826 1415 826 1415 821.5 1377 c 128,-1,45
 817 1339 817 1339 817 1302 c 0,46,47
 817 1267 817 1267 822 1235.5 c 128,-1,48
 827 1204 827 1204 832 1180 c 1,49,-1
 813 1180 l 2,50,51
 779 1180 779 1180 749.5 1175 c 128,-1,52
 720 1170 720 1170 698 1155.5 c 128,-1,53
 676 1141 676 1141 663 1116 c 128,-1,54
 650 1091 650 1091 650 1051 c 0,55,56
 650 982 650 982 652 934 c 128,-1,57
 654 886 654 886 659 851 c 1,58,59
 716 840 716 840 789 835 c 128,-1,60
 862 830 862 830 940 830 c 256,61,62
 1018 830 1018 830 1090.5 835.5 c 128,-1,63
 1163 841 1163 841 1220 852 c 1,64,65
 1225 887 1225 887 1227 935.5 c 128,-1,66
 1229 984 1229 984 1229 1051 c 0,67,68
 1229 1091 1229 1091 1217.5 1116 c 128,-1,69
 1206 1141 1206 1141 1185 1155.5 c 128,-1,70
 1164 1170 1164 1170 1134 1175 c 128,-1,71
 1104 1180 1104 1180 1067 1180 c 2,72,-1
 1047 1180 l 1,73,74
 1052 1204 1052 1204 1057 1235.5 c 128,-1,75
 1062 1267 1062 1267 1062 1302 c 0,76,77
 1062 1339 1062 1339 1057.5 1377 c 128,-1,78
 1053 1415 1053 1415 1047 1440 c 1,79,80
 1066 1433 1066 1433 1106.5 1427 c 128,-1,81
 1147 1421 1147 1421 1199.5 1416 c 128,-1,82
 1252 1411 1252 1411 1312 1408 c 128,-1,83
 1372 1405 1372 1405 1429 1405 c 256,84,85
 1486 1405 1486 1405 1545.5 1408 c 128,-1,86
 1605 1411 1605 1411 1657.5 1416 c 128,-1,87
 1710 1421 1710 1421 1751 1427 c 128,-1,88
 1792 1433 1792 1433 1812 1440 c 1,89,90
 1806 1415 1806 1415 1801.5 1377 c 128,-1,91
 1797 1339 1797 1339 1797 1302 c 0,92,93
 1797 1267 1797 1267 1802 1235.5 c 128,-1,94
 1807 1204 1807 1204 1812 1180 c 1,95,-1
 1793 1180 l 2,96,97
 1759 1180 1759 1180 1729.5 1175 c 128,-1,98
 1700 1170 1700 1170 1678 1155.5 c 128,-1,99
 1656 1141 1656 1141 1643 1116 c 128,-1,100
 1630 1091 1630 1091 1630 1051 c 0,101,102
 1630 959 1630 959 1634 900.5 c 128,-1,103
 1638 842 1638 842 1646.5 807 c 128,-1,104
 1655 772 1655 772 1668 756.5 c 128,-1,105
 1681 741 1681 741 1699 735 c 1,106,107
 1682 730 1682 730 1669 709.5 c 128,-1,108
 1656 689 1656 689 1647.5 650 c 128,-1,109
 1639 611 1639 611 1634.5 551 c 128,-1,110
 1630 491 1630 491 1630 407 c 0,111,112
 1630 364 1630 364 1641.5 335.5 c 128,-1,113
 1653 307 1653 307 1676 290.5 c 128,-1,114
 1699 274 1699 274 1733 267 c 128,-1,115
 1767 260 1767 260 1812 260 c 1,116,117
 1807 236 1807 236 1802 202.5 c 128,-1,118
 1797 169 1797 169 1797 134 c 0,119,120
 1797 96 1797 96 1801.5 60.5 c 128,-1,121
 1806 25 1806 25 1812 0 c 1,122,123
 1783 6 1783 6 1739 10.5 c 128,-1,124
 1695 15 1695 15 1643 18.5 c 128,-1,125
 1591 22 1591 22 1535.5 23.5 c 128,-1,126
 1480 25 1480 25 1429 25 c 256,127,128
 1378 25 1378 25 1322.5 23.5 c 128,-1,129
 1267 22 1267 22 1215 18.5 c 128,-1,130
 1163 15 1163 15 1119 10.5 c 128,-1,131
 1075 6 1075 6 1047 0 c 1,132,133
 1053 25 1053 25 1057.5 60.5 c 128,-1,134
 1062 96 1062 96 1062 134 c 0,135,136
 1062 169 1062 169 1057 202.5 c 128,-1,137
 1052 236 1052 236 1047 260 c 1,138,139
 1097 260 1097 260 1131.5 267 c 128,-1,140
 1166 274 1166 274 1188 290.5 c 128,-1,141
 1210 307 1210 307 1219.5 335.5 c 128,-1,142
 1229 364 1229 364 1229 407 c 0,143,144
 1229 526 1229 526 1220 600 c 1,145,146
 1163 612 1163 612 1091 618.5 c 128,-1,147
 1019 625 1019 625 940 625 c 0,148,149
 865 625 865 625 791 619 c 128,-1,150
 717 613 717 613 659 602 c 1,151,152
 650 528 650 528 650 407 c 0,153,154
 650 364 650 364 661.5 335.5 c 128,-1,155
 673 307 673 307 696 290.5 c 128,-1,156
 719 274 719 274 753 267 c 128,-1,157
 787 260 787 260 832 260 c 1,158,159
 827 236 827 236 822 202.5 c 128,-1,160
 817 169 817 169 817 134 c 0,161,162
 817 96 817 96 821.5 60.5 c 128,-1,163
 826 25 826 25 832 0 c 1,164,165
 803 6 803 6 759 10.5 c 128,-1,166
 715 15 715 15 663 18.5 c 128,-1,167
 611 22 611 22 555.5 23.5 c 128,-1,168
 500 25 500 25 449 25 c 256,169,170
 398 25 398 25 342.5 23.5 c 128,-1,171
 287 22 287 22 235 18.5 c 128,-1,172
 183 15 183 15 139 10.5 c 128,-1,173
 95 6 95 6 67 0 c 1,0,1
EndSplineSet
EndChar

StartChar: O
Encoding: 79 79 9
Width: 1707
Flags: W
LayerCount: 2
Fore
SplineSet
98 268 m 1,0,1
 117 294 117 294 133 374.5 c 128,-1,2
 149 455 149 455 149 594 c 0,3,4
 149 657 149 657 132 690.5 c 128,-1,5
 115 724 115 724 83 735 c 1,6,7
 101 740 101 740 114 758 c 128,-1,8
 127 776 127 776 136 802 c 128,-1,9
 145 828 145 828 149 859.5 c 128,-1,10
 153 891 153 891 153 924 c 0,11,12
 153 1010 153 1010 138.5 1076.5 c 128,-1,13
 124 1143 124 1143 98 1172 c 1,14,-1
 106 1172 l 2,15,16
 140 1172 140 1172 181.5 1187 c 128,-1,17
 223 1202 223 1202 266 1226.5 c 128,-1,18
 309 1251 309 1251 350 1281.5 c 128,-1,19
 391 1312 391 1312 423.5 1344 c 128,-1,20
 456 1376 456 1376 476.5 1406.5 c 128,-1,21
 497 1437 497 1437 499 1460 c 1,22,23
 515 1451 515 1451 548.5 1441.5 c 128,-1,24
 582 1432 582 1432 628.5 1423.5 c 128,-1,25
 675 1415 675 1415 732.5 1410 c 128,-1,26
 790 1405 790 1405 853 1405 c 256,27,28
 916 1405 916 1405 973.5 1410 c 128,-1,29
 1031 1415 1031 1415 1077.5 1423.5 c 128,-1,30
 1124 1432 1124 1432 1157.5 1441.5 c 128,-1,31
 1191 1451 1191 1451 1207 1460 c 1,32,33
 1209 1437 1209 1437 1229.5 1406.5 c 128,-1,34
 1250 1376 1250 1376 1282.5 1344 c 128,-1,35
 1315 1312 1315 1312 1356 1281.5 c 128,-1,36
 1397 1251 1397 1251 1440 1226.5 c 128,-1,37
 1483 1202 1483 1202 1524.5 1187 c 128,-1,38
 1566 1172 1566 1172 1600 1172 c 2,39,-1
 1608 1172 l 1,40,41
 1582 1143 1582 1143 1567.5 1076.5 c 128,-1,42
 1553 1010 1553 1010 1553 924 c 0,43,44
 1553 891 1553 891 1557 859.5 c 128,-1,45
 1561 828 1561 828 1570 802 c 128,-1,46
 1579 776 1579 776 1592 758 c 128,-1,47
 1605 740 1605 740 1623 735 c 1,48,49
 1591 724 1591 724 1574 690.5 c 128,-1,50
 1557 657 1557 657 1557 594 c 0,51,52
 1557 455 1557 455 1573 374.5 c 128,-1,53
 1589 294 1589 294 1608 268 c 1,54,55
 1554 262 1554 262 1490 234 c 128,-1,56
 1426 206 1426 206 1368.5 165 c 128,-1,57
 1311 124 1311 124 1268 75.5 c 128,-1,58
 1225 27 1225 27 1213 -20 c 1,59,60
 1197 -11 1197 -11 1162.5 -3 c 128,-1,61
 1128 5 1128 5 1080.5 11.5 c 128,-1,62
 1033 18 1033 18 974.5 21.5 c 128,-1,63
 916 25 916 25 853 25 c 256,64,65
 790 25 790 25 731.5 21.5 c 128,-1,66
 673 18 673 18 625.5 11.5 c 128,-1,67
 578 5 578 5 543.5 -3 c 128,-1,68
 509 -11 509 -11 493 -20 c 1,69,70
 481 27 481 27 438 75.5 c 128,-1,71
 395 124 395 124 337.5 165 c 128,-1,72
 280 206 280 206 216 234 c 128,-1,73
 152 262 152 262 98 268 c 1,0,1
853 220 m 256,74,75
 909 220 909 220 957.5 239.5 c 128,-1,76
 1006 259 1006 259 1041.5 312.5 c 128,-1,77
 1077 366 1077 366 1097.5 459.5 c 128,-1,78
 1118 553 1118 553 1118 702 c 0,79,80
 1118 819 1118 819 1107.5 902 c 128,-1,81
 1097 985 1097 985 1078.5 1041.5 c 128,-1,82
 1060 1098 1060 1098 1034.5 1131.5 c 128,-1,83
 1009 1165 1009 1165 979.5 1182.5 c 128,-1,84
 950 1200 950 1200 918 1205 c 128,-1,85
 886 1210 886 1210 853 1210 c 256,86,87
 820 1210 820 1210 788 1205 c 128,-1,88
 756 1200 756 1200 726.5 1182.5 c 128,-1,89
 697 1165 697 1165 671.5 1131.5 c 128,-1,90
 646 1098 646 1098 627.5 1041.5 c 128,-1,91
 609 985 609 985 598.5 902 c 128,-1,92
 588 819 588 819 588 702 c 0,93,94
 588 553 588 553 608.5 459.5 c 128,-1,95
 629 366 629 366 664.5 312.5 c 128,-1,96
 700 259 700 259 748.5 239.5 c 128,-1,97
 797 220 797 220 853 220 c 256,74,75
EndSplineSet
EndChar

StartChar: N
Encoding: 78 78 10
Width: 1875
Flags: W
LayerCount: 2
Fore
SplineSet
100 0 m 1,0,1
 106 25 106 25 110.5 60.5 c 128,-1,2
 115 96 115 96 115 134 c 0,3,4
 115 169 115 169 110 202.5 c 128,-1,5
 105 236 105 236 100 260 c 1,6,7
 145 260 145 260 179 267 c 128,-1,8
 213 274 213 274 236 290.5 c 128,-1,9
 259 307 259 307 270.5 335.5 c 128,-1,10
 282 364 282 364 282 407 c 0,11,12
 282 498 282 498 277.5 559 c 128,-1,13
 273 620 273 620 264.5 657.5 c 128,-1,14
 256 695 256 695 243 712.5 c 128,-1,15
 230 730 230 730 213 735 c 1,16,17
 231 741 231 741 244 756.5 c 128,-1,18
 257 772 257 772 265.5 807 c 128,-1,19
 274 842 274 842 278 900.5 c 128,-1,20
 282 959 282 959 282 1051 c 0,21,22
 282 1091 282 1091 269 1116 c 128,-1,23
 256 1141 256 1141 234 1155.5 c 128,-1,24
 212 1170 212 1170 182.5 1175 c 128,-1,25
 153 1180 153 1180 119 1180 c 2,26,-1
 100 1180 l 1,27,28
 105 1204 105 1204 110 1235.5 c 128,-1,29
 115 1267 115 1267 115 1302 c 0,30,31
 115 1339 115 1339 110.5 1377 c 128,-1,32
 106 1415 106 1415 100 1440 c 1,33,34
 139 1426 139 1426 211 1415.5 c 128,-1,35
 283 1405 283 1405 398 1405 c 0,36,37
 473 1405 473 1405 544 1413.5 c 128,-1,38
 615 1422 615 1422 675 1433 c 1,39,40
 675 1385 675 1385 695 1324 c 128,-1,41
 715 1263 715 1263 749 1196 c 128,-1,42
 783 1129 783 1129 826.5 1059.5 c 128,-1,43
 870 990 870 990 917.5 925 c 128,-1,44
 965 860 965 860 1012.5 802.5 c 128,-1,45
 1060 745 1060 745 1101.5 702.5 c 128,-1,46
 1143 660 1143 660 1174 635 c 128,-1,47
 1205 610 1205 610 1220 610 c 2,48,-1
 1222 610 l 2,49,50
 1223 610 1223 610 1224.5 609.5 c 128,-1,51
 1226 609 1226 609 1228 609 c 1,52,53
 1236 639 1236 639 1240.5 685 c 128,-1,54
 1245 731 1245 731 1247.5 789 c 128,-1,55
 1250 847 1250 847 1251 913.5 c 128,-1,56
 1252 980 1252 980 1252 1051 c 0,57,58
 1252 1091 1252 1091 1239 1116 c 128,-1,59
 1226 1141 1226 1141 1204 1155.5 c 128,-1,60
 1182 1170 1182 1170 1152.5 1175 c 128,-1,61
 1123 1180 1123 1180 1089 1180 c 2,62,-1
 1070 1180 l 1,63,64
 1075 1204 1075 1204 1080 1235.5 c 128,-1,65
 1085 1267 1085 1267 1085 1302 c 0,66,67
 1085 1339 1085 1339 1080.5 1377 c 128,-1,68
 1076 1415 1076 1415 1070 1440 c 1,69,70
 1089 1433 1089 1433 1130 1427 c 128,-1,71
 1171 1421 1171 1421 1224 1416 c 128,-1,72
 1277 1411 1277 1411 1336.5 1408 c 128,-1,73
 1396 1405 1396 1405 1453 1405 c 0,74,75
 1511 1405 1511 1405 1570.5 1408 c 128,-1,76
 1630 1411 1630 1411 1682.5 1416 c 128,-1,77
 1735 1421 1735 1421 1775 1427 c 128,-1,78
 1815 1433 1815 1433 1835 1440 c 1,79,80
 1829 1415 1829 1415 1824.5 1377 c 128,-1,81
 1820 1339 1820 1339 1820 1302 c 0,82,83
 1820 1267 1820 1267 1825 1235.5 c 128,-1,84
 1830 1204 1830 1204 1835 1180 c 1,85,-1
 1814 1180 l 2,86,87
 1778 1180 1778 1180 1748 1175 c 128,-1,88
 1718 1170 1718 1170 1697 1155.5 c 128,-1,89
 1676 1141 1676 1141 1664.5 1116 c 128,-1,90
 1653 1091 1653 1091 1653 1051 c 0,91,92
 1653 959 1653 959 1658.5 899 c 128,-1,93
 1664 839 1664 839 1674.5 803 c 128,-1,94
 1685 767 1685 767 1699.5 752 c 128,-1,95
 1714 737 1714 737 1732 735 c 1,96,97
 1715 726 1715 726 1702 707 c 128,-1,98
 1689 688 1689 688 1680.5 647 c 128,-1,99
 1672 606 1672 606 1667.5 538 c 128,-1,100
 1663 470 1663 470 1663 363 c 0,101,102
 1663 291 1663 291 1669 231.5 c 128,-1,103
 1675 172 1675 172 1683.5 126.5 c 128,-1,104
 1692 81 1692 81 1702 49.5 c 128,-1,105
 1712 18 1712 18 1720 0 c 1,106,107
 1695 8 1695 8 1664 13 c 128,-1,108
 1633 18 1633 18 1601 20.5 c 128,-1,109
 1569 23 1569 23 1539 24 c 128,-1,110
 1509 25 1509 25 1487 25 c 0,111,112
 1463 25 1463 25 1433 24 c 128,-1,113
 1403 23 1403 23 1371.5 20.5 c 128,-1,114
 1340 18 1340 18 1308 13 c 128,-1,115
 1276 8 1276 8 1249 0 c 1,116,117
 1249 50 1249 50 1220.5 119 c 128,-1,118
 1192 188 1192 188 1145.5 264 c 128,-1,119
 1099 340 1099 340 1040.5 418 c 128,-1,120
 982 496 982 496 922.5 565.5 c 128,-1,121
 863 635 863 635 808 690.5 c 128,-1,122
 753 746 753 746 714 777 c 1,123,124
 695 732 695 732 689 636 c 128,-1,125
 683 540 683 540 683 407 c 0,126,127
 683 364 683 364 692.5 335.5 c 128,-1,128
 702 307 702 307 724 290.5 c 128,-1,129
 746 274 746 274 780.5 267 c 128,-1,130
 815 260 815 260 865 260 c 1,131,132
 860 236 860 236 855 202.5 c 128,-1,133
 850 169 850 169 850 134 c 0,134,135
 850 96 850 96 854.5 60.5 c 128,-1,136
 859 25 859 25 865 0 c 1,137,138
 836 6 836 6 792 10.5 c 128,-1,139
 748 15 748 15 696 18.5 c 128,-1,140
 644 22 644 22 589 23.5 c 128,-1,141
 534 25 534 25 483 25 c 256,142,143
 432 25 432 25 376.5 23.5 c 128,-1,144
 321 22 321 22 269 18.5 c 128,-1,145
 217 15 217 15 172.5 10.5 c 128,-1,146
 128 6 128 6 100 0 c 1,0,1
EndSplineSet
EndChar

StartChar: M
Encoding: 77 77 11
Width: 2220
Flags: W
LayerCount: 2
Fore
SplineSet
107 0 m 1,0,1
 113 25 113 25 117.5 60.5 c 128,-1,2
 122 96 122 96 122 134 c 0,3,4
 122 169 122 169 117 202.5 c 128,-1,5
 112 236 112 236 107 260 c 1,6,7
 173 260 173 260 212.5 275.5 c 128,-1,8
 252 291 252 291 273 327.5 c 128,-1,9
 294 364 294 364 300.5 425 c 128,-1,10
 307 486 307 486 307 576 c 0,11,12
 307 645 307 645 290 687.5 c 128,-1,13
 273 730 273 730 250 735 c 1,14,15
 270 741 270 741 285 767 c 128,-1,16
 300 793 300 793 309.5 834.5 c 128,-1,17
 319 876 319 876 324 931 c 128,-1,18
 329 986 329 986 329 1051 c 0,19,20
 329 1091 329 1091 316 1116 c 128,-1,21
 303 1141 303 1141 281 1155.5 c 128,-1,22
 259 1170 259 1170 229.5 1175 c 128,-1,23
 200 1180 200 1180 166 1180 c 2,24,-1
 147 1180 l 1,25,26
 152 1204 152 1204 157 1235.5 c 128,-1,27
 162 1267 162 1267 162 1302 c 0,28,29
 162 1339 162 1339 157.5 1377 c 128,-1,30
 153 1415 153 1415 147 1440 c 1,31,32
 165 1433 165 1433 201.5 1427 c 128,-1,33
 238 1421 238 1421 285.5 1416 c 128,-1,34
 333 1411 333 1411 386 1408 c 128,-1,35
 439 1405 439 1405 490 1405 c 0,36,37
 548 1405 548 1405 599.5 1408 c 128,-1,38
 651 1411 651 1411 694 1416 c 128,-1,39
 737 1421 737 1421 769.5 1427 c 128,-1,40
 802 1433 802 1433 822 1440 c 1,41,42
 823 1409 823 1409 838 1357.5 c 128,-1,43
 853 1306 853 1306 877 1244 c 128,-1,44
 901 1182 901 1182 931.5 1114 c 128,-1,45
 962 1046 962 1046 993.5 983 c 128,-1,46
 1025 920 1025 920 1055.5 866 c 128,-1,47
 1086 812 1086 812 1110 778 c 1,48,49
 1134 812 1134 812 1164.5 866 c 128,-1,50
 1195 920 1195 920 1226.5 983 c 128,-1,51
 1258 1046 1258 1046 1288.5 1114 c 128,-1,52
 1319 1182 1319 1182 1343 1244 c 128,-1,53
 1367 1306 1367 1306 1382 1357.5 c 128,-1,54
 1397 1409 1397 1409 1398 1440 c 1,55,56
 1417 1433 1417 1433 1450 1426.5 c 128,-1,57
 1483 1420 1483 1420 1526 1415.5 c 128,-1,58
 1569 1411 1569 1411 1621 1408 c 128,-1,59
 1673 1405 1673 1405 1730 1405 c 0,60,61
 1781 1405 1781 1405 1834 1408 c 128,-1,62
 1887 1411 1887 1411 1934.5 1416 c 128,-1,63
 1982 1421 1982 1421 2018.5 1427 c 128,-1,64
 2055 1433 2055 1433 2073 1440 c 1,65,66
 2067 1415 2067 1415 2062.5 1377 c 128,-1,67
 2058 1339 2058 1339 2058 1302 c 0,68,69
 2058 1267 2058 1267 2063 1235.5 c 128,-1,70
 2068 1204 2068 1204 2073 1180 c 1,71,-1
 2054 1180 l 2,72,73
 2020 1180 2020 1180 1990.5 1175 c 128,-1,74
 1961 1170 1961 1170 1939 1155.5 c 128,-1,75
 1917 1141 1917 1141 1904 1116 c 128,-1,76
 1891 1091 1891 1091 1891 1051 c 0,77,78
 1891 986 1891 986 1895.5 931 c 128,-1,79
 1900 876 1900 876 1910 834.5 c 128,-1,80
 1920 793 1920 793 1935 767 c 128,-1,81
 1950 741 1950 741 1970 735 c 1,82,83
 1947 730 1947 730 1930 687.5 c 128,-1,84
 1913 645 1913 645 1913 576 c 0,85,86
 1913 527 1913 527 1923.5 487 c 128,-1,87
 1934 447 1934 447 1941 407 c 0,88,89
 1948 365 1948 365 1961 337 c 128,-1,90
 1974 309 1974 309 1996.5 292 c 128,-1,91
 2019 275 2019 275 2052.5 267.5 c 128,-1,92
 2086 260 2086 260 2133 260 c 1,93,94
 2128 236 2128 236 2123 202.5 c 128,-1,95
 2118 169 2118 169 2118 134 c 0,96,97
 2118 96 2118 96 2122.5 60.5 c 128,-1,98
 2127 25 2127 25 2133 0 c 1,99,100
 2104 6 2104 6 2060 10.5 c 128,-1,101
 2016 15 2016 15 1964 18.5 c 128,-1,102
 1912 22 1912 22 1856.5 23.5 c 128,-1,103
 1801 25 1801 25 1750 25 c 256,104,105
 1699 25 1699 25 1643.5 23.5 c 128,-1,106
 1588 22 1588 22 1536 18.5 c 128,-1,107
 1484 15 1484 15 1440 10.5 c 128,-1,108
 1396 6 1396 6 1368 0 c 1,109,110
 1374 25 1374 25 1378.5 60.5 c 128,-1,111
 1383 96 1383 96 1383 134 c 0,112,113
 1383 169 1383 169 1378 202.5 c 128,-1,114
 1373 236 1373 236 1368 260 c 1,115,116
 1468 260 1468 260 1514 294.5 c 128,-1,117
 1560 329 1560 329 1560 415 c 0,118,119
 1560 484 1560 484 1556.5 559 c 128,-1,120
 1553 634 1553 634 1546.5 702.5 c 128,-1,121
 1540 771 1540 771 1530.5 827.5 c 128,-1,122
 1521 884 1521 884 1509 916 c 1,123,124
 1487 916 1487 916 1459.5 884 c 128,-1,125
 1432 852 1432 852 1402.5 802 c 128,-1,126
 1373 752 1373 752 1345 692 c 128,-1,127
 1317 632 1317 632 1295 575 c 128,-1,128
 1273 518 1273 518 1259 472 c 128,-1,129
 1245 426 1245 426 1244 405 c 1,130,131
 1216 414 1216 414 1181 417 c 128,-1,132
 1146 420 1146 420 1110 420 c 256,133,134
 1074 420 1074 420 1039 417 c 128,-1,135
 1004 414 1004 414 976 405 c 1,136,137
 975 425 975 425 961 470 c 128,-1,138
 947 515 947 515 925 570.5 c 128,-1,139
 903 626 903 626 875.5 685 c 128,-1,140
 848 744 848 744 819 792.5 c 128,-1,141
 790 841 790 841 762 873 c 128,-1,142
 734 905 734 905 712 906 c 1,143,144
 702 874 702 874 695.5 818 c 128,-1,145
 689 762 689 762 685.5 694 c 128,-1,146
 682 626 682 626 681 551.5 c 128,-1,147
 680 477 680 477 680 407 c 0,148,149
 680 364 680 364 691.5 335.5 c 128,-1,150
 703 307 703 307 726.5 290.5 c 128,-1,151
 750 274 750 274 786 267 c 128,-1,152
 822 260 822 260 872 260 c 1,153,154
 867 236 867 236 862 202.5 c 128,-1,155
 857 169 857 169 857 134 c 0,156,157
 857 96 857 96 861.5 60.5 c 128,-1,158
 866 25 866 25 872 0 c 1,159,160
 843 6 843 6 799 10.5 c 128,-1,161
 755 15 755 15 703 18.5 c 128,-1,162
 651 22 651 22 596 23.5 c 128,-1,163
 541 25 541 25 490 25 c 256,164,165
 439 25 439 25 383.5 23.5 c 128,-1,166
 328 22 328 22 276 18.5 c 128,-1,167
 224 15 224 15 179.5 10.5 c 128,-1,168
 135 6 135 6 107 0 c 1,0,1
EndSplineSet
EndChar

StartChar: F
Encoding: 70 70 12
Width: 1538
Flags: W
LayerCount: 2
Fore
SplineSet
100 0 m 1,0,1
 106 25 106 25 110.5 60.5 c 128,-1,2
 115 96 115 96 115 134 c 0,3,4
 115 169 115 169 110 202.5 c 128,-1,5
 105 236 105 236 100 260 c 1,6,7
 145 260 145 260 179 267 c 128,-1,8
 213 274 213 274 236 290.5 c 128,-1,9
 259 307 259 307 270.5 335.5 c 128,-1,10
 282 364 282 364 282 407 c 0,11,12
 282 491 282 491 277.5 551 c 128,-1,13
 273 611 273 611 264.5 650 c 128,-1,14
 256 689 256 689 243 709.5 c 128,-1,15
 230 730 230 730 213 735 c 1,16,17
 231 741 231 741 244 754 c 128,-1,18
 257 767 257 767 265.5 798.5 c 128,-1,19
 274 830 274 830 278 885.5 c 128,-1,20
 282 941 282 941 282 1033 c 0,21,22
 282 1076 282 1076 270.5 1104.5 c 128,-1,23
 259 1133 259 1133 236 1149.5 c 128,-1,24
 213 1166 213 1166 179 1173 c 128,-1,25
 145 1180 145 1180 100 1180 c 1,26,27
 105 1204 105 1204 110 1237.5 c 128,-1,28
 115 1271 115 1271 115 1306 c 0,29,30
 115 1344 115 1344 110.5 1379.5 c 128,-1,31
 106 1415 106 1415 100 1440 c 1,32,33
 120 1435 120 1435 169 1430.5 c 128,-1,34
 218 1426 218 1426 283 1422 c 128,-1,35
 348 1418 348 1418 422 1415 c 128,-1,36
 496 1412 496 1412 566.5 1409.5 c 128,-1,37
 637 1407 637 1407 696.5 1406 c 128,-1,38
 756 1405 756 1405 792 1405 c 256,39,40
 828 1405 828 1405 888 1406 c 128,-1,41
 948 1407 948 1407 1018.5 1409.5 c 128,-1,42
 1089 1412 1089 1412 1163 1415 c 128,-1,43
 1237 1418 1237 1418 1302 1422 c 128,-1,44
 1367 1426 1367 1426 1416 1430.5 c 128,-1,45
 1465 1435 1465 1435 1485 1440 c 1,46,47
 1477 1398 1477 1398 1468.5 1333.5 c 128,-1,48
 1460 1269 1460 1269 1460 1197 c 0,49,50
 1460 1155 1460 1155 1463 1114.5 c 128,-1,51
 1466 1074 1466 1074 1469.5 1040.5 c 128,-1,52
 1473 1007 1473 1007 1477.5 982 c 128,-1,53
 1482 957 1482 957 1485 945 c 1,54,55
 1455 956 1455 956 1408.5 963 c 128,-1,56
 1362 970 1362 970 1310 970 c 0,57,58
 1287 970 1287 970 1260.5 969 c 128,-1,59
 1234 968 1234 968 1207 965 c 128,-1,60
 1180 962 1180 962 1155 957 c 128,-1,61
 1130 952 1130 952 1110 945 c 1,62,63
 1117 966 1117 966 1121.5 996 c 128,-1,64
 1126 1026 1126 1026 1126 1057 c 0,65,66
 1126 1108 1126 1108 1101.5 1138.5 c 128,-1,67
 1077 1169 1077 1169 1041 1185 c 128,-1,68
 1005 1201 1005 1201 965 1205.5 c 128,-1,69
 925 1210 925 1210 894 1210 c 0,70,71
 871 1210 871 1210 845.5 1208.5 c 128,-1,72
 820 1207 820 1207 793.5 1201.5 c 128,-1,73
 767 1196 767 1196 741 1186.5 c 128,-1,74
 715 1177 715 1177 693 1161 c 1,75,76
 689 1138 689 1138 686 1108 c 128,-1,77
 683 1078 683 1078 683 1033 c 0,78,79
 683 966 683 966 685.5 928.5 c 128,-1,80
 688 891 688 891 692 871 c 1,81,82
 707 865 707 865 728 861 c 128,-1,83
 749 857 749 857 772 854 c 128,-1,84
 795 851 795 851 817.5 850 c 128,-1,85
 840 849 840 849 859 849 c 0,86,87
 887 849 887 849 918 851.5 c 128,-1,88
 949 854 949 854 977 858 c 128,-1,89
 1005 862 1005 862 1027.5 867.5 c 128,-1,90
 1050 873 1050 873 1061 879 c 1,91,92
 1053 857 1053 857 1049.5 818 c 128,-1,93
 1046 779 1046 779 1046 736 c 0,94,95
 1046 712 1046 712 1047 688.5 c 128,-1,96
 1048 665 1048 665 1050.5 645.5 c 128,-1,97
 1053 626 1053 626 1055.5 611.5 c 128,-1,98
 1058 597 1058 597 1061 590 c 1,99,100
 1052 595 1052 595 1029 601 c 128,-1,101
 1006 607 1006 607 975.5 612 c 128,-1,102
 945 617 945 617 910.5 620 c 128,-1,103
 876 623 876 623 843 623 c 0,104,105
 826 623 826 623 805.5 622 c 128,-1,106
 785 621 785 621 764.5 618.5 c 128,-1,107
 744 616 744 616 725 612.5 c 128,-1,108
 706 609 706 609 692 604 c 1,109,110
 690 592 690 592 688.5 576.5 c 128,-1,111
 687 561 687 561 685.5 537.5 c 128,-1,112
 684 514 684 514 683.5 482 c 128,-1,113
 683 450 683 450 683 407 c 0,114,115
 683 360 683 360 702 331 c 128,-1,116
 721 302 721 302 760.5 286.5 c 128,-1,117
 800 271 800 271 860.5 265.5 c 128,-1,118
 921 260 921 260 1005 260 c 1,119,120
 1000 236 1000 236 995 202.5 c 128,-1,121
 990 169 990 169 990 134 c 0,122,123
 990 96 990 96 994.5 60.5 c 128,-1,124
 999 25 999 25 1005 0 c 1,125,126
 977 6 977 6 923.5 10.5 c 128,-1,127
 870 15 870 15 806.5 18.5 c 128,-1,128
 743 22 743 22 678.5 23.5 c 128,-1,129
 614 25 614 25 563 25 c 0,130,131
 509 25 509 25 441 23.5 c 128,-1,132
 373 22 373 22 307.5 18.5 c 128,-1,133
 242 15 242 15 186 10.5 c 128,-1,134
 130 6 130 6 100 0 c 1,0,1
EndSplineSet
EndChar

StartChar: J
Encoding: 74 74 13
Width: 1368
Flags: W
LayerCount: 2
Fore
SplineSet
65 273 m 1,0,1
 74 303 74 303 82 342 c 128,-1,2
 90 381 90 381 90 421 c 0,3,4
 90 454 90 454 87 490 c 128,-1,5
 84 526 84 526 79 558.5 c 128,-1,6
 74 591 74 591 68.5 617 c 128,-1,7
 63 643 63 643 57 655 c 1,8,9
 75 649 75 649 101 644.5 c 128,-1,10
 127 640 127 640 158 636.5 c 128,-1,11
 189 633 189 633 222 631.5 c 128,-1,12
 255 630 255 630 287 630 c 0,13,14
 317 630 317 630 351 631 c 128,-1,15
 385 632 385 632 419.5 635 c 128,-1,16
 454 638 454 638 487 643 c 128,-1,17
 520 648 520 648 547 655 c 1,18,19
 541 628 541 628 537.5 597.5 c 128,-1,20
 534 567 534 567 534 529 c 0,21,22
 534 509 534 509 535.5 486 c 128,-1,23
 537 463 537 463 540 440.5 c 128,-1,24
 543 418 543 418 547 397 c 128,-1,25
 551 376 551 376 556 360 c 1,26,27
 514 353 514 353 493.5 329.5 c 128,-1,28
 473 306 473 306 473 277 c 0,29,30
 473 256 473 256 506.5 238 c 128,-1,31
 540 220 540 220 610 220 c 0,32,33
 663 220 663 220 701 240.5 c 128,-1,34
 739 261 739 261 764 298 c 128,-1,35
 789 335 789 335 800.5 387.5 c 128,-1,36
 812 440 812 440 812 505 c 0,37,38
 812 608 812 608 795 666.5 c 128,-1,39
 778 725 778 725 743 735 c 1,40,41
 761 741 761 741 775 753.5 c 128,-1,42
 789 766 789 766 799 790.5 c 128,-1,43
 809 815 809 815 814.5 854 c 128,-1,44
 820 893 820 893 820 951 c 0,45,46
 820 993 820 993 814.5 1024 c 128,-1,47
 809 1055 809 1055 801 1080 c 0,48,49
 790 1112 790 1112 769.5 1131.5 c 128,-1,50
 749 1151 749 1151 708 1162 c 128,-1,51
 667 1173 667 1173 599.5 1176.5 c 128,-1,52
 532 1180 532 1180 428 1180 c 1,53,54
 433 1204 433 1204 438 1235.5 c 128,-1,55
 443 1267 443 1267 443 1302 c 0,56,57
 443 1339 443 1339 439 1377 c 128,-1,58
 435 1415 435 1415 428 1440 c 1,59,60
 451 1433 451 1433 504 1426.5 c 128,-1,61
 557 1420 557 1420 625.5 1415.5 c 128,-1,62
 694 1411 694 1411 771.5 1408 c 128,-1,63
 849 1405 849 1405 921 1405 c 0,64,65
 994 1405 994 1405 1065 1408 c 128,-1,66
 1136 1411 1136 1411 1196.5 1415.5 c 128,-1,67
 1257 1420 1257 1420 1303.5 1426.5 c 128,-1,68
 1350 1433 1350 1433 1373 1440 c 1,69,70
 1366 1415 1366 1415 1362 1377 c 128,-1,71
 1358 1339 1358 1339 1358 1302 c 0,72,73
 1358 1267 1358 1267 1363 1235.5 c 128,-1,74
 1368 1204 1368 1204 1373 1180 c 1,75,-1
 1353 1180 l 2,76,77
 1317 1180 1317 1180 1292 1175 c 128,-1,78
 1267 1170 1267 1170 1251.5 1155.5 c 128,-1,79
 1236 1141 1236 1141 1228.5 1116 c 128,-1,80
 1221 1091 1221 1091 1221 1051 c 0,81,82
 1221 959 1221 959 1225.5 900.5 c 128,-1,83
 1230 842 1230 842 1239 807 c 128,-1,84
 1248 772 1248 772 1261 756.5 c 128,-1,85
 1274 741 1274 741 1292 735 c 1,86,87
 1278 735 1278 735 1267 712.5 c 128,-1,88
 1256 690 1256 690 1248.5 653.5 c 128,-1,89
 1241 617 1241 617 1236.5 571 c 128,-1,90
 1232 525 1232 525 1232 479 c 0,91,92
 1232 443 1232 443 1234.5 409.5 c 128,-1,93
 1237 376 1237 376 1243 347.5 c 128,-1,94
 1249 319 1249 319 1257.5 298 c 128,-1,95
 1266 277 1266 277 1278 268 c 1,96,97
 1233 262 1233 262 1191 235.5 c 128,-1,98
 1149 209 1149 209 1115 170 c 128,-1,99
 1081 131 1081 131 1057 84 c 128,-1,100
 1033 37 1033 37 1023 -10 c 1,101,102
 1009 -1 1009 -1 971.5 5.5 c 128,-1,103
 934 12 934 12 883.5 16.5 c 128,-1,104
 833 21 833 21 775 23 c 128,-1,105
 717 25 717 25 663 25 c 0,106,107
 545 25 545 25 462.5 15.5 c 128,-1,108
 380 6 380 6 340 -10 c 1,109,110
 338 35 338 35 323 84.5 c 128,-1,111
 308 134 308 134 275.5 175.5 c 128,-1,112
 243 217 243 217 191.5 244.5 c 128,-1,113
 140 272 140 272 65 273 c 1,0,1
EndSplineSet
EndChar

StartChar: K
Encoding: 75 75 14
Width: 1879
Flags: W
LayerCount: 2
Fore
SplineSet
100 0 m 1,0,1
 106 25 106 25 110.5 60.5 c 128,-1,2
 115 96 115 96 115 134 c 0,3,4
 115 169 115 169 110 202.5 c 128,-1,5
 105 236 105 236 100 260 c 1,6,7
 145 260 145 260 179 267 c 128,-1,8
 213 274 213 274 236 290.5 c 128,-1,9
 259 307 259 307 270.5 335.5 c 128,-1,10
 282 364 282 364 282 407 c 0,11,12
 282 491 282 491 277.5 551 c 128,-1,13
 273 611 273 611 264.5 650 c 128,-1,14
 256 689 256 689 243 709.5 c 128,-1,15
 230 730 230 730 213 735 c 1,16,17
 231 741 231 741 244 756.5 c 128,-1,18
 257 772 257 772 265.5 807 c 128,-1,19
 274 842 274 842 278 900.5 c 128,-1,20
 282 959 282 959 282 1051 c 0,21,22
 282 1091 282 1091 269 1116 c 128,-1,23
 256 1141 256 1141 234 1155.5 c 128,-1,24
 212 1170 212 1170 182.5 1175 c 128,-1,25
 153 1180 153 1180 119 1180 c 2,26,-1
 100 1180 l 1,27,28
 105 1204 105 1204 110 1235.5 c 128,-1,29
 115 1267 115 1267 115 1302 c 0,30,31
 115 1339 115 1339 110.5 1377 c 128,-1,32
 106 1415 106 1415 100 1440 c 1,33,34
 119 1433 119 1433 160 1427 c 128,-1,35
 201 1421 201 1421 254 1416 c 128,-1,36
 307 1411 307 1411 366.5 1408 c 128,-1,37
 426 1405 426 1405 483 1405 c 0,38,39
 541 1405 541 1405 600.5 1408 c 128,-1,40
 660 1411 660 1411 712.5 1416 c 128,-1,41
 765 1421 765 1421 805 1427 c 128,-1,42
 845 1433 845 1433 865 1440 c 1,43,44
 859 1415 859 1415 854.5 1377 c 128,-1,45
 850 1339 850 1339 850 1302 c 0,46,47
 850 1267 850 1267 855 1235.5 c 128,-1,48
 860 1204 860 1204 865 1180 c 1,49,-1
 844 1180 l 2,50,51
 808 1180 808 1180 778 1175 c 128,-1,52
 748 1170 748 1170 727 1155.5 c 128,-1,53
 706 1141 706 1141 694.5 1116 c 128,-1,54
 683 1091 683 1091 683 1051 c 0,55,56
 683 979 683 979 685.5 928.5 c 128,-1,57
 688 878 688 878 693 843 c 1,58,59
 715 836 715 836 747 836 c 0,60,61
 765 836 765 836 784.5 836 c 128,-1,62
 804 836 804 836 827 837 c 128,-1,63
 850 838 850 838 878.5 838.5 c 128,-1,64
 907 839 907 839 944 841 c 1,65,66
 997 873 997 873 1040.5 913 c 128,-1,67
 1084 953 1084 953 1114.5 991.5 c 128,-1,68
 1145 1030 1145 1030 1162 1063 c 128,-1,69
 1179 1096 1179 1096 1179 1114 c 0,70,71
 1179 1134 1179 1134 1173 1147 c 128,-1,72
 1167 1160 1167 1160 1151.5 1167.5 c 128,-1,73
 1136 1175 1136 1175 1108 1177.5 c 128,-1,74
 1080 1180 1080 1180 1037 1180 c 1,75,76
 1045 1204 1045 1204 1048.5 1240.5 c 128,-1,77
 1052 1277 1052 1277 1052 1308 c 0,78,79
 1052 1341 1052 1341 1048 1378 c 128,-1,80
 1044 1415 1044 1415 1035 1440 c 1,81,82
 1055 1431 1055 1431 1096 1424.5 c 128,-1,83
 1137 1418 1137 1418 1187.5 1413.5 c 128,-1,84
 1238 1409 1238 1409 1294 1407 c 128,-1,85
 1350 1405 1350 1405 1400 1405 c 0,86,87
 1444 1405 1444 1405 1493 1408 c 128,-1,88
 1542 1411 1542 1411 1587.5 1416.5 c 128,-1,89
 1633 1422 1633 1422 1671 1428 c 128,-1,90
 1709 1434 1709 1434 1732 1440 c 1,91,92
 1726 1428 1726 1428 1723 1410.5 c 128,-1,93
 1720 1393 1720 1393 1718.5 1373.5 c 128,-1,94
 1717 1354 1717 1354 1717 1334 c 128,-1,95
 1717 1314 1717 1314 1717 1298 c 0,96,97
 1717 1267 1717 1267 1720.5 1235.5 c 128,-1,98
 1724 1204 1724 1204 1732 1180 c 1,99,100
 1689 1180 1689 1180 1651 1164.5 c 128,-1,101
 1613 1149 1613 1149 1581.5 1124 c 128,-1,102
 1550 1099 1550 1099 1525 1066.5 c 128,-1,103
 1500 1034 1500 1034 1483 999.5 c 128,-1,104
 1466 965 1466 965 1457 931.5 c 128,-1,105
 1448 898 1448 898 1448 871 c 1,106,107
 1418 864 1418 864 1387 851 c 128,-1,108
 1356 838 1356 838 1326 822 c 128,-1,109
 1296 806 1296 806 1268 787 c 128,-1,110
 1240 768 1240 768 1217 749 c 1,111,112
 1249 717 1249 717 1301 688 c 128,-1,113
 1353 659 1353 659 1407.5 636.5 c 128,-1,114
 1462 614 1462 614 1510.5 600.5 c 128,-1,115
 1559 587 1559 587 1585 587 c 1,116,117
 1579 557 1579 557 1579 527 c 0,118,119
 1579 474 1579 474 1595.5 425.5 c 128,-1,120
 1612 377 1612 377 1641 340.5 c 128,-1,121
 1670 304 1670 304 1709 282 c 128,-1,122
 1748 260 1748 260 1793 260 c 1,123,124
 1785 236 1785 236 1783.5 202.5 c 128,-1,125
 1782 169 1782 169 1782 134 c 0,126,127
 1782 96 1782 96 1783.5 60.5 c 128,-1,128
 1785 25 1785 25 1794 0 c 1,129,130
 1784 4 1784 4 1751 8.5 c 128,-1,131
 1718 13 1718 13 1675.5 16.5 c 128,-1,132
 1633 20 1633 20 1588 22.5 c 128,-1,133
 1543 25 1543 25 1508 25 c 0,134,135
 1484 25 1484 25 1451.5 24.5 c 128,-1,136
 1419 24 1419 24 1382.5 23 c 128,-1,137
 1346 22 1346 22 1309 20.5 c 128,-1,138
 1272 19 1272 19 1239.5 16 c 128,-1,139
 1207 13 1207 13 1182 9 c 128,-1,140
 1157 5 1157 5 1145 0 c 1,141,142
 1156 21 1156 21 1161 48.5 c 128,-1,143
 1166 76 1166 76 1166 105 c 0,144,145
 1166 152 1166 152 1154.5 195.5 c 128,-1,146
 1143 239 1143 239 1123 260 c 1,147,148
 1149 275 1149 275 1164.5 292.5 c 128,-1,149
 1180 310 1180 310 1188 330 c 128,-1,150
 1196 350 1196 350 1198.5 374 c 128,-1,151
 1201 398 1201 398 1201 425 c 0,152,153
 1201 465 1201 465 1175 505.5 c 128,-1,154
 1149 546 1149 546 1107 577.5 c 128,-1,155
 1065 609 1065 609 1012.5 629 c 128,-1,156
 960 649 960 649 906 649 c 0,157,158
 893 649 893 649 876.5 649.5 c 128,-1,159
 860 650 860 650 840 650 c 0,160,161
 806 650 806 650 768 645.5 c 128,-1,162
 730 641 730 641 695 626 c 1,163,164
 683 549 683 549 683 407 c 0,165,166
 683 364 683 364 692.5 335.5 c 128,-1,167
 702 307 702 307 724 290.5 c 128,-1,168
 746 274 746 274 780.5 267 c 128,-1,169
 815 260 815 260 865 260 c 1,170,171
 860 236 860 236 855 202.5 c 128,-1,172
 850 169 850 169 850 134 c 0,173,174
 850 96 850 96 854.5 60.5 c 128,-1,175
 859 25 859 25 865 0 c 1,176,177
 836 6 836 6 792 10.5 c 128,-1,178
 748 15 748 15 696 18.5 c 128,-1,179
 644 22 644 22 589 23.5 c 128,-1,180
 534 25 534 25 483 25 c 256,181,182
 432 25 432 25 376.5 23.5 c 128,-1,183
 321 22 321 22 269 18.5 c 128,-1,184
 217 15 217 15 172.5 10.5 c 128,-1,185
 128 6 128 6 100 0 c 1,0,1
EndSplineSet
EndChar

StartChar: G
Encoding: 71 71 15
Width: 1699
Flags: W
LayerCount: 2
Fore
SplineSet
100 268 m 1,0,1
 119 294 119 294 135 374.5 c 128,-1,2
 151 455 151 455 151 594 c 0,3,4
 151 657 151 657 134 690.5 c 128,-1,5
 117 724 117 724 85 735 c 1,6,7
 103 740 103 740 116 758 c 128,-1,8
 129 776 129 776 138 802 c 128,-1,9
 147 828 147 828 151 859.5 c 128,-1,10
 155 891 155 891 155 924 c 0,11,12
 155 1010 155 1010 140.5 1076.5 c 128,-1,13
 126 1143 126 1143 100 1172 c 1,14,-1
 108 1172 l 2,15,16
 142 1172 142 1172 184.5 1187 c 128,-1,17
 227 1202 227 1202 271 1226.5 c 128,-1,18
 315 1251 315 1251 357 1281.5 c 128,-1,19
 399 1312 399 1312 432.5 1344 c 128,-1,20
 466 1376 466 1376 487.5 1406.5 c 128,-1,21
 509 1437 509 1437 511 1460 c 1,22,23
 527 1451 527 1451 551.5 1441.5 c 128,-1,24
 576 1432 576 1432 612 1423.5 c 128,-1,25
 648 1415 648 1415 697.5 1410 c 128,-1,26
 747 1405 747 1405 815 1405 c 0,27,28
 848 1405 848 1405 883.5 1409 c 128,-1,29
 919 1413 919 1413 952.5 1420.5 c 128,-1,30
 986 1428 986 1428 1015 1438 c 128,-1,31
 1044 1448 1044 1448 1063 1460 c 1,32,33
 1075 1422 1075 1422 1097.5 1393.5 c 128,-1,34
 1120 1365 1120 1365 1149 1347 c 1,35,36
 1173 1369 1173 1369 1184 1394.5 c 128,-1,37
 1195 1420 1195 1420 1200 1440 c 1,38,39
 1209 1435 1209 1435 1234 1431.5 c 128,-1,40
 1259 1428 1259 1428 1291.5 1425.5 c 128,-1,41
 1324 1423 1324 1423 1359.5 1421.5 c 128,-1,42
 1395 1420 1395 1420 1425 1420 c 0,43,44
 1501 1420 1501 1420 1573 1440 c 1,45,46
 1571 1432 1571 1432 1566.5 1409 c 128,-1,47
 1562 1386 1562 1386 1558 1356 c 128,-1,48
 1554 1326 1554 1326 1551 1292 c 128,-1,49
 1548 1258 1548 1258 1548 1227 c 0,50,51
 1548 1163 1548 1163 1551 1106 c 128,-1,52
 1554 1049 1554 1049 1557.5 1003 c 128,-1,53
 1561 957 1561 957 1565.5 924 c 128,-1,54
 1570 891 1570 891 1573 875 c 1,55,56
 1525 883 1525 883 1480 886.5 c 128,-1,57
 1435 890 1435 890 1392 890 c 0,58,59
 1362 890 1362 890 1326.5 889 c 128,-1,60
 1291 888 1291 888 1256 886.5 c 128,-1,61
 1221 885 1221 885 1189 882 c 128,-1,62
 1157 879 1157 879 1133 875 c 1,63,64
 1133 943 1133 943 1120 1004 c 128,-1,65
 1107 1065 1107 1065 1078.5 1110.5 c 128,-1,66
 1050 1156 1050 1156 1004.5 1183 c 128,-1,67
 959 1210 959 1210 895 1210 c 0,68,69
 860 1210 860 1210 825 1204 c 128,-1,70
 790 1198 790 1198 758.5 1179.5 c 128,-1,71
 727 1161 727 1161 699.5 1127 c 128,-1,72
 672 1093 672 1093 652.5 1036.5 c 128,-1,73
 633 980 633 980 621.5 898 c 128,-1,74
 610 816 610 816 610 702 c 0,75,76
 610 557 610 557 635 465.5 c 128,-1,77
 660 374 660 374 702 321.5 c 128,-1,78
 744 269 744 269 799 249.5 c 128,-1,79
 854 230 854 230 915 230 c 0,80,81
 975 230 975 230 1013.5 242 c 128,-1,82
 1052 254 1052 254 1074 273 c 128,-1,83
 1096 292 1096 292 1104 316.5 c 128,-1,84
 1112 341 1112 341 1112 367 c 0,85,86
 1112 389 1112 389 1106.5 404.5 c 128,-1,87
 1101 420 1101 420 1085.5 430 c 128,-1,88
 1070 440 1070 440 1042 445 c 128,-1,89
 1014 450 1014 450 970 450 c 1,90,91
 978 478 978 478 981.5 508 c 128,-1,92
 985 538 985 538 985 583 c 0,93,94
 985 618 985 618 980.5 644.5 c 128,-1,95
 976 671 976 671 970 695 c 1,96,97
 1024 681 1024 681 1087 675.5 c 128,-1,98
 1150 670 1150 670 1210 670 c 0,99,100
 1261 670 1261 670 1319.5 671.5 c 128,-1,101
 1378 673 1378 673 1433.5 676.5 c 128,-1,102
 1489 680 1489 680 1536 684.5 c 128,-1,103
 1583 689 1583 689 1610 695 c 1,104,105
 1591 647 1591 647 1578.5 589.5 c 128,-1,106
 1566 532 1566 532 1558.5 471 c 128,-1,107
 1551 410 1551 410 1547.5 349 c 128,-1,108
 1544 288 1544 288 1544 232 c 0,109,110
 1544 151 1544 151 1549.5 89 c 128,-1,111
 1555 27 1555 27 1563 0 c 1,112,113
 1538 0 1538 0 1501.5 11.5 c 128,-1,114
 1465 23 1465 23 1425.5 41 c 128,-1,115
 1386 59 1386 59 1348.5 82 c 128,-1,116
 1311 105 1311 105 1284 128 c 1,117,118
 1258 127 1258 127 1226 110.5 c 128,-1,119
 1194 94 1194 94 1166 71 c 128,-1,120
 1138 48 1138 48 1119.5 23 c 128,-1,121
 1101 -2 1101 -2 1101 -20 c 1,122,123
 1084 -11 1084 -11 1052 -3 c 128,-1,124
 1020 5 1020 5 982.5 11.5 c 128,-1,125
 945 18 945 18 908 21.5 c 128,-1,126
 871 25 871 25 845 25 c 0,127,128
 709 25 709 25 623.5 11.5 c 128,-1,129
 538 -2 538 -2 505 -20 c 1,130,131
 497 11 497 11 474 43.5 c 128,-1,132
 451 76 451 76 418 106.5 c 128,-1,133
 385 137 385 137 345 164.5 c 128,-1,134
 305 192 305 192 262.5 214 c 128,-1,135
 220 236 220 236 178 250 c 128,-1,136
 136 264 136 264 100 268 c 1,0,1
EndSplineSet
EndChar

StartChar: S
Encoding: 83 83 16
Width: 1529
Flags: W
LayerCount: 2
Fore
SplineSet
148 0 m 1,0,1
 150 8 150 8 153.5 29 c 128,-1,2
 157 50 157 50 160 78.5 c 128,-1,3
 163 107 163 107 165.5 139.5 c 128,-1,4
 168 172 168 172 168 203 c 0,5,6
 168 286 168 286 161.5 349 c 128,-1,7
 155 412 155 412 148 435 c 1,8,9
 205 426 205 426 255 423 c 128,-1,10
 305 420 305 420 353 420 c 0,11,12
 441 420 441 420 509 435 c 1,13,14
 509 391 509 391 530 351.5 c 128,-1,15
 551 312 551 312 588.5 283 c 128,-1,16
 626 254 626 254 678.5 237 c 128,-1,17
 731 220 731 220 795 220 c 0,18,19
 838 220 838 220 882 224.5 c 128,-1,20
 926 229 926 229 961.5 244 c 128,-1,21
 997 259 997 259 1019 287 c 128,-1,22
 1041 315 1041 315 1041 362 c 0,23,24
 1041 396 1041 396 1020.5 432.5 c 128,-1,25
 1000 469 1000 469 956.5 498 c 128,-1,26
 913 527 913 527 844.5 546 c 128,-1,27
 776 565 776 565 680 565 c 0,28,29
 598 565 598 565 517.5 560.5 c 128,-1,30
 437 556 437 556 343 532 c 1,31,32
 341 562 341 562 321.5 598 c 128,-1,33
 302 634 302 634 271.5 665.5 c 128,-1,34
 241 697 241 697 201.5 718.5 c 128,-1,35
 162 740 162 740 121 740 c 2,36,-1
 111 740 l 1,37,38
 123 745 123 745 132 763 c 128,-1,39
 141 781 141 781 146.5 807 c 128,-1,40
 152 833 152 833 155 864.5 c 128,-1,41
 158 896 158 896 158 929 c 0,42,43
 158 1012 158 1012 149.5 1078 c 128,-1,44
 141 1144 141 1144 125 1172 c 1,45,-1
 132 1172 l 2,46,47
 161 1172 161 1172 196 1187 c 128,-1,48
 231 1202 231 1202 266.5 1226.5 c 128,-1,49
 302 1251 302 1251 336 1281.5 c 128,-1,50
 370 1312 370 1312 396.5 1344 c 128,-1,51
 423 1376 423 1376 440 1406.5 c 128,-1,52
 457 1437 457 1437 459 1460 c 1,53,54
 474 1451 474 1451 496.5 1441.5 c 128,-1,55
 519 1432 519 1432 552.5 1423.5 c 128,-1,56
 586 1415 586 1415 632 1410 c 128,-1,57
 678 1405 678 1405 741 1405 c 0,58,59
 778 1405 778 1405 819.5 1409 c 128,-1,60
 861 1413 861 1413 900 1420.5 c 128,-1,61
 939 1428 939 1428 973 1438 c 128,-1,62
 1007 1448 1007 1448 1028 1460 c 1,63,64
 1036 1429 1036 1429 1055 1396.5 c 128,-1,65
 1074 1364 1074 1364 1100 1341 c 1,66,67
 1126 1363 1126 1363 1138 1391 c 128,-1,68
 1150 1419 1150 1419 1155 1440 c 1,69,70
 1170 1431 1170 1431 1200 1425.5 c 128,-1,71
 1230 1420 1230 1420 1278 1420 c 0,72,73
 1351 1420 1351 1420 1414 1440 c 1,74,75
 1412 1432 1412 1432 1409 1409 c 128,-1,76
 1406 1386 1406 1386 1403 1356 c 128,-1,77
 1400 1326 1400 1326 1398 1292 c 128,-1,78
 1396 1258 1396 1258 1396 1227 c 0,79,80
 1396 1140 1396 1140 1402.5 1074.5 c 128,-1,81
 1409 1009 1409 1009 1414 985 c 1,82,83
 1363 994 1363 994 1318 997 c 128,-1,84
 1273 1000 1273 1000 1228 1000 c 0,85,86
 1140 1000 1140 1000 1073 985 c 1,87,88
 1073 1031 1073 1031 1052 1072 c 128,-1,89
 1031 1113 1031 1113 993.5 1144 c 128,-1,90
 956 1175 956 1175 903.5 1192.5 c 128,-1,91
 851 1210 851 1210 787 1210 c 0,92,93
 743 1210 743 1210 699.5 1203.5 c 128,-1,94
 656 1197 656 1197 620.5 1180.5 c 128,-1,95
 585 1164 585 1164 563 1137 c 128,-1,96
 541 1110 541 1110 541 1068 c 0,97,98
 541 1033 541 1033 558.5 1000 c 128,-1,99
 576 967 576 967 616 941 c 128,-1,100
 656 915 656 915 721.5 899 c 128,-1,101
 787 883 787 883 883 883 c 0,102,103
 923 883 923 883 970 883.5 c 128,-1,104
 1017 884 1017 884 1063 886.5 c 128,-1,105
 1109 889 1109 889 1150 894 c 128,-1,106
 1191 899 1191 899 1221 908 c 1,107,108
 1224 878 1224 878 1246 840 c 128,-1,109
 1268 802 1268 802 1301.5 768.5 c 128,-1,110
 1335 735 1335 735 1377 712.5 c 128,-1,111
 1419 690 1419 690 1461 690 c 2,112,-1
 1471 690 l 1,113,114
 1459 685 1459 685 1450 667 c 128,-1,115
 1441 649 1441 649 1435.5 623 c 128,-1,116
 1430 597 1430 597 1427 565.5 c 128,-1,117
 1424 534 1424 534 1424 501 c 0,118,119
 1424 460 1424 460 1426 422 c 128,-1,120
 1428 384 1428 384 1432.5 352 c 128,-1,121
 1437 320 1437 320 1443 295.5 c 128,-1,122
 1449 271 1449 271 1457 258 c 1,123,-1
 1450 258 l 2,124,125
 1421 258 1421 258 1386 244 c 128,-1,126
 1351 230 1351 230 1315 206.5 c 128,-1,127
 1279 183 1279 183 1245 153.5 c 128,-1,128
 1211 124 1211 124 1184 93 c 128,-1,129
 1157 62 1157 62 1140.5 32.5 c 128,-1,130
 1124 3 1124 3 1123 -20 c 1,131,132
 1108 -11 1108 -11 1085.5 -3 c 128,-1,133
 1063 5 1063 5 1029.5 11.5 c 128,-1,134
 996 18 996 18 950 21.5 c 128,-1,135
 904 25 904 25 841 25 c 0,136,137
 804 25 804 25 765.5 22.5 c 128,-1,138
 727 20 727 20 691.5 14.5 c 128,-1,139
 656 9 656 9 625.5 0.5 c 128,-1,140
 595 -8 595 -8 574 -20 c 1,141,142
 565 11 565 11 546.5 40 c 128,-1,143
 528 69 528 69 502 90 c 1,144,145
 475 70 475 70 463.5 45.5 c 128,-1,146
 452 21 452 21 447 0 c 1,147,148
 439 4 439 4 421.5 8.5 c 128,-1,149
 404 13 404 13 382 16.5 c 128,-1,150
 360 20 360 20 335 22.5 c 128,-1,151
 310 25 310 25 286 25 c 0,152,153
 247 25 247 25 210 18 c 128,-1,154
 173 11 173 11 148 0 c 1,0,1
EndSplineSet
EndChar

StartChar: L
Encoding: 76 76 17
Width: 1532
Flags: W
LayerCount: 2
Fore
SplineSet
100 0 m 1,0,1
 106 25 106 25 110.5 60.5 c 128,-1,2
 115 96 115 96 115 134 c 0,3,4
 115 169 115 169 110 202.5 c 128,-1,5
 105 236 105 236 100 260 c 1,6,7
 145 260 145 260 179 267 c 128,-1,8
 213 274 213 274 236 290.5 c 128,-1,9
 259 307 259 307 270.5 335.5 c 128,-1,10
 282 364 282 364 282 407 c 0,11,12
 282 491 282 491 277.5 551 c 128,-1,13
 273 611 273 611 264.5 650 c 128,-1,14
 256 689 256 689 243 709.5 c 128,-1,15
 230 730 230 730 213 735 c 1,16,17
 231 741 231 741 244 756.5 c 128,-1,18
 257 772 257 772 265.5 807 c 128,-1,19
 274 842 274 842 278 900.5 c 128,-1,20
 282 959 282 959 282 1051 c 0,21,22
 282 1091 282 1091 269 1116 c 128,-1,23
 256 1141 256 1141 234 1155.5 c 128,-1,24
 212 1170 212 1170 182.5 1175 c 128,-1,25
 153 1180 153 1180 119 1180 c 2,26,-1
 100 1180 l 1,27,28
 105 1204 105 1204 110 1235.5 c 128,-1,29
 115 1267 115 1267 115 1302 c 0,30,31
 115 1339 115 1339 110.5 1377 c 128,-1,32
 106 1415 106 1415 100 1440 c 1,33,34
 119 1433 119 1433 160 1427 c 128,-1,35
 201 1421 201 1421 254 1416 c 128,-1,36
 307 1411 307 1411 366.5 1408 c 128,-1,37
 426 1405 426 1405 483 1405 c 0,38,39
 541 1405 541 1405 605.5 1408 c 128,-1,40
 670 1411 670 1411 728.5 1416 c 128,-1,41
 787 1421 787 1421 832 1427 c 128,-1,42
 877 1433 877 1433 897 1440 c 1,43,44
 891 1415 891 1415 886.5 1377 c 128,-1,45
 882 1339 882 1339 882 1302 c 0,46,47
 882 1267 882 1267 887 1235.5 c 128,-1,48
 892 1204 892 1204 897 1180 c 1,49,-1
 876 1180 l 2,50,51
 838 1180 838 1180 803 1175 c 128,-1,52
 768 1170 768 1170 741.5 1155.5 c 128,-1,53
 715 1141 715 1141 699 1116 c 128,-1,54
 683 1091 683 1091 683 1051 c 0,55,56
 683 959 683 959 687 900.5 c 128,-1,57
 691 842 691 842 699.5 807 c 128,-1,58
 708 772 708 772 721 756.5 c 128,-1,59
 734 741 734 741 752 735 c 1,60,61
 735 730 735 730 722 709.5 c 128,-1,62
 709 689 709 689 700.5 650 c 128,-1,63
 692 611 692 611 687.5 551 c 128,-1,64
 683 491 683 491 683 407 c 0,65,66
 683 355 683 355 687 321 c 128,-1,67
 691 287 691 287 696 262 c 1,68,69
 738 241 738 241 787.5 232.5 c 128,-1,70
 837 224 837 224 880 224 c 0,71,72
 943 224 943 224 985 230 c 128,-1,73
 1027 236 1027 236 1052 257 c 128,-1,74
 1077 278 1077 278 1087 318.5 c 128,-1,75
 1097 359 1097 359 1097 428 c 0,76,77
 1097 491 1097 491 1091 532.5 c 128,-1,78
 1085 574 1085 574 1076.5 601.5 c 128,-1,79
 1068 629 1068 629 1060 646.5 c 128,-1,80
 1052 664 1052 664 1049 680 c 1,81,82
 1068 673 1068 673 1100.5 668 c 128,-1,83
 1133 663 1133 663 1168.5 660 c 128,-1,84
 1204 657 1204 657 1238 656 c 128,-1,85
 1272 655 1272 655 1295 655 c 0,86,87
 1320 655 1320 655 1348.5 656.5 c 128,-1,88
 1377 658 1377 658 1404 661.5 c 128,-1,89
 1431 665 1431 665 1454 669.5 c 128,-1,90
 1477 674 1477 674 1493 680 c 1,91,92
 1488 665 1488 665 1474 623 c 128,-1,93
 1460 581 1460 581 1446 525 c 128,-1,94
 1432 469 1432 469 1421 405 c 128,-1,95
 1410 341 1410 341 1410 283 c 1,96,97
 1411 244 1411 244 1411.5 203.5 c 128,-1,98
 1412 163 1412 163 1414 125.5 c 128,-1,99
 1416 88 1416 88 1422.5 55.5 c 128,-1,100
 1429 23 1429 23 1442 0 c 1,101,102
 1423 4 1423 4 1377.5 7.5 c 128,-1,103
 1332 11 1332 11 1271.5 13.5 c 128,-1,104
 1211 16 1211 16 1142 18.5 c 128,-1,105
 1073 21 1073 21 1007 22.5 c 128,-1,106
 941 24 941 24 884.5 24.5 c 128,-1,107
 828 25 828 25 792 25 c 256,108,109
 756 25 756 25 696.5 24.5 c 128,-1,110
 637 24 637 24 566.5 22.5 c 128,-1,111
 496 21 496 21 422 18.5 c 128,-1,112
 348 16 348 16 283 13.5 c 128,-1,113
 218 11 218 11 169 7.5 c 128,-1,114
 120 4 120 4 100 0 c 1,0,1
EndSplineSet
EndChar

StartChar: E
Encoding: 69 69 18
Width: 1533
Flags: W
LayerCount: 2
Fore
SplineSet
100 0 m 1,0,1
 106 25 106 25 110.5 60.5 c 128,-1,2
 115 96 115 96 115 134 c 0,3,4
 115 169 115 169 110 202.5 c 128,-1,5
 105 236 105 236 100 260 c 1,6,7
 145 260 145 260 179 267 c 128,-1,8
 213 274 213 274 236 290.5 c 128,-1,9
 259 307 259 307 270.5 335.5 c 128,-1,10
 282 364 282 364 282 407 c 0,11,12
 282 491 282 491 277.5 551 c 128,-1,13
 273 611 273 611 264.5 650 c 128,-1,14
 256 689 256 689 243 709.5 c 128,-1,15
 230 730 230 730 213 735 c 1,16,17
 231 741 231 741 244 754 c 128,-1,18
 257 767 257 767 265.5 798.5 c 128,-1,19
 274 830 274 830 278 885.5 c 128,-1,20
 282 941 282 941 282 1033 c 0,21,22
 282 1076 282 1076 270.5 1104.5 c 128,-1,23
 259 1133 259 1133 236 1149.5 c 128,-1,24
 213 1166 213 1166 179 1173 c 128,-1,25
 145 1180 145 1180 100 1180 c 1,26,27
 105 1204 105 1204 110 1237.5 c 128,-1,28
 115 1271 115 1271 115 1306 c 0,29,30
 115 1344 115 1344 110.5 1379.5 c 128,-1,31
 106 1415 106 1415 100 1440 c 1,32,33
 120 1435 120 1435 169 1430.5 c 128,-1,34
 218 1426 218 1426 283 1422 c 128,-1,35
 348 1418 348 1418 422 1415 c 128,-1,36
 496 1412 496 1412 566.5 1409.5 c 128,-1,37
 637 1407 637 1407 696.5 1406 c 128,-1,38
 756 1405 756 1405 792 1405 c 256,39,40
 828 1405 828 1405 884 1406 c 128,-1,41
 940 1407 940 1407 1004.5 1409.5 c 128,-1,42
 1069 1412 1069 1412 1136.5 1415 c 128,-1,43
 1204 1418 1204 1418 1263.5 1422 c 128,-1,44
 1323 1426 1323 1426 1368.5 1430.5 c 128,-1,45
 1414 1435 1414 1435 1434 1440 c 1,46,47
 1426 1398 1426 1398 1417.5 1333.5 c 128,-1,48
 1409 1269 1409 1269 1409 1197 c 0,49,50
 1409 1155 1409 1155 1412 1114.5 c 128,-1,51
 1415 1074 1415 1074 1418.5 1040.5 c 128,-1,52
 1422 1007 1422 1007 1426.5 982 c 128,-1,53
 1431 957 1431 957 1434 945 c 1,54,55
 1419 951 1419 951 1396.5 955.5 c 128,-1,56
 1374 960 1374 960 1348 963.5 c 128,-1,57
 1322 967 1322 967 1294 968.5 c 128,-1,58
 1266 970 1266 970 1240 970 c 0,59,60
 1194 970 1194 970 1148 964.5 c 128,-1,61
 1102 959 1102 959 1060 945 c 1,62,63
 1067 966 1067 966 1071.5 996 c 128,-1,64
 1076 1026 1076 1026 1076 1057 c 0,65,66
 1076 1108 1076 1108 1058.5 1138.5 c 128,-1,67
 1041 1169 1041 1169 1014 1185 c 128,-1,68
 987 1201 987 1201 955 1205.5 c 128,-1,69
 923 1210 923 1210 894 1210 c 0,70,71
 871 1210 871 1210 845.5 1208.5 c 128,-1,72
 820 1207 820 1207 793.5 1201.5 c 128,-1,73
 767 1196 767 1196 741 1186.5 c 128,-1,74
 715 1177 715 1177 693 1161 c 1,75,76
 689 1138 689 1138 686 1108 c 128,-1,77
 683 1078 683 1078 683 1033 c 0,78,79
 683 966 683 966 685.5 928.5 c 128,-1,80
 688 891 688 891 692 871 c 1,81,82
 719 859 719 859 755 854 c 128,-1,83
 791 849 791 849 829 849 c 0,84,85
 886 849 886 849 937 858 c 128,-1,86
 988 867 988 867 1011 879 c 1,87,88
 1003 857 1003 857 999.5 818 c 128,-1,89
 996 779 996 779 996 736 c 0,90,91
 996 712 996 712 997 688.5 c 128,-1,92
 998 665 998 665 1000.5 645.5 c 128,-1,93
 1003 626 1003 626 1005.5 611.5 c 128,-1,94
 1008 597 1008 597 1011 590 c 1,95,96
 1002 595 1002 595 982 600.5 c 128,-1,97
 962 606 962 606 935.5 611 c 128,-1,98
 909 616 909 616 877.5 619.5 c 128,-1,99
 846 623 846 623 813 623 c 0,100,101
 779 623 779 623 748 619 c 128,-1,102
 717 615 717 615 692 604 c 1,103,104
 690 592 690 592 688.5 576.5 c 128,-1,105
 687 561 687 561 685.5 537.5 c 128,-1,106
 684 514 684 514 683.5 482 c 128,-1,107
 683 450 683 450 683 407 c 0,108,109
 683 353 683 353 687 319.5 c 128,-1,110
 691 286 691 286 696 262 c 1,111,112
 720 249 720 249 747 240.5 c 128,-1,113
 774 232 774 232 801.5 227.5 c 128,-1,114
 829 223 829 223 855 221.5 c 128,-1,115
 881 220 881 220 904 220 c 0,116,117
 933 220 933 220 963.5 227.5 c 128,-1,118
 994 235 994 235 1019 255.5 c 128,-1,119
 1044 276 1044 276 1060 312.5 c 128,-1,120
 1076 349 1076 349 1076 406 c 0,121,122
 1076 442 1076 442 1071.5 477 c 128,-1,123
 1067 512 1067 512 1060 535 c 1,124,125
 1102 521 1102 521 1148 515.5 c 128,-1,126
 1194 510 1194 510 1240 510 c 0,127,128
 1266 510 1266 510 1294 511.5 c 128,-1,129
 1322 513 1322 513 1348 516.5 c 128,-1,130
 1374 520 1374 520 1396.5 524.5 c 128,-1,131
 1419 529 1419 529 1434 535 c 1,132,133
 1431 522 1431 522 1426.5 495 c 128,-1,134
 1422 468 1422 468 1418.5 431.5 c 128,-1,135
 1415 395 1415 395 1412 351.5 c 128,-1,136
 1409 308 1409 308 1409 263 c 0,137,138
 1409 224 1409 224 1411.5 186.5 c 128,-1,139
 1414 149 1414 149 1417.5 115 c 128,-1,140
 1421 81 1421 81 1425.5 51.5 c 128,-1,141
 1430 22 1430 22 1434 0 c 1,142,143
 1414 4 1414 4 1368.5 7.5 c 128,-1,144
 1323 11 1323 11 1263.5 13.5 c 128,-1,145
 1204 16 1204 16 1136.5 18.5 c 128,-1,146
 1069 21 1069 21 1004.5 22.5 c 128,-1,147
 940 24 940 24 884 24.5 c 128,-1,148
 828 25 828 25 792 25 c 256,149,150
 756 25 756 25 696.5 24.5 c 128,-1,151
 637 24 637 24 566.5 22.5 c 128,-1,152
 496 21 496 21 422 18.5 c 128,-1,153
 348 16 348 16 283 13.5 c 128,-1,154
 218 11 218 11 169 7.5 c 128,-1,155
 120 4 120 4 100 0 c 1,0,1
EndSplineSet
EndChar

StartChar: Q
Encoding: 81 81 19
Width: 1707
Flags: W
LayerCount: 2
Fore
SplineSet
108 268 m 1,0,1
 127 294 127 294 143 374.5 c 128,-1,2
 159 455 159 455 159 594 c 0,3,4
 159 657 159 657 142 690.5 c 128,-1,5
 125 724 125 724 93 735 c 1,6,7
 111 740 111 740 124 758 c 128,-1,8
 137 776 137 776 146 802 c 128,-1,9
 155 828 155 828 159 859.5 c 128,-1,10
 163 891 163 891 163 924 c 0,11,12
 163 1010 163 1010 148.5 1076.5 c 128,-1,13
 134 1143 134 1143 108 1172 c 1,14,-1
 116 1172 l 2,15,16
 149 1172 149 1172 190 1187 c 128,-1,17
 231 1202 231 1202 273 1226.5 c 128,-1,18
 315 1251 315 1251 354.5 1281.5 c 128,-1,19
 394 1312 394 1312 425.5 1344 c 128,-1,20
 457 1376 457 1376 477 1406.5 c 128,-1,21
 497 1437 497 1437 499 1460 c 1,22,23
 515 1451 515 1451 548.5 1441.5 c 128,-1,24
 582 1432 582 1432 628.5 1423.5 c 128,-1,25
 675 1415 675 1415 732.5 1410 c 128,-1,26
 790 1405 790 1405 853 1405 c 256,27,28
 916 1405 916 1405 973.5 1410 c 128,-1,29
 1031 1415 1031 1415 1077.5 1423.5 c 128,-1,30
 1124 1432 1124 1432 1157.5 1441.5 c 128,-1,31
 1191 1451 1191 1451 1207 1460 c 1,32,33
 1209 1437 1209 1437 1229 1406.5 c 128,-1,34
 1249 1376 1249 1376 1280 1344 c 128,-1,35
 1311 1312 1311 1312 1351 1281.5 c 128,-1,36
 1391 1251 1391 1251 1433 1226.5 c 128,-1,37
 1475 1202 1475 1202 1515.5 1187 c 128,-1,38
 1556 1172 1556 1172 1590 1172 c 2,39,-1
 1598 1172 l 1,40,41
 1572 1143 1572 1143 1557.5 1076.5 c 128,-1,42
 1543 1010 1543 1010 1543 924 c 0,43,44
 1543 891 1543 891 1547 859.5 c 128,-1,45
 1551 828 1551 828 1560 802 c 128,-1,46
 1569 776 1569 776 1582 758 c 128,-1,47
 1595 740 1595 740 1613 735 c 1,48,49
 1581 724 1581 724 1564 690.5 c 128,-1,50
 1547 657 1547 657 1547 594 c 0,51,52
 1547 455 1547 455 1563 374.5 c 128,-1,53
 1579 294 1579 294 1598 268 c 1,54,55
 1463 244 1463 244 1380.5 193 c 128,-1,56
 1298 142 1298 142 1256 78 c 1,57,58
 1255 69 1255 69 1254.5 61.5 c 128,-1,59
 1254 54 1254 54 1254 49 c 0,60,61
 1254 17 1254 17 1276.5 -6.5 c 128,-1,62
 1299 -30 1299 -30 1334.5 -45 c 128,-1,63
 1370 -60 1370 -60 1412 -67.5 c 128,-1,64
 1454 -75 1454 -75 1493 -75 c 0,65,66
 1533 -75 1533 -75 1580 -65.5 c 128,-1,67
 1627 -56 1627 -56 1678 -40 c 1,68,69
 1675 -59 1675 -59 1671.5 -75 c 128,-1,70
 1668 -91 1668 -91 1665 -111.5 c 128,-1,71
 1662 -132 1662 -132 1660 -160 c 128,-1,72
 1658 -188 1658 -188 1658 -231 c 0,73,74
 1658 -254 1658 -254 1660.5 -280 c 128,-1,75
 1663 -306 1663 -306 1667 -331 c 128,-1,76
 1671 -356 1671 -356 1676.5 -376 c 128,-1,77
 1682 -396 1682 -396 1688 -406 c 1,78,79
 1664 -397 1664 -397 1621.5 -390.5 c 128,-1,80
 1579 -384 1579 -384 1530.5 -379.5 c 128,-1,81
 1482 -375 1482 -375 1435 -373 c 128,-1,82
 1388 -371 1388 -371 1355 -371 c 0,83,84
 1311 -371 1311 -371 1270 -374 c 128,-1,85
 1229 -377 1229 -377 1196 -382 c 128,-1,86
 1163 -387 1163 -387 1140 -393 c 128,-1,87
 1117 -399 1117 -399 1108 -406 c 1,88,89
 1116 -385 1116 -385 1120.5 -368 c 128,-1,90
 1125 -351 1125 -351 1127.5 -334 c 128,-1,91
 1130 -317 1130 -317 1131 -298.5 c 128,-1,92
 1132 -280 1132 -280 1132 -257 c 0,93,94
 1132 -194 1132 -194 1125 -143 c 128,-1,95
 1118 -92 1118 -92 1088.5 -55.5 c 128,-1,96
 1059 -19 1059 -19 1001 2 c 128,-1,97
 943 23 943 23 841 25 c 1,98,99
 780 25 780 25 723.5 21.5 c 128,-1,100
 667 18 667 18 621 11.5 c 128,-1,101
 575 5 575 5 541.5 -3 c 128,-1,102
 508 -11 508 -11 493 -20 c 1,103,104
 481 26 481 26 439.5 75 c 128,-1,105
 398 124 398 124 342.5 165 c 128,-1,106
 287 206 287 206 224.5 234 c 128,-1,107
 162 262 162 262 108 268 c 1,0,1
853 220 m 256,108,109
 909 220 909 220 956 239.5 c 128,-1,110
 1003 259 1003 259 1036.5 312.5 c 128,-1,111
 1070 366 1070 366 1089 459.5 c 128,-1,112
 1108 553 1108 553 1108 702 c 0,113,114
 1108 819 1108 819 1098 902 c 128,-1,115
 1088 985 1088 985 1071 1041.5 c 128,-1,116
 1054 1098 1054 1098 1030 1131.5 c 128,-1,117
 1006 1165 1006 1165 977.5 1182.5 c 128,-1,118
 949 1200 949 1200 917.5 1205 c 128,-1,119
 886 1210 886 1210 853 1210 c 256,120,121
 820 1210 820 1210 788.5 1205 c 128,-1,122
 757 1200 757 1200 728.5 1182.5 c 128,-1,123
 700 1165 700 1165 676 1131.5 c 128,-1,124
 652 1098 652 1098 635 1041.5 c 128,-1,125
 618 985 618 985 608 902 c 128,-1,126
 598 819 598 819 598 702 c 0,127,128
 598 553 598 553 616.5 459.5 c 128,-1,129
 635 366 635 366 669 312.5 c 128,-1,130
 703 259 703 259 750 239.5 c 128,-1,131
 797 220 797 220 853 220 c 256,108,109
EndSplineSet
EndChar

StartChar: U
Encoding: 85 85 20
Width: 1872
Flags: W
LayerCount: 2
Fore
SplineSet
248 268 m 1,0,1
 255 289 255 289 262.5 323.5 c 128,-1,2
 270 358 270 358 276 401.5 c 128,-1,3
 282 445 282 445 285.5 494.5 c 128,-1,4
 289 544 289 544 289 594 c 0,5,6
 289 657 289 657 269 690.5 c 128,-1,7
 249 724 249 724 213 735 c 1,8,9
 243 742 243 742 259.5 759 c 128,-1,10
 276 776 276 776 284 811 c 128,-1,11
 292 846 292 846 293.5 904 c 128,-1,12
 295 962 295 962 295 1051 c 0,13,14
 295 1091 295 1091 283.5 1116 c 128,-1,15
 272 1141 272 1141 251 1155.5 c 128,-1,16
 230 1170 230 1170 200 1175 c 128,-1,17
 170 1180 170 1180 133 1180 c 2,18,-1
 113 1180 l 1,19,20
 118 1204 118 1204 123 1235.5 c 128,-1,21
 128 1267 128 1267 128 1302 c 0,22,23
 128 1339 128 1339 123.5 1377 c 128,-1,24
 119 1415 119 1415 113 1440 c 1,25,26
 132 1433 132 1433 173 1427 c 128,-1,27
 214 1421 214 1421 267 1416 c 128,-1,28
 320 1411 320 1411 379.5 1408 c 128,-1,29
 439 1405 439 1405 496 1405 c 0,30,31
 551 1405 551 1405 612.5 1408 c 128,-1,32
 674 1411 674 1411 729 1416 c 128,-1,33
 784 1421 784 1421 826.5 1427 c 128,-1,34
 869 1433 869 1433 888 1440 c 1,35,36
 881 1415 881 1415 877 1377 c 128,-1,37
 873 1339 873 1339 873 1302 c 0,38,39
 873 1267 873 1267 878 1235.5 c 128,-1,40
 883 1204 883 1204 888 1180 c 1,41,-1
 870 1180 l 2,42,43
 837 1180 837 1180 810.5 1175 c 128,-1,44
 784 1170 784 1170 765.5 1155.5 c 128,-1,45
 747 1141 747 1141 736.5 1116 c 128,-1,46
 726 1091 726 1091 726 1051 c 2,47,-1
 726 597 l 2,48,49
 726 481 726 481 745 408 c 128,-1,50
 764 335 764 335 795.5 293 c 128,-1,51
 827 251 827 251 869 235.5 c 128,-1,52
 911 220 911 220 958 220 c 0,53,54
 1004 220 1004 220 1045.5 235.5 c 128,-1,55
 1087 251 1087 251 1118 293 c 128,-1,56
 1149 335 1149 335 1167 408 c 128,-1,57
 1185 481 1185 481 1185 597 c 2,58,-1
 1185 1051 l 2,59,60
 1185 1091 1185 1091 1173.5 1116 c 128,-1,61
 1162 1141 1162 1141 1142.5 1155.5 c 128,-1,62
 1123 1170 1123 1170 1096.5 1175 c 128,-1,63
 1070 1180 1070 1180 1040 1180 c 2,64,-1
 1023 1180 l 1,65,66
 1028 1204 1028 1204 1033 1235.5 c 128,-1,67
 1038 1267 1038 1267 1038 1302 c 0,68,69
 1038 1339 1038 1339 1034 1377 c 128,-1,70
 1030 1415 1030 1415 1023 1440 c 1,71,72
 1042 1433 1042 1433 1079 1426.5 c 128,-1,73
 1116 1420 1116 1420 1163.5 1415.5 c 128,-1,74
 1211 1411 1211 1411 1266 1408 c 128,-1,75
 1321 1405 1321 1405 1376 1405 c 0,76,77
 1434 1405 1434 1405 1493.5 1408 c 128,-1,78
 1553 1411 1553 1411 1605.5 1416 c 128,-1,79
 1658 1421 1658 1421 1698 1427 c 128,-1,80
 1738 1433 1738 1433 1758 1440 c 1,81,82
 1751 1415 1751 1415 1747 1377 c 128,-1,83
 1743 1339 1743 1339 1743 1302 c 0,84,85
 1743 1267 1743 1267 1748 1235.5 c 128,-1,86
 1753 1204 1753 1204 1758 1180 c 1,87,-1
 1738 1180 l 2,88,89
 1702 1180 1702 1180 1675.5 1175 c 128,-1,90
 1649 1170 1649 1170 1631 1155.5 c 128,-1,91
 1613 1141 1613 1141 1604.5 1116 c 128,-1,92
 1596 1091 1596 1091 1596 1051 c 0,93,94
 1596 962 1596 962 1597.5 904 c 128,-1,95
 1599 846 1599 846 1607 811 c 128,-1,96
 1615 776 1615 776 1631.5 759 c 128,-1,97
 1648 742 1648 742 1678 735 c 1,98,99
 1642 724 1642 724 1622 690.5 c 128,-1,100
 1602 657 1602 657 1602 594 c 0,101,102
 1602 544 1602 544 1605.5 494.5 c 128,-1,103
 1609 445 1609 445 1614.5 401.5 c 128,-1,104
 1620 358 1620 358 1627.5 323.5 c 128,-1,105
 1635 289 1635 289 1643 268 c 1,106,107
 1609 264 1609 264 1569.5 250 c 128,-1,108
 1530 236 1530 236 1489.5 214 c 128,-1,109
 1449 192 1449 192 1410.5 164.5 c 128,-1,110
 1372 137 1372 137 1340.5 106.5 c 128,-1,111
 1309 76 1309 76 1287 43.5 c 128,-1,112
 1265 11 1265 11 1258 -20 c 1,113,114
 1244 -11 1244 -11 1213 -3 c 128,-1,115
 1182 5 1182 5 1139.5 11.5 c 128,-1,116
 1097 18 1097 18 1045 21.5 c 128,-1,117
 993 25 993 25 938 25 c 0,118,119
 882 25 882 25 830.5 21.5 c 128,-1,120
 779 18 779 18 736.5 11.5 c 128,-1,121
 694 5 694 5 663 -3 c 128,-1,122
 632 -11 632 -11 618 -20 c 1,123,124
 607 26 607 26 578 72.5 c 128,-1,125
 549 119 549 119 502 158.5 c 128,-1,126
 455 198 455 198 391.5 227 c 128,-1,127
 328 256 328 256 248 268 c 1,0,1
EndSplineSet
EndChar

StartChar: P
Encoding: 80 80 21
Width: 1533
Flags: W
LayerCount: 2
Fore
SplineSet
100 0 m 1,0,1
 106 25 106 25 110.5 60.5 c 128,-1,2
 115 96 115 96 115 134 c 0,3,4
 115 169 115 169 110 202.5 c 128,-1,5
 105 236 105 236 100 260 c 1,6,7
 145 260 145 260 179 267 c 128,-1,8
 213 274 213 274 236 290.5 c 128,-1,9
 259 307 259 307 270.5 335.5 c 128,-1,10
 282 364 282 364 282 407 c 0,11,12
 282 491 282 491 277.5 551 c 128,-1,13
 273 611 273 611 264.5 650 c 128,-1,14
 256 689 256 689 243 709.5 c 128,-1,15
 230 730 230 730 213 735 c 1,16,17
 231 741 231 741 244 754 c 128,-1,18
 257 767 257 767 265.5 798.5 c 128,-1,19
 274 830 274 830 278 885.5 c 128,-1,20
 282 941 282 941 282 1033 c 0,21,22
 282 1076 282 1076 270.5 1104.5 c 128,-1,23
 259 1133 259 1133 236 1149.5 c 128,-1,24
 213 1166 213 1166 179 1173 c 128,-1,25
 145 1180 145 1180 100 1180 c 1,26,27
 105 1204 105 1204 110 1237.5 c 128,-1,28
 115 1271 115 1271 115 1306 c 0,29,30
 115 1344 115 1344 110.5 1379.5 c 128,-1,31
 106 1415 106 1415 100 1440 c 1,32,33
 113 1435 113 1435 151 1430 c 128,-1,34
 189 1425 189 1425 240.5 1421.5 c 128,-1,35
 292 1418 292 1418 352 1415 c 128,-1,36
 412 1412 412 1412 470 1409.5 c 128,-1,37
 528 1407 528 1407 578.5 1406 c 128,-1,38
 629 1405 629 1405 662 1405 c 0,39,40
 752 1405 752 1405 845 1406.5 c 128,-1,41
 938 1408 938 1408 1018 1412 c 128,-1,42
 1098 1416 1098 1416 1158 1423 c 128,-1,43
 1218 1430 1218 1430 1243 1440 c 1,44,45
 1245 1409 1245 1409 1271 1372 c 128,-1,46
 1297 1335 1297 1335 1333 1302.5 c 128,-1,47
 1369 1270 1369 1270 1408 1247.5 c 128,-1,48
 1447 1225 1447 1225 1475 1224 c 1,49,50
 1468 1210 1468 1210 1462.5 1181 c 128,-1,51
 1457 1152 1457 1152 1453 1115.5 c 128,-1,52
 1449 1079 1449 1079 1447 1039.5 c 128,-1,53
 1445 1000 1445 1000 1445 964 c 0,54,55
 1445 926 1445 926 1446.5 890 c 128,-1,56
 1448 854 1448 854 1451.5 822 c 128,-1,57
 1455 790 1455 790 1460.5 764 c 128,-1,58
 1466 738 1466 738 1475 720 c 1,59,60
 1436 713 1436 713 1396.5 691 c 128,-1,61
 1357 669 1357 669 1322 639.5 c 128,-1,62
 1287 610 1287 610 1259 575.5 c 128,-1,63
 1231 541 1231 541 1215 510 c 1,64,65
 1177 524 1177 524 1107.5 533.5 c 128,-1,66
 1038 543 1038 543 955 543 c 0,67,68
 889 543 889 543 822 534 c 128,-1,69
 755 525 755 525 692 505 c 1,70,71
 683 472 683 472 683 422 c 0,72,73
 683 370 683 370 694 338.5 c 128,-1,74
 705 307 705 307 736 289.5 c 128,-1,75
 767 272 767 272 822 266 c 128,-1,76
 877 260 877 260 965 260 c 1,77,78
 960 236 960 236 955 202.5 c 128,-1,79
 950 169 950 169 950 134 c 0,80,81
 950 96 950 96 954.5 60.5 c 128,-1,82
 959 25 959 25 965 0 c 1,83,84
 936 6 936 6 889 10.5 c 128,-1,85
 842 15 842 15 786.5 18.5 c 128,-1,86
 731 22 731 22 672.5 23.5 c 128,-1,87
 614 25 614 25 563 25 c 0,88,89
 509 25 509 25 441 23.5 c 128,-1,90
 373 22 373 22 307.5 18.5 c 128,-1,91
 242 15 242 15 186 10.5 c 128,-1,92
 130 6 130 6 100 0 c 1,0,1
686 756 m 1,93,94
 721 745 721 745 760.5 740 c 128,-1,95
 800 735 800 735 845 735 c 0,96,97
 895 735 895 735 933.5 753.5 c 128,-1,98
 972 772 972 772 998.5 805 c 128,-1,99
 1025 838 1025 838 1038.5 882.5 c 128,-1,100
 1052 927 1052 927 1052 979 c 0,101,102
 1052 1023 1052 1023 1041.5 1064.5 c 128,-1,103
 1031 1106 1031 1106 1008 1138.5 c 128,-1,104
 985 1171 985 1171 947.5 1190.5 c 128,-1,105
 910 1210 910 1210 855 1210 c 0,106,107
 812 1210 812 1210 767 1203 c 128,-1,108
 722 1196 722 1196 685 1177 c 1,109,110
 680 1143 680 1143 678 1100.5 c 128,-1,111
 676 1058 676 1058 676 1011 c 0,112,113
 676 943 676 943 679 875 c 128,-1,114
 682 807 682 807 686 756 c 1,93,94
EndSplineSet
EndChar

StartChar: V
Encoding: 86 86 22
Width: 1703
Flags: W
LayerCount: 2
Fore
SplineSet
573 0 m 1,0,1
 574 6 574 6 574 10 c 128,-1,2
 574 14 574 14 574 22 c 0,3,4
 574 51 574 51 569 95 c 128,-1,5
 564 139 564 139 553.5 191.5 c 128,-1,6
 543 244 543 244 528 302.5 c 128,-1,7
 513 361 513 361 494 418.5 c 128,-1,8
 475 476 475 476 451 529 c 128,-1,9
 427 582 427 582 399.5 625 c 128,-1,10
 372 668 372 668 340 697 c 128,-1,11
 308 726 308 726 273 735 c 1,12,13
 287 740 287 740 292.5 754.5 c 128,-1,14
 298 769 298 769 298 790 c 0,15,16
 298 829 298 829 291.5 872.5 c 128,-1,17
 285 916 285 916 269 959.5 c 128,-1,18
 253 1003 253 1003 226 1043.5 c 128,-1,19
 199 1084 199 1084 159 1119 c 0,20,21
 147 1129 147 1129 127.5 1140 c 128,-1,22
 108 1151 108 1151 85.5 1160 c 128,-1,23
 63 1169 63 1169 40 1174.5 c 128,-1,24
 17 1180 17 1180 -3 1180 c 1,25,26
 2 1204 2 1204 4.5 1235.5 c 128,-1,27
 7 1267 7 1267 7 1303 c 0,28,29
 7 1342 7 1342 4.5 1378.5 c 128,-1,30
 2 1415 2 1415 -3 1440 c 1,31,32
 34 1434 34 1434 83.5 1428 c 128,-1,33
 133 1422 133 1422 189 1416.5 c 128,-1,34
 245 1411 245 1411 305.5 1408 c 128,-1,35
 366 1405 366 1405 427 1405 c 0,36,37
 490 1405 490 1405 551.5 1407 c 128,-1,38
 613 1409 613 1409 669 1413.5 c 128,-1,39
 725 1418 725 1418 773.5 1424.5 c 128,-1,40
 822 1431 822 1431 860 1440 c 1,41,42
 857 1423 857 1423 854.5 1386.5 c 128,-1,43
 852 1350 852 1350 852 1305 c 0,44,45
 852 1287 852 1287 852.5 1267 c 128,-1,46
 853 1247 853 1247 854 1229.5 c 128,-1,47
 855 1212 855 1212 856.5 1199 c 128,-1,48
 858 1186 858 1186 860 1180 c 1,49,50
 819 1180 819 1180 781.5 1178 c 128,-1,51
 744 1176 744 1176 715 1168 c 128,-1,52
 686 1160 686 1160 668.5 1144.5 c 128,-1,53
 651 1129 651 1129 651 1101 c 0,54,55
 651 1067 651 1067 667 1014.5 c 128,-1,56
 683 962 683 962 707.5 897.5 c 128,-1,57
 732 833 732 833 762.5 760.5 c 128,-1,58
 793 688 793 688 821.5 614 c 128,-1,59
 850 540 850 540 874 468.5 c 128,-1,60
 898 397 898 397 910 335 c 1,61,62
 924 390 924 390 949.5 458.5 c 128,-1,63
 975 527 975 527 1005 600.5 c 128,-1,64
 1035 674 1035 674 1065.5 749 c 128,-1,65
 1096 824 1096 824 1121.5 891 c 128,-1,66
 1147 958 1147 958 1163 1014 c 128,-1,67
 1179 1070 1179 1070 1179 1106 c 0,68,69
 1179 1134 1179 1134 1164 1149 c 128,-1,70
 1149 1164 1149 1164 1125.5 1171 c 128,-1,71
 1102 1178 1102 1178 1072.5 1179 c 128,-1,72
 1043 1180 1043 1180 1014 1180 c 1,73,74
 1015 1186 1015 1186 1016.5 1199.5 c 128,-1,75
 1018 1213 1018 1213 1019 1230 c 128,-1,76
 1020 1247 1020 1247 1021 1266.5 c 128,-1,77
 1022 1286 1022 1286 1022 1305 c 0,78,79
 1022 1350 1022 1350 1019.5 1386.5 c 128,-1,80
 1017 1423 1017 1423 1014 1440 c 1,81,82
 1098 1421 1098 1421 1183.5 1413 c 128,-1,83
 1269 1405 1269 1405 1357 1405 c 0,84,85
 1451 1405 1451 1405 1538.5 1413 c 128,-1,86
 1626 1421 1626 1421 1707 1440 c 1,87,88
 1701 1415 1701 1415 1699 1378.5 c 128,-1,89
 1697 1342 1697 1342 1697 1303 c 0,90,91
 1697 1267 1697 1267 1699.5 1235.5 c 128,-1,92
 1702 1204 1702 1204 1707 1180 c 1,93,94
 1693 1180 1693 1180 1672.5 1176.5 c 128,-1,95
 1652 1173 1652 1173 1630.5 1165.5 c 128,-1,96
 1609 1158 1609 1158 1587.5 1146.5 c 128,-1,97
 1566 1135 1566 1135 1549 1118 c 0,98,99
 1518 1089 1518 1089 1493 1048.5 c 128,-1,100
 1468 1008 1468 1008 1450 963.5 c 128,-1,101
 1432 919 1432 919 1422.5 874 c 128,-1,102
 1413 829 1413 829 1413 790 c 0,103,104
 1413 773 1413 773 1418 756 c 128,-1,105
 1423 739 1423 739 1435 735 c 1,106,107
 1396 725 1396 725 1358.5 682.5 c 128,-1,108
 1321 640 1321 640 1288 578 c 128,-1,109
 1255 516 1255 516 1227.5 440.5 c 128,-1,110
 1200 365 1200 365 1180 290.5 c 128,-1,111
 1160 216 1160 216 1149 148 c 128,-1,112
 1138 80 1138 80 1138 32 c 2,113,-1
 1138 0 l 1,114,115
 1099 13 1099 13 1024 19 c 128,-1,116
 949 25 949 25 859 25 c 0,117,118
 821 25 821 25 780 23.5 c 128,-1,119
 739 22 739 22 700 19 c 128,-1,120
 661 16 661 16 628 11.5 c 128,-1,121
 595 7 595 7 573 0 c 1,0,1
EndSplineSet
EndChar

StartChar: W
Encoding: 87 87 23
Width: 2554
Flags: W
LayerCount: 2
Fore
SplineSet
573 0 m 1,0,1
 574 6 574 6 574 10 c 128,-1,2
 574 14 574 14 574 22 c 0,3,4
 574 51 574 51 568.5 95 c 128,-1,5
 563 139 563 139 552.5 191.5 c 128,-1,6
 542 244 542 244 526.5 302.5 c 128,-1,7
 511 361 511 361 491.5 418.5 c 128,-1,8
 472 476 472 476 448 529 c 128,-1,9
 424 582 424 582 396 625 c 128,-1,10
 368 668 368 668 336 697 c 128,-1,11
 304 726 304 726 269 735 c 1,12,13
 283 740 283 740 288.5 754.5 c 128,-1,14
 294 769 294 769 294 790 c 0,15,16
 294 829 294 829 288 872.5 c 128,-1,17
 282 916 282 916 266.5 959.5 c 128,-1,18
 251 1003 251 1003 225 1043.5 c 128,-1,19
 199 1084 199 1084 159 1119 c 0,20,21
 147 1129 147 1129 127.5 1140 c 128,-1,22
 108 1151 108 1151 85.5 1160 c 128,-1,23
 63 1169 63 1169 40 1174.5 c 128,-1,24
 17 1180 17 1180 -3 1180 c 1,25,26
 2 1204 2 1204 4.5 1235.5 c 128,-1,27
 7 1267 7 1267 7 1303 c 0,28,29
 7 1342 7 1342 4.5 1378.5 c 128,-1,30
 2 1415 2 1415 -3 1440 c 1,31,32
 34 1434 34 1434 83.5 1428 c 128,-1,33
 133 1422 133 1422 189 1416.5 c 128,-1,34
 245 1411 245 1411 305.5 1408 c 128,-1,35
 366 1405 366 1405 427 1405 c 0,36,37
 490 1405 490 1405 551.5 1407 c 128,-1,38
 613 1409 613 1409 669 1413.5 c 128,-1,39
 725 1418 725 1418 773.5 1424.5 c 128,-1,40
 822 1431 822 1431 860 1440 c 1,41,42
 857 1423 857 1423 854.5 1386.5 c 128,-1,43
 852 1350 852 1350 852 1305 c 0,44,45
 852 1287 852 1287 852.5 1267 c 128,-1,46
 853 1247 853 1247 854 1229.5 c 128,-1,47
 855 1212 855 1212 856.5 1199 c 128,-1,48
 858 1186 858 1186 860 1180 c 1,49,50
 819 1180 819 1180 781.5 1178 c 128,-1,51
 744 1176 744 1176 715 1168 c 128,-1,52
 686 1160 686 1160 668.5 1144.5 c 128,-1,53
 651 1129 651 1129 651 1101 c 0,54,55
 651 1067 651 1067 666.5 1014.5 c 128,-1,56
 682 962 682 962 705.5 898 c 128,-1,57
 729 834 729 834 758.5 761.5 c 128,-1,58
 788 689 788 689 815.5 615 c 128,-1,59
 843 541 843 541 866.5 469.5 c 128,-1,60
 890 398 890 398 902 336 c 1,61,62
 916 391 916 391 941 459.5 c 128,-1,63
 966 528 966 528 996 601.5 c 128,-1,64
 1026 675 1026 675 1056.5 749.5 c 128,-1,65
 1087 824 1087 824 1112 891.5 c 128,-1,66
 1137 959 1137 959 1153 1014.5 c 128,-1,67
 1169 1070 1169 1070 1169 1106 c 0,68,69
 1169 1134 1169 1134 1154.5 1149 c 128,-1,70
 1140 1164 1140 1164 1117 1171 c 128,-1,71
 1094 1178 1094 1178 1064.5 1179 c 128,-1,72
 1035 1180 1035 1180 1004 1180 c 1,73,74
 1005 1186 1005 1186 1006.5 1199.5 c 128,-1,75
 1008 1213 1008 1213 1009 1230 c 128,-1,76
 1010 1247 1010 1247 1011 1266.5 c 128,-1,77
 1012 1286 1012 1286 1012 1305 c 0,78,79
 1012 1350 1012 1350 1009.5 1386.5 c 128,-1,80
 1007 1423 1007 1423 1004 1440 c 1,81,82
 1089 1421 1089 1421 1177.5 1413 c 128,-1,83
 1266 1405 1266 1405 1357 1405 c 0,84,85
 1453 1405 1453 1405 1542.5 1413 c 128,-1,86
 1632 1421 1632 1421 1717 1440 c 1,87,88
 1710 1411 1710 1411 1708.5 1368.5 c 128,-1,89
 1707 1326 1707 1326 1707 1281 c 0,90,91
 1707 1252 1707 1252 1708.5 1226 c 128,-1,92
 1710 1200 1710 1200 1717 1180 c 1,93,94
 1674 1180 1674 1180 1635 1178 c 128,-1,95
 1596 1176 1596 1176 1566 1168 c 128,-1,96
 1536 1160 1536 1160 1518.5 1144.5 c 128,-1,97
 1501 1129 1501 1129 1501 1101 c 0,98,99
 1501 1067 1501 1067 1516.5 1014.5 c 128,-1,100
 1532 962 1532 962 1556.5 897.5 c 128,-1,101
 1581 833 1581 833 1610.5 760 c 128,-1,102
 1640 687 1640 687 1668.5 613 c 128,-1,103
 1697 539 1697 539 1720.5 467.5 c 128,-1,104
 1744 396 1744 396 1756 334 c 1,105,106
 1770 389 1770 389 1795.5 458 c 128,-1,107
 1821 527 1821 527 1851.5 600.5 c 128,-1,108
 1882 674 1882 674 1913.5 749 c 128,-1,109
 1945 824 1945 824 1970.5 891 c 128,-1,110
 1996 958 1996 958 2012.5 1014 c 128,-1,111
 2029 1070 2029 1070 2029 1106 c 0,112,113
 2029 1134 2029 1134 2014 1149 c 128,-1,114
 1999 1164 1999 1164 1975.5 1171 c 128,-1,115
 1952 1178 1952 1178 1922.5 1179 c 128,-1,116
 1893 1180 1893 1180 1864 1180 c 1,117,118
 1865 1186 1865 1186 1866.5 1199.5 c 128,-1,119
 1868 1213 1868 1213 1869 1230 c 128,-1,120
 1870 1247 1870 1247 1871 1266.5 c 128,-1,121
 1872 1286 1872 1286 1872 1305 c 0,122,123
 1872 1350 1872 1350 1869.5 1386.5 c 128,-1,124
 1867 1423 1867 1423 1864 1440 c 1,125,126
 1948 1421 1948 1421 2033.5 1413 c 128,-1,127
 2119 1405 2119 1405 2207 1405 c 0,128,129
 2301 1405 2301 1405 2388.5 1413 c 128,-1,130
 2476 1421 2476 1421 2557 1440 c 1,131,132
 2551 1415 2551 1415 2549 1378.5 c 128,-1,133
 2547 1342 2547 1342 2547 1303 c 0,134,135
 2547 1267 2547 1267 2549.5 1235.5 c 128,-1,136
 2552 1204 2552 1204 2557 1180 c 1,137,138
 2543 1180 2543 1180 2522.5 1176.5 c 128,-1,139
 2502 1173 2502 1173 2480.5 1165.5 c 128,-1,140
 2459 1158 2459 1158 2437.5 1146.5 c 128,-1,141
 2416 1135 2416 1135 2399 1118 c 1,142,143
 2367 1089 2367 1089 2341.5 1048.5 c 128,-1,144
 2316 1008 2316 1008 2297.5 963.5 c 128,-1,145
 2279 919 2279 919 2269 874 c 128,-1,146
 2259 829 2259 829 2259 790 c 0,147,148
 2259 773 2259 773 2264 756 c 128,-1,149
 2269 739 2269 739 2281 735 c 1,150,151
 2242 725 2242 725 2204.5 682.5 c 128,-1,152
 2167 640 2167 640 2134 578 c 128,-1,153
 2101 516 2101 516 2073.5 440.5 c 128,-1,154
 2046 365 2046 365 2026 290.5 c 128,-1,155
 2006 216 2006 216 1995 148 c 128,-1,156
 1984 80 1984 80 1984 32 c 2,157,-1
 1984 0 l 1,158,159
 1945 13 1945 13 1870 19 c 128,-1,160
 1795 25 1795 25 1705 25 c 0,161,162
 1667 25 1667 25 1626.5 24 c 128,-1,163
 1586 23 1586 23 1548.5 20 c 128,-1,164
 1511 17 1511 17 1478.5 12 c 128,-1,165
 1446 7 1446 7 1424 0 c 1,166,167
 1425 6 1425 6 1425 10 c 128,-1,168
 1425 14 1425 14 1425 22 c 0,169,170
 1425 59 1425 59 1415.5 122 c 128,-1,171
 1406 185 1406 185 1387.5 258.5 c 128,-1,172
 1369 332 1369 332 1342 408.5 c 128,-1,173
 1315 485 1315 485 1281 549 c 1,174,175
 1248 489 1248 489 1221 418 c 128,-1,176
 1194 347 1194 347 1174.5 276.5 c 128,-1,177
 1155 206 1155 206 1144.5 142 c 128,-1,178
 1134 78 1134 78 1134 32 c 2,179,-1
 1134 0 l 1,180,181
 1095 13 1095 13 1020 19 c 128,-1,182
 945 25 945 25 855 25 c 0,183,184
 817 25 817 25 776.5 23.5 c 128,-1,185
 736 22 736 22 698 19 c 128,-1,186
 660 16 660 16 627.5 11.5 c 128,-1,187
 595 7 595 7 573 0 c 1,0,1
EndSplineSet
EndChar

StartChar: Y
Encoding: 89 89 24
Width: 1707
Flags: W
LayerCount: 2
Fore
SplineSet
479 0 m 1,0,1
 485 25 485 25 489.5 60.5 c 128,-1,2
 494 96 494 96 494 134 c 0,3,4
 494 169 494 169 489 202.5 c 128,-1,5
 484 236 484 236 479 260 c 1,6,7
 524 260 524 260 558 267 c 128,-1,8
 592 274 592 274 615 290.5 c 128,-1,9
 638 307 638 307 649.5 335.5 c 128,-1,10
 661 364 661 364 661 407 c 0,11,12
 661 457 661 457 646 505 c 128,-1,13
 631 553 631 553 598 595.5 c 128,-1,14
 565 638 565 638 512.5 673.5 c 128,-1,15
 460 709 460 709 385 735 c 1,16,17
 399 740 399 740 404.5 754.5 c 128,-1,18
 410 769 410 769 410 790 c 0,19,20
 410 829 410 829 399 868.5 c 128,-1,21
 388 908 388 908 362 948.5 c 128,-1,22
 336 989 336 989 292 1031.5 c 128,-1,23
 248 1074 248 1074 181 1119 c 0,24,25
 168 1128 168 1128 145.5 1138.5 c 128,-1,26
 123 1149 123 1149 97 1158 c 128,-1,27
 71 1167 71 1167 45 1173.5 c 128,-1,28
 19 1180 19 1180 -1 1180 c 1,29,30
 4 1204 4 1204 6.5 1235.5 c 128,-1,31
 9 1267 9 1267 9 1303 c 0,32,33
 9 1342 9 1342 6.5 1378.5 c 128,-1,34
 4 1415 4 1415 -1 1440 c 1,35,36
 36 1434 36 1434 85.5 1428 c 128,-1,37
 135 1422 135 1422 191 1416.5 c 128,-1,38
 247 1411 247 1411 307.5 1408 c 128,-1,39
 368 1405 368 1405 429 1405 c 0,40,41
 491 1405 491 1405 551 1407 c 128,-1,42
 611 1409 611 1409 665.5 1413.5 c 128,-1,43
 720 1418 720 1418 767.5 1424.5 c 128,-1,44
 815 1431 815 1431 852 1440 c 1,45,46
 849 1423 849 1423 846.5 1386.5 c 128,-1,47
 844 1350 844 1350 844 1305 c 0,48,49
 844 1287 844 1287 844.5 1267 c 128,-1,50
 845 1247 845 1247 846 1229.5 c 128,-1,51
 847 1212 847 1212 848.5 1199 c 128,-1,52
 850 1186 850 1186 852 1180 c 1,53,54
 819 1180 819 1180 788 1178 c 128,-1,55
 757 1176 757 1176 734 1168 c 128,-1,56
 711 1160 711 1160 697 1144.5 c 128,-1,57
 683 1129 683 1129 683 1101 c 0,58,59
 683 1072 683 1072 710 1031.5 c 128,-1,60
 737 991 737 991 775 943 c 128,-1,61
 813 895 813 895 855 842.5 c 128,-1,62
 897 790 897 790 927 738 c 1,63,64
 961 786 961 786 1005 838 c 128,-1,65
 1049 890 1049 890 1088 939.5 c 128,-1,66
 1127 989 1127 989 1154 1032 c 128,-1,67
 1181 1075 1181 1075 1181 1106 c 0,68,69
 1181 1134 1181 1134 1165 1149 c 128,-1,70
 1149 1164 1149 1164 1124 1171 c 128,-1,71
 1099 1178 1099 1178 1068 1179 c 128,-1,72
 1037 1180 1037 1180 1006 1180 c 1,73,74
 1007 1186 1007 1186 1008.5 1199.5 c 128,-1,75
 1010 1213 1010 1213 1011 1230 c 128,-1,76
 1012 1247 1012 1247 1013 1266.5 c 128,-1,77
 1014 1286 1014 1286 1014 1305 c 0,78,79
 1014 1350 1014 1350 1011.5 1386.5 c 128,-1,80
 1009 1423 1009 1423 1006 1440 c 1,81,82
 1091 1421 1091 1421 1179.5 1413 c 128,-1,83
 1268 1405 1268 1405 1359 1405 c 0,84,85
 1453 1405 1453 1405 1540.5 1413 c 128,-1,86
 1628 1421 1628 1421 1709 1440 c 1,87,88
 1703 1415 1703 1415 1701 1378.5 c 128,-1,89
 1699 1342 1699 1342 1699 1303 c 0,90,91
 1699 1267 1699 1267 1701.5 1235.5 c 128,-1,92
 1704 1204 1704 1204 1709 1180 c 1,93,94
 1695 1180 1695 1180 1672.5 1174 c 128,-1,95
 1650 1168 1650 1168 1625 1158 c 128,-1,96
 1600 1148 1600 1148 1575 1135 c 128,-1,97
 1550 1122 1550 1122 1531 1108 c 0,98,99
 1480 1071 1480 1071 1438.5 1031.5 c 128,-1,100
 1397 992 1397 992 1367.5 951 c 128,-1,101
 1338 910 1338 910 1321.5 869.5 c 128,-1,102
 1305 829 1305 829 1305 790 c 0,103,104
 1305 773 1305 773 1310 756 c 128,-1,105
 1315 739 1315 739 1327 735 c 1,106,107
 1261 725 1261 725 1211 690.5 c 128,-1,108
 1161 656 1161 656 1128 609 c 128,-1,109
 1095 562 1095 562 1078.5 508.5 c 128,-1,110
 1062 455 1062 455 1062 407 c 0,111,112
 1062 364 1062 364 1071.5 335.5 c 128,-1,113
 1081 307 1081 307 1103 290.5 c 128,-1,114
 1125 274 1125 274 1159.5 267 c 128,-1,115
 1194 260 1194 260 1244 260 c 1,116,117
 1239 236 1239 236 1234 202.5 c 128,-1,118
 1229 169 1229 169 1229 134 c 0,119,120
 1229 96 1229 96 1233.5 60.5 c 128,-1,121
 1238 25 1238 25 1244 0 c 1,122,123
 1215 6 1215 6 1171 10.5 c 128,-1,124
 1127 15 1127 15 1075 18.5 c 128,-1,125
 1023 22 1023 22 968 23.5 c 128,-1,126
 913 25 913 25 862 25 c 256,127,128
 811 25 811 25 755.5 23.5 c 128,-1,129
 700 22 700 22 648 18.5 c 128,-1,130
 596 15 596 15 551.5 10.5 c 128,-1,131
 507 6 507 6 479 0 c 1,0,1
EndSplineSet
EndChar

StartChar: X
Encoding: 88 88 25
Width: 1707
Flags: W
LayerCount: 2
Fore
SplineSet
38 0 m 1,0,1
 44 23 44 23 46 57 c 128,-1,2
 48 91 48 91 48 127 c 0,3,4
 48 166 48 166 45.5 200 c 128,-1,5
 43 234 43 234 38 260 c 1,6,7
 74 260 74 260 118 280 c 128,-1,8
 162 300 162 300 216 322 c 1,9,10
 271 351 271 351 328 397.5 c 128,-1,11
 385 444 385 444 433 494 c 128,-1,12
 481 544 481 544 513.5 591 c 128,-1,13
 546 638 546 638 552 670 c 1,14,15
 552 682 552 682 534 701 c 128,-1,16
 516 720 516 720 474 735 c 1,17,18
 502 747 502 747 517 761.5 c 128,-1,19
 532 776 532 776 539 790 c 1,20,21
 500 829 500 829 468.5 868.5 c 128,-1,22
 437 908 437 908 400.5 948.5 c 128,-1,23
 364 989 364 989 317 1031.5 c 128,-1,24
 270 1074 270 1074 200 1119 c 0,25,26
 185 1128 185 1128 165.5 1138.5 c 128,-1,27
 146 1149 146 1149 124.5 1158 c 128,-1,28
 103 1167 103 1167 80.5 1173.5 c 128,-1,29
 58 1180 58 1180 38 1180 c 1,30,31
 43 1204 43 1204 45.5 1235.5 c 128,-1,32
 48 1267 48 1267 48 1303 c 0,33,34
 48 1342 48 1342 45.5 1378.5 c 128,-1,35
 43 1415 43 1415 38 1440 c 1,36,37
 110 1427 110 1427 210.5 1416 c 128,-1,38
 311 1405 311 1405 428 1405 c 0,39,40
 490 1405 490 1405 550 1407 c 128,-1,41
 610 1409 610 1409 664.5 1413.5 c 128,-1,42
 719 1418 719 1418 766.5 1424.5 c 128,-1,43
 814 1431 814 1431 851 1440 c 1,44,45
 848 1423 848 1423 845.5 1386.5 c 128,-1,46
 843 1350 843 1350 843 1305 c 0,47,48
 843 1287 843 1287 843.5 1267 c 128,-1,49
 844 1247 844 1247 845 1229.5 c 128,-1,50
 846 1212 846 1212 847.5 1199 c 128,-1,51
 849 1186 849 1186 851 1180 c 1,52,53
 828 1180 828 1180 808.5 1178 c 128,-1,54
 789 1176 789 1176 774 1168 c 128,-1,55
 759 1160 759 1160 750.5 1144.5 c 128,-1,56
 742 1129 742 1129 742 1101 c 0,57,58
 742 1081 742 1081 760.5 1055.5 c 128,-1,59
 779 1030 779 1030 807.5 1001 c 128,-1,60
 836 972 836 972 870 939.5 c 128,-1,61
 904 907 904 907 934 874 c 1,62,63
 961 905 961 905 991.5 937 c 128,-1,64
 1022 969 1022 969 1048.5 1000 c 128,-1,65
 1075 1031 1075 1031 1092.5 1058 c 128,-1,66
 1110 1085 1110 1085 1110 1106 c 0,67,68
 1110 1134 1110 1134 1098.5 1149 c 128,-1,69
 1087 1164 1087 1164 1069 1171 c 128,-1,70
 1051 1178 1051 1178 1028.5 1179 c 128,-1,71
 1006 1180 1006 1180 985 1180 c 1,72,73
 986 1186 986 1186 987.5 1199.5 c 128,-1,74
 989 1213 989 1213 990 1230 c 128,-1,75
 991 1247 991 1247 992 1266.5 c 128,-1,76
 993 1286 993 1286 993 1305 c 0,77,78
 993 1350 993 1350 990.5 1386.5 c 128,-1,79
 988 1423 988 1423 985 1440 c 1,80,81
 1066 1421 1066 1421 1148.5 1413 c 128,-1,82
 1231 1405 1231 1405 1318 1405 c 0,83,84
 1410 1405 1410 1405 1488.5 1413 c 128,-1,85
 1567 1421 1567 1421 1648 1440 c 1,86,87
 1643 1415 1643 1415 1640.5 1378.5 c 128,-1,88
 1638 1342 1638 1342 1638 1303 c 0,89,90
 1638 1267 1638 1267 1640.5 1235.5 c 128,-1,91
 1643 1204 1643 1204 1648 1180 c 1,92,93
 1613 1180 1613 1180 1575 1157.5 c 128,-1,94
 1537 1135 1537 1135 1490 1108 c 0,95,96
 1434 1076 1434 1076 1377.5 1033 c 128,-1,97
 1321 990 1321 990 1274 945.5 c 128,-1,98
 1227 901 1227 901 1194 859.5 c 128,-1,99
 1161 818 1161 818 1154 790 c 1,100,101
 1161 773 1161 773 1183.5 756 c 128,-1,102
 1206 739 1206 739 1236 735 c 1,103,104
 1206 719 1206 719 1186.5 701.5 c 128,-1,105
 1167 684 1167 684 1167 670 c 1,106,107
 1206 627 1206 627 1237.5 583 c 128,-1,108
 1269 539 1269 539 1305 494 c 128,-1,109
 1341 449 1341 449 1388.5 403 c 128,-1,110
 1436 357 1436 357 1506 311 c 1,111,112
 1520 304 1520 304 1539.5 295 c 128,-1,113
 1559 286 1559 286 1581 278.5 c 128,-1,114
 1603 271 1603 271 1625.5 265.5 c 128,-1,115
 1648 260 1648 260 1668 260 c 1,116,117
 1660 234 1660 234 1659 200.5 c 128,-1,118
 1658 167 1658 167 1658 127 c 0,119,120
 1658 91 1658 91 1660.5 57 c 128,-1,121
 1663 23 1663 23 1668 0 c 1,122,123
 1596 9 1596 9 1495.5 17 c 128,-1,124
 1395 25 1395 25 1278 25 c 0,125,126
 1153 25 1153 25 1041.5 18.5 c 128,-1,127
 930 12 930 12 855 0 c 1,128,129
 858 15 858 15 860.5 49 c 128,-1,130
 863 83 863 83 863 125 c 0,131,132
 863 145 863 145 862 166 c 128,-1,133
 861 187 861 187 860 206 c 128,-1,134
 859 225 859 225 857.5 239.5 c 128,-1,135
 856 254 856 254 855 260 c 1,136,137
 877 260 877 260 897 261.5 c 128,-1,138
 917 263 917 263 932 270 c 128,-1,139
 947 277 947 277 955.5 291 c 128,-1,140
 964 305 964 305 964 329 c 0,141,142
 964 348 964 348 946 372.5 c 128,-1,143
 928 397 928 397 901 425.5 c 128,-1,144
 874 454 874 454 841.5 485 c 128,-1,145
 809 516 809 516 779 548 c 1,146,147
 750 518 750 518 718 487 c 128,-1,148
 686 456 686 456 659 426 c 128,-1,149
 632 396 632 396 614 369.5 c 128,-1,150
 596 343 596 343 596 324 c 0,151,152
 596 300 596 300 607.5 287 c 128,-1,153
 619 274 619 274 637 268 c 128,-1,154
 655 262 655 262 677.5 261 c 128,-1,155
 700 260 700 260 721 260 c 1,156,157
 719 254 719 254 717.5 239.5 c 128,-1,158
 716 225 716 225 715 206 c 128,-1,159
 714 187 714 187 713.5 165.5 c 128,-1,160
 713 144 713 144 713 125 c 0,161,162
 713 83 713 83 715.5 49 c 128,-1,163
 718 15 718 15 721 0 c 1,164,165
 636 14 636 14 547.5 19.5 c 128,-1,166
 459 25 459 25 368 25 c 0,167,168
 276 25 276 25 197.5 19 c 128,-1,169
 119 13 119 13 38 0 c 1,0,1
EndSplineSet
EndChar

StartChar: Z
Encoding: 90 90 26
Width: 1533
Flags: W
LayerCount: 2
Fore
SplineSet
70 0 m 1,0,1
 84 26 84 26 89.5 69 c 128,-1,2
 95 112 95 112 95 160 c 0,3,4
 95 175 95 175 93 199 c 128,-1,5
 91 223 91 223 87.5 247.5 c 128,-1,6
 84 272 84 272 79.5 292.5 c 128,-1,7
 75 313 75 313 70 320 c 1,8,9
 92 320 92 320 133.5 336.5 c 128,-1,10
 175 353 175 353 226 387.5 c 128,-1,11
 277 422 277 422 333 474.5 c 128,-1,12
 389 527 389 527 440 598 c 0,13,14
 452 614 452 614 464.5 630 c 128,-1,15
 477 646 477 646 487.5 660 c 128,-1,16
 498 674 498 674 504.5 686.5 c 128,-1,17
 511 699 511 699 511 708 c 0,18,19
 511 728 511 728 496 733 c 1,20,21
 532 740 532 740 572.5 762.5 c 128,-1,22
 613 785 613 785 653.5 819 c 128,-1,23
 694 853 694 853 733 895.5 c 128,-1,24
 772 938 772 938 806 985 c 128,-1,25
 840 1032 840 1032 867.5 1081 c 128,-1,26
 895 1130 895 1130 912 1177 c 1,27,28
 878 1184 878 1184 841.5 1190 c 128,-1,29
 805 1196 805 1196 771.5 1200.5 c 128,-1,30
 738 1205 738 1205 709 1207.5 c 128,-1,31
 680 1210 680 1210 661 1210 c 0,32,33
 540 1210 540 1210 475 1162 c 128,-1,34
 410 1114 410 1114 410 1007 c 0,35,36
 410 982 410 982 412 964.5 c 128,-1,37
 414 947 414 947 417 933 c 128,-1,38
 420 919 420 919 424 906 c 128,-1,39
 428 893 428 893 432 876 c 1,40,41
 412 885 412 885 379.5 891 c 128,-1,42
 347 897 347 897 302 897 c 0,43,44
 259 897 259 897 207 892 c 128,-1,45
 155 887 155 887 89 876 c 1,46,47
 98 892 98 892 104.5 919.5 c 128,-1,48
 111 947 111 947 115.5 982.5 c 128,-1,49
 120 1018 120 1018 122 1059.5 c 128,-1,50
 124 1101 124 1101 124 1144 c 256,51,52
 124 1187 124 1187 122 1231 c 128,-1,53
 120 1275 120 1275 115.5 1314.5 c 128,-1,54
 111 1354 111 1354 104.5 1386.5 c 128,-1,55
 98 1419 98 1419 89 1440 c 1,56,57
 176 1428 176 1428 248.5 1420.5 c 128,-1,58
 321 1413 321 1413 383 1409 c 128,-1,59
 445 1405 445 1405 498 1403.5 c 128,-1,60
 551 1402 551 1402 599 1402 c 0,61,62
 643 1402 643 1402 683.5 1402.5 c 128,-1,63
 724 1403 724 1403 765 1403 c 0,64,65
 809 1403 809 1403 871 1404.5 c 128,-1,66
 933 1406 933 1406 1001.5 1408.5 c 128,-1,67
 1070 1411 1070 1411 1139 1414 c 128,-1,68
 1208 1417 1208 1417 1267 1421.5 c 128,-1,69
 1326 1426 1326 1426 1369 1430.5 c 128,-1,70
 1412 1435 1412 1435 1428 1440 c 1,71,72
 1414 1412 1414 1412 1408.5 1366.5 c 128,-1,73
 1403 1321 1403 1321 1403 1270 c 0,74,75
 1403 1246 1403 1246 1405 1220.5 c 128,-1,76
 1407 1195 1407 1195 1410.5 1172 c 128,-1,77
 1414 1149 1414 1149 1418.5 1130 c 128,-1,78
 1423 1111 1423 1111 1428 1100 c 1,79,80
 1416 1097 1416 1097 1390 1082 c 128,-1,81
 1364 1067 1364 1067 1331.5 1042.5 c 128,-1,82
 1299 1018 1299 1018 1264 986 c 128,-1,83
 1229 954 1229 954 1200 918.5 c 128,-1,84
 1171 883 1171 883 1152.5 845.5 c 128,-1,85
 1134 808 1134 808 1134 773 c 0,86,87
 1134 741 1134 741 1151 735 c 1,88,89
 1122 729 1122 729 1086.5 716.5 c 128,-1,90
 1051 704 1051 704 1012.5 681.5 c 128,-1,91
 974 659 974 659 934 624.5 c 128,-1,92
 894 590 894 590 857 540 c 1,93,94
 800 477 800 477 756 406.5 c 128,-1,95
 712 336 712 336 667 252 c 1,96,97
 691 244 691 244 721 238 c 128,-1,98
 751 232 751 232 783.5 228 c 128,-1,99
 816 224 816 224 850.5 222 c 128,-1,100
 885 220 885 220 918 220 c 0,101,102
 952 220 952 220 989.5 232.5 c 128,-1,103
 1027 245 1027 245 1058.5 270.5 c 128,-1,104
 1090 296 1090 296 1110.5 333.5 c 128,-1,105
 1131 371 1131 371 1131 422 c 0,106,107
 1131 460 1131 460 1129 491.5 c 128,-1,108
 1127 523 1127 523 1119 553 c 1,109,110
 1145 544 1145 544 1187 538 c 128,-1,111
 1229 532 1229 532 1289 532 c 0,112,113
 1323 532 1323 532 1365.5 537 c 128,-1,114
 1408 542 1408 542 1462 553 c 1,115,116
 1453 537 1453 537 1446.5 509 c 128,-1,117
 1440 481 1440 481 1435.5 446 c 128,-1,118
 1431 411 1431 411 1429 369.5 c 128,-1,119
 1427 328 1427 328 1427 285 c 256,120,121
 1427 242 1427 242 1429 200 c 128,-1,122
 1431 158 1431 158 1435.5 120.5 c 128,-1,123
 1440 83 1440 83 1446.5 52 c 128,-1,124
 1453 21 1453 21 1462 0 c 1,125,126
 1430 6 1430 6 1378.5 10.5 c 128,-1,127
 1327 15 1327 15 1264 18 c 128,-1,128
 1201 21 1201 21 1130.5 23 c 128,-1,129
 1060 25 1060 25 990.5 26 c 128,-1,130
 921 27 921 27 857 27.5 c 128,-1,131
 793 28 793 28 743 28 c 0,132,133
 648 28 648 28 555.5 27.5 c 128,-1,134
 463 27 463 27 376.5 24 c 128,-1,135
 290 21 290 21 212 15.5 c 128,-1,136
 134 10 134 10 70 0 c 1,0,1
EndSplineSet
EndChar

StartChar: zero
Encoding: 48 48 27
Width: 1698
Flags: W
LayerCount: 2
Fore
SplineSet
144 268 m 1,0,1
 153 289 153 289 162 323.5 c 128,-1,2
 171 358 171 358 178.5 401.5 c 128,-1,3
 186 445 186 445 190.5 494.5 c 128,-1,4
 195 544 195 544 195 594 c 0,5,6
 195 657 195 657 178 690.5 c 128,-1,7
 161 724 161 724 129 735 c 1,8,9
 147 740 147 740 160 758 c 128,-1,10
 173 776 173 776 182 802 c 128,-1,11
 191 828 191 828 195 859.5 c 128,-1,12
 199 891 199 891 199 924 c 0,13,14
 199 1010 199 1010 184.5 1076.5 c 128,-1,15
 170 1143 170 1143 144 1172 c 1,16,-1
 150 1172 l 2,17,18
 178 1172 178 1172 212 1187 c 128,-1,19
 246 1202 246 1202 280 1226.5 c 128,-1,20
 314 1251 314 1251 346.5 1281.5 c 128,-1,21
 379 1312 379 1312 404.5 1344 c 128,-1,22
 430 1376 430 1376 446.5 1406.5 c 128,-1,23
 463 1437 463 1437 465 1460 c 1,24,25
 482 1451 482 1451 518.5 1441.5 c 128,-1,26
 555 1432 555 1432 605.5 1423.5 c 128,-1,27
 656 1415 656 1415 718 1410 c 128,-1,28
 780 1405 780 1405 849 1405 c 256,29,30
 918 1405 918 1405 980 1410 c 128,-1,31
 1042 1415 1042 1415 1092.5 1423.5 c 128,-1,32
 1143 1432 1143 1432 1179.5 1441.5 c 128,-1,33
 1216 1451 1216 1451 1233 1460 c 1,34,35
 1235 1437 1235 1437 1251 1406.5 c 128,-1,36
 1267 1376 1267 1376 1292.5 1344 c 128,-1,37
 1318 1312 1318 1312 1350.5 1281.5 c 128,-1,38
 1383 1251 1383 1251 1417 1226.5 c 128,-1,39
 1451 1202 1451 1202 1485 1187 c 128,-1,40
 1519 1172 1519 1172 1547 1172 c 2,41,-1
 1554 1172 l 1,42,43
 1528 1143 1528 1143 1513.5 1076.5 c 128,-1,44
 1499 1010 1499 1010 1499 924 c 0,45,46
 1499 891 1499 891 1503 859.5 c 128,-1,47
 1507 828 1507 828 1516 802 c 128,-1,48
 1525 776 1525 776 1538 758 c 128,-1,49
 1551 740 1551 740 1569 735 c 1,50,51
 1537 724 1537 724 1520 690.5 c 128,-1,52
 1503 657 1503 657 1503 594 c 0,53,54
 1503 544 1503 544 1507.5 494.5 c 128,-1,55
 1512 445 1512 445 1519.5 401.5 c 128,-1,56
 1527 358 1527 358 1536 323.5 c 128,-1,57
 1545 289 1545 289 1554 268 c 1,58,59
 1510 262 1510 262 1459 234 c 128,-1,60
 1408 206 1408 206 1362 165 c 128,-1,61
 1316 124 1316 124 1282 75.5 c 128,-1,62
 1248 27 1248 27 1239 -20 c 1,63,64
 1222 -11 1222 -11 1184.5 -3 c 128,-1,65
 1147 5 1147 5 1095.5 11.5 c 128,-1,66
 1044 18 1044 18 981 21.5 c 128,-1,67
 918 25 918 25 849 25 c 256,68,69
 780 25 780 25 717 21.5 c 128,-1,70
 654 18 654 18 602 11.5 c 128,-1,71
 550 5 550 5 513 -3 c 128,-1,72
 476 -11 476 -11 459 -20 c 1,73,74
 450 27 450 27 416 75.5 c 128,-1,75
 382 124 382 124 336 165 c 128,-1,76
 290 206 290 206 238.5 234 c 128,-1,77
 187 262 187 262 144 268 c 1,0,1
849 220 m 256,78,79
 903 220 903 220 948 239.5 c 128,-1,80
 993 259 993 259 1025.5 312.5 c 128,-1,81
 1058 366 1058 366 1076 459.5 c 128,-1,82
 1094 553 1094 553 1094 702 c 0,83,84
 1094 819 1094 819 1084.5 902 c 128,-1,85
 1075 985 1075 985 1058.5 1041.5 c 128,-1,86
 1042 1098 1042 1098 1019 1131.5 c 128,-1,87
 996 1165 996 1165 968.5 1182.5 c 128,-1,88
 941 1200 941 1200 910.5 1205 c 128,-1,89
 880 1210 880 1210 849 1210 c 0,90,91
 817 1210 817 1210 787 1205 c 128,-1,92
 757 1200 757 1200 729.5 1182.5 c 128,-1,93
 702 1165 702 1165 679 1131.5 c 128,-1,94
 656 1098 656 1098 639.5 1041.5 c 128,-1,95
 623 985 623 985 613.5 902 c 128,-1,96
 604 819 604 819 604 702 c 0,97,98
 604 553 604 553 622 459.5 c 128,-1,99
 640 366 640 366 672.5 312.5 c 128,-1,100
 705 259 705 259 750 239.5 c 128,-1,101
 795 220 795 220 849 220 c 256,78,79
EndSplineSet
EndChar

StartChar: one
Encoding: 49 49 28
Width: 1021
Flags: W
LayerCount: 2
Fore
SplineSet
80 0 m 1,0,1
 86 25 86 25 91.5 62 c 128,-1,2
 97 99 97 99 97 136 c 0,3,4
 97 171 97 171 93.5 203.5 c 128,-1,5
 90 236 90 236 80 260 c 1,6,7
 122 260 122 260 167 267 c 128,-1,8
 212 274 212 274 249 290.5 c 128,-1,9
 286 307 286 307 309.5 335.5 c 128,-1,10
 333 364 333 364 333 407 c 2,11,-1
 333 501 l 2,12,13
 333 534 333 534 328 569.5 c 128,-1,14
 323 605 323 605 314 634.5 c 128,-1,15
 305 664 305 664 291 683.5 c 128,-1,16
 277 703 277 703 259 705 c 1,17,18
 277 708 277 708 291 725 c 128,-1,19
 305 742 305 742 314 765.5 c 128,-1,20
 323 789 323 789 328 815.5 c 128,-1,21
 333 842 333 842 333 863 c 0,22,23
 333 899 333 899 324 922.5 c 128,-1,24
 315 946 315 946 296 960 c 128,-1,25
 277 974 277 974 246.5 979.5 c 128,-1,26
 216 985 216 985 174 985 c 0,27,28
 163 985 163 985 146 984.5 c 128,-1,29
 129 984 129 984 112 983 c 128,-1,30
 95 982 95 982 80 980.5 c 128,-1,31
 65 979 65 979 59 978 c 1,32,33
 61 990 61 990 63 1008.5 c 128,-1,34
 65 1027 65 1027 66.5 1047 c 128,-1,35
 68 1067 68 1067 69 1087.5 c 128,-1,36
 70 1108 70 1108 70 1124 c 0,37,38
 70 1159 70 1159 66.5 1198 c 128,-1,39
 63 1237 63 1237 57 1262 c 1,40,41
 115 1262 115 1262 170 1268.5 c 128,-1,42
 225 1275 225 1275 272.5 1295 c 128,-1,43
 320 1315 320 1315 357.5 1352 c 128,-1,44
 395 1389 395 1389 419 1450 c 1,45,46
 435 1445 435 1445 456 1442 c 128,-1,47
 477 1439 477 1439 500 1437.5 c 128,-1,48
 523 1436 523 1436 547 1435.5 c 128,-1,49
 571 1435 571 1435 592 1435 c 0,50,51
 614 1435 614 1435 642 1435.5 c 128,-1,52
 670 1436 670 1436 697 1437.5 c 128,-1,53
 724 1439 724 1439 746 1442 c 128,-1,54
 768 1445 768 1445 779 1450 c 1,55,56
 776 1421 776 1421 773 1378 c 128,-1,57
 770 1335 770 1335 767.5 1283 c 128,-1,58
 765 1231 765 1231 763.5 1171.5 c 128,-1,59
 762 1112 762 1112 762 1051 c 2,60,-1
 762 901 l 2,61,62
 762 865 762 865 769 831 c 128,-1,63
 776 797 776 797 788 770 c 128,-1,64
 800 743 800 743 816 725.5 c 128,-1,65
 832 708 832 708 850 705 c 1,66,67
 832 703 832 703 816 683.5 c 128,-1,68
 800 664 800 664 788 634.5 c 128,-1,69
 776 605 776 605 769 569.5 c 128,-1,70
 762 534 762 534 762 501 c 2,71,-1
 762 407 l 2,72,73
 762 364 762 364 779.5 335.5 c 128,-1,74
 797 307 797 307 828.5 290.5 c 128,-1,75
 860 274 860 274 903 267 c 128,-1,76
 946 260 946 260 998 260 c 1,77,78
 994 236 994 236 988.5 203.5 c 128,-1,79
 983 171 983 171 983 136 c 0,80,81
 983 99 983 99 987 62 c 128,-1,82
 991 25 991 25 998 0 c 1,83,84
 960 5 960 5 906.5 9.5 c 128,-1,85
 853 14 853 14 790 17.5 c 128,-1,86
 727 21 727 21 658.5 23 c 128,-1,87
 590 25 590 25 521 25 c 0,88,89
 455 25 455 25 391 23.5 c 128,-1,90
 327 22 327 22 270 18.5 c 128,-1,91
 213 15 213 15 164.5 10.5 c 128,-1,92
 116 6 116 6 80 0 c 1,0,1
EndSplineSet
EndChar

StartChar: six
Encoding: 54 54 29
Width: 1529
Flags: W
LayerCount: 2
Fore
SplineSet
101 208 m 1,0,1
 109 219 109 219 116.5 251 c 128,-1,2
 124 283 124 283 130 328.5 c 128,-1,3
 136 374 136 374 140 429 c 128,-1,4
 144 484 144 484 144 541 c 0,5,6
 144 614 144 614 123.5 657.5 c 128,-1,7
 103 701 103 701 67 707 c 1,8,9
 89 709 89 709 104 729.5 c 128,-1,10
 119 750 119 750 128 781.5 c 128,-1,11
 137 813 137 813 141 852.5 c 128,-1,12
 145 892 145 892 145 931 c 0,13,14
 145 1025 145 1025 130.5 1088 c 128,-1,15
 116 1151 116 1151 104 1171 c 1,16,17
 150 1179 150 1179 203 1201.5 c 128,-1,18
 256 1224 256 1224 305.5 1259.5 c 128,-1,19
 355 1295 355 1295 396.5 1343 c 128,-1,20
 438 1391 438 1391 462 1450 c 1,21,22
 475 1440 475 1440 510 1431.5 c 128,-1,23
 545 1423 545 1423 591.5 1417 c 128,-1,24
 638 1411 638 1411 691.5 1408 c 128,-1,25
 745 1405 745 1405 795 1405 c 0,26,27
 836 1405 836 1405 876 1408 c 128,-1,28
 916 1411 916 1411 951 1417 c 128,-1,29
 986 1423 986 1423 1013.5 1431.5 c 128,-1,30
 1041 1440 1041 1440 1056 1450 c 1,31,32
 1074 1428 1074 1428 1102 1402 c 128,-1,33
 1130 1376 1130 1376 1171.5 1353.5 c 128,-1,34
 1213 1331 1213 1331 1269.5 1316 c 128,-1,35
 1326 1301 1326 1301 1401 1301 c 1,36,37
 1398 1284 1398 1284 1395.5 1258 c 128,-1,38
 1393 1232 1393 1232 1393 1201 c 0,39,40
 1393 1173 1393 1173 1394.5 1142.5 c 128,-1,41
 1396 1112 1396 1112 1398.5 1083.5 c 128,-1,42
 1401 1055 1401 1055 1404 1030 c 128,-1,43
 1407 1005 1407 1005 1410 989 c 1,44,45
 1356 997 1356 997 1295.5 1001 c 128,-1,46
 1235 1005 1235 1005 1178 1005 c 256,47,48
 1121 1005 1121 1005 1069.5 1001 c 128,-1,49
 1018 997 1018 997 978 989 c 1,50,51
 978 1056 978 1056 966.5 1101 c 128,-1,52
 955 1146 955 1146 932.5 1172 c 128,-1,53
 910 1198 910 1198 876.5 1209 c 128,-1,54
 843 1220 843 1220 799 1220 c 0,55,56
 745 1220 745 1220 703 1209 c 128,-1,57
 661 1198 661 1198 631.5 1172 c 128,-1,58
 602 1146 602 1146 587 1102.5 c 128,-1,59
 572 1059 572 1059 572 994 c 2,60,-1
 572 803 l 1,61,62
 605 817 605 817 637 841 c 128,-1,63
 669 865 669 865 682 891 c 1,64,65
 712 877 712 877 774 871.5 c 128,-1,66
 836 866 836 866 921 866 c 0,67,68
 963 866 963 866 1002.5 867.5 c 128,-1,69
 1042 869 1042 869 1074.5 871 c 128,-1,70
 1107 873 1107 873 1130.5 876.5 c 128,-1,71
 1154 880 1154 880 1165 884 c 1,72,73
 1174 842 1174 842 1210 805.5 c 128,-1,74
 1246 769 1246 769 1291.5 742 c 128,-1,75
 1337 715 1337 715 1382.5 699 c 128,-1,76
 1428 683 1428 683 1456 683 c 1,77,78
 1449 671 1449 671 1444 649 c 128,-1,79
 1439 627 1439 627 1436 598 c 128,-1,80
 1433 569 1433 569 1431.5 535.5 c 128,-1,81
 1430 502 1430 502 1430 467 c 0,82,83
 1430 431 1430 431 1431 395.5 c 128,-1,84
 1432 360 1432 360 1435 328.5 c 128,-1,85
 1438 297 1438 297 1443 271.5 c 128,-1,86
 1448 246 1448 246 1456 230 c 1,87,88
 1405 223 1405 223 1346 196 c 128,-1,89
 1287 169 1287 169 1234.5 133.5 c 128,-1,90
 1182 98 1182 98 1142.5 59 c 128,-1,91
 1103 20 1103 20 1090 -10 c 1,92,93
 1077 -5 1077 -5 1049 1 c 128,-1,94
 1021 7 1021 7 983.5 12.5 c 128,-1,95
 946 18 946 18 903 21.5 c 128,-1,96
 860 25 860 25 818 25 c 0,97,98
 773 25 773 25 729 22 c 128,-1,99
 685 19 685 19 647 13.5 c 128,-1,100
 609 8 609 8 580 2 c 128,-1,101
 551 -4 551 -4 536 -10 c 1,102,103
 522 12 522 12 483 46.5 c 128,-1,104
 444 81 444 81 386 115 c 128,-1,105
 328 149 328 149 255 175.5 c 128,-1,106
 182 202 182 202 101 208 c 1,0,1
579 450 m 0,107,108
 579 384 579 384 594.5 339.5 c 128,-1,109
 610 295 610 295 638 268.5 c 128,-1,110
 666 242 666 242 705 231 c 128,-1,111
 744 220 744 220 792 220 c 0,112,113
 837 220 837 220 874 231 c 128,-1,114
 911 242 911 242 937.5 268.5 c 128,-1,115
 964 295 964 295 979 339.5 c 128,-1,116
 994 384 994 384 994 450 c 0,117,118
 994 513 994 513 979 554.5 c 128,-1,119
 964 596 964 596 937.5 620.5 c 128,-1,120
 911 645 911 645 874 655 c 128,-1,121
 837 665 837 665 792 665 c 0,122,123
 744 665 744 665 705 655 c 128,-1,124
 666 645 666 645 638 620.5 c 128,-1,125
 610 596 610 596 594.5 554.5 c 128,-1,126
 579 513 579 513 579 450 c 0,107,108
EndSplineSet
EndChar

StartChar: o
Encoding: 111 111 30
Width: 1535
Flags: W
LayerCount: 2
Fore
SplineSet
114 166 m 1,0,1
 125 182 125 182 135 207 c 128,-1,2
 145 232 145 232 152.5 272.5 c 128,-1,3
 160 313 160 313 164.5 372.5 c 128,-1,4
 169 432 169 432 169 518 c 0,5,6
 169 608 169 608 164.5 664 c 128,-1,7
 160 720 160 720 152.5 755.5 c 128,-1,8
 145 791 145 791 135 813 c 128,-1,9
 125 835 125 835 115 856 c 1,10,11
 155 860 155 860 206 879.5 c 128,-1,12
 257 899 257 899 304.5 929 c 128,-1,13
 352 959 352 959 389 998 c 128,-1,14
 426 1037 426 1037 438 1080 c 1,15,16
 456 1072 456 1072 490 1065.5 c 128,-1,17
 524 1059 524 1059 569 1054.5 c 128,-1,18
 614 1050 614 1050 667 1047.5 c 128,-1,19
 720 1045 720 1045 777 1045 c 0,20,21
 829 1045 829 1045 878 1048.5 c 128,-1,22
 927 1052 927 1052 968 1057 c 128,-1,23
 1009 1062 1009 1062 1039 1068 c 128,-1,24
 1069 1074 1069 1074 1084 1080 c 1,25,26
 1096 1037 1096 1037 1134 998 c 128,-1,27
 1172 959 1172 959 1220.5 929 c 128,-1,28
 1269 899 1269 899 1319.5 879.5 c 128,-1,29
 1370 860 1370 860 1407 856 c 1,30,31
 1397 836 1397 836 1387.5 814.5 c 128,-1,32
 1378 793 1378 793 1370.5 757.5 c 128,-1,33
 1363 722 1363 722 1358.5 666.5 c 128,-1,34
 1354 611 1354 611 1354 523 c 0,35,36
 1354 436 1354 436 1357 375.5 c 128,-1,37
 1360 315 1360 315 1366 274 c 128,-1,38
 1372 233 1372 233 1382.5 208 c 128,-1,39
 1393 183 1393 183 1408 166 c 1,40,41
 1383 166 1383 166 1351 158.5 c 128,-1,42
 1319 151 1319 151 1284.5 138.5 c 128,-1,43
 1250 126 1250 126 1216.5 109 c 128,-1,44
 1183 92 1183 92 1155 72.5 c 128,-1,45
 1127 53 1127 53 1107 32 c 128,-1,46
 1087 11 1087 11 1080 -10 c 1,47,48
 1061 -3 1061 -3 1029 3 c 128,-1,49
 997 9 997 9 955 14 c 128,-1,50
 913 19 913 19 863 22 c 128,-1,51
 813 25 813 25 758 25 c 0,52,53
 704 25 704 25 654.5 22 c 128,-1,54
 605 19 605 19 563.5 14.5 c 128,-1,55
 522 10 522 10 490.5 3.5 c 128,-1,56
 459 -3 459 -3 442 -10 c 1,57,58
 425 27 425 27 385 59 c 128,-1,59
 345 91 345 91 297 115 c 128,-1,60
 249 139 249 139 199.5 152.5 c 128,-1,61
 150 166 150 166 114 166 c 1,0,1
569 522 m 256,62,63
 569 437 569 437 579.5 376 c 128,-1,64
 590 315 590 315 614 276 c 128,-1,65
 638 237 638 237 676 218.5 c 128,-1,66
 714 200 714 200 769 200 c 0,67,68
 827 200 827 200 864 224.5 c 128,-1,69
 901 249 901 249 922 292 c 128,-1,70
 943 335 943 335 951 394 c 128,-1,71
 959 453 959 453 959 522 c 256,72,73
 959 591 959 591 951 649.5 c 128,-1,74
 943 708 943 708 922 750.5 c 128,-1,75
 901 793 901 793 864 816.5 c 128,-1,76
 827 840 827 840 769 840 c 0,77,78
 714 840 714 840 676 822 c 128,-1,79
 638 804 638 804 614 765.5 c 128,-1,80
 590 727 590 727 579.5 667 c 128,-1,81
 569 607 569 607 569 522 c 256,62,63
EndSplineSet
EndChar

StartChar: i
Encoding: 105 105 31
Width: 851
Flags: W
LayerCount: 2
Fore
SplineSet
127 1185 m 1,0,1
 133 1196 133 1196 138.5 1218 c 128,-1,2
 144 1240 144 1240 147.5 1269 c 128,-1,3
 151 1298 151 1298 153.5 1331.5 c 128,-1,4
 156 1365 156 1365 156 1400 c 0,5,6
 156 1432 156 1432 153.5 1462.5 c 128,-1,7
 151 1493 151 1493 147 1519.5 c 128,-1,8
 143 1546 143 1546 137.5 1567 c 128,-1,9
 132 1588 132 1588 126 1600 c 1,10,11
 144 1594 144 1594 173.5 1588.5 c 128,-1,12
 203 1583 203 1583 239.5 1579 c 128,-1,13
 276 1575 276 1575 316.5 1572.5 c 128,-1,14
 357 1570 357 1570 396 1570 c 0,15,16
 432 1570 432 1570 474.5 1571.5 c 128,-1,17
 517 1573 517 1573 556.5 1577 c 128,-1,18
 596 1581 596 1581 628 1586.5 c 128,-1,19
 660 1592 660 1592 676 1600 c 1,20,21
 670 1587 670 1587 665.5 1566 c 128,-1,22
 661 1545 661 1545 657.5 1518.5 c 128,-1,23
 654 1492 654 1492 652.5 1461.5 c 128,-1,24
 651 1431 651 1431 651 1400 c 0,25,26
 651 1368 651 1368 652.5 1337 c 128,-1,27
 654 1306 654 1306 657.5 1277.5 c 128,-1,28
 661 1249 661 1249 665.5 1225 c 128,-1,29
 670 1201 670 1201 676 1185 c 1,30,31
 660 1190 660 1190 629.5 1193.5 c 128,-1,32
 599 1197 599 1197 560.5 1199.5 c 128,-1,33
 522 1202 522 1202 480 1203.5 c 128,-1,34
 438 1205 438 1205 399 1205 c 256,35,36
 360 1205 360 1205 319 1203.5 c 128,-1,37
 278 1202 278 1202 240.5 1199.5 c 128,-1,38
 203 1197 203 1197 173 1193.5 c 128,-1,39
 143 1190 143 1190 127 1185 c 1,0,1
47 0 m 1,40,41
 55 26 55 26 58 62 c 128,-1,42
 61 98 61 98 61 133 c 0,43,44
 61 165 61 165 57 197 c 128,-1,45
 53 229 53 229 47 260 c 1,46,47
 103 260 103 260 145.5 265 c 128,-1,48
 188 270 188 270 216.5 282.5 c 128,-1,49
 245 295 245 295 259.5 318 c 128,-1,50
 274 341 274 341 274 377 c 2,51,-1
 274 655 l 1,52,53
 273 698 273 698 258.5 723.5 c 128,-1,54
 244 749 244 749 220 762.5 c 128,-1,55
 196 776 196 776 164.5 780.5 c 128,-1,56
 133 785 133 785 98 785 c 2,57,-1
 66 785 l 1,58,59
 74 805 74 805 80 840.5 c 128,-1,60
 86 876 86 876 86 915 c 0,61,62
 86 953 86 953 80.5 988.5 c 128,-1,63
 75 1024 75 1024 66 1045 c 1,64,65
 151 1041 151 1041 224.5 1039 c 128,-1,66
 298 1037 298 1037 363 1037 c 0,67,68
 484 1037 484 1037 572 1046.5 c 128,-1,69
 660 1056 660 1056 723 1080 c 1,70,71
 703 1041 703 1041 688 1005.5 c 128,-1,72
 673 970 673 970 662.5 930.5 c 128,-1,73
 652 891 652 891 646.5 844 c 128,-1,74
 641 797 641 797 641 736 c 2,75,-1
 640 377 l 2,76,77
 640 341 640 341 655.5 318 c 128,-1,78
 671 295 671 295 698 282.5 c 128,-1,79
 725 270 725 270 762 265 c 128,-1,80
 799 260 799 260 842 260 c 1,81,82
 836 239 836 239 832.5 208 c 128,-1,83
 829 177 829 177 829 142 c 0,84,85
 829 104 829 104 831.5 65.5 c 128,-1,86
 834 27 834 27 842 0 c 1,87,88
 815 5 815 5 768 9.5 c 128,-1,89
 721 14 721 14 665.5 17.5 c 128,-1,90
 610 21 610 21 549.5 23 c 128,-1,91
 489 25 489 25 435 25 c 0,92,93
 387 25 387 25 330.5 23.5 c 128,-1,94
 274 22 274 22 219.5 18.5 c 128,-1,95
 165 15 165 15 119 10.5 c 128,-1,96
 73 6 73 6 47 0 c 1,40,41
EndSplineSet
EndChar

StartChar: s
Encoding: 115 115 32
Width: 1195
Flags: W
LayerCount: 2
Fore
SplineSet
115 22 m 1,0,1
 123 43 123 43 127.5 85.5 c 128,-1,2
 132 128 132 128 132 180 c 0,3,4
 132 222 132 222 127 265 c 128,-1,5
 122 308 122 308 115 335 c 1,6,7
 127 329 127 329 149.5 324.5 c 128,-1,8
 172 320 172 320 199.5 316.5 c 128,-1,9
 227 313 227 313 257.5 311.5 c 128,-1,10
 288 310 288 310 316 310 c 0,11,12
 370 310 370 310 416.5 316.5 c 128,-1,13
 463 323 463 323 491 335 c 1,14,15
 491 306 491 306 499.5 280.5 c 128,-1,16
 508 255 508 255 526.5 235.5 c 128,-1,17
 545 216 545 216 574.5 204.5 c 128,-1,18
 604 193 604 193 645 193 c 0,19,20
 699 193 699 193 731.5 214 c 128,-1,21
 764 235 764 235 764 283 c 0,22,23
 764 321 764 321 738.5 349 c 128,-1,24
 713 377 713 377 667.5 395.5 c 128,-1,25
 622 414 622 414 559 423 c 128,-1,26
 496 432 496 432 422 432 c 0,27,28
 399 432 399 432 371.5 431.5 c 128,-1,29
 344 431 344 431 318 429 c 128,-1,30
 292 427 292 427 270.5 423.5 c 128,-1,31
 249 420 249 420 239 415 c 1,32,33
 239 441 239 441 220.5 470 c 128,-1,34
 202 499 202 499 176 524 c 128,-1,35
 150 549 150 549 121.5 567 c 128,-1,36
 93 585 93 585 73 589 c 1,37,38
 81 598 81 598 87 614 c 128,-1,39
 93 630 93 630 97 650.5 c 128,-1,40
 101 671 101 671 103 693.5 c 128,-1,41
 105 716 105 716 105 737 c 0,42,43
 105 782 105 782 97.5 825.5 c 128,-1,44
 90 869 90 869 73 895 c 1,45,46
 109 902 109 902 145 919.5 c 128,-1,47
 181 937 181 937 212.5 961.5 c 128,-1,48
 244 986 244 986 268.5 1016.5 c 128,-1,49
 293 1047 293 1047 305 1080 c 1,50,51
 315 1074 315 1074 345 1068 c 128,-1,52
 375 1062 375 1062 416 1057 c 128,-1,53
 457 1052 457 1052 504 1049 c 128,-1,54
 551 1046 551 1046 595 1046 c 0,55,56
 676 1046 676 1046 724 1060 c 128,-1,57
 772 1074 772 1074 785 1100 c 1,58,59
 799 1081 799 1081 827.5 1066.5 c 128,-1,60
 856 1052 856 1052 890.5 1042.5 c 128,-1,61
 925 1033 925 1033 962 1028.5 c 128,-1,62
 999 1024 999 1024 1032 1024 c 0,63,64
 1052 1024 1052 1024 1068.5 1026 c 128,-1,65
 1085 1028 1085 1028 1098 1031 c 1,66,67
 1095 1010 1095 1010 1092.5 992.5 c 128,-1,68
 1090 975 1090 975 1088.5 958.5 c 128,-1,69
 1087 942 1087 942 1086 925 c 128,-1,70
 1085 908 1085 908 1085 888 c 0,71,72
 1085 850 1085 850 1087.5 813 c 128,-1,73
 1090 776 1090 776 1098 747 c 1,74,75
 1081 758 1081 758 1040.5 762.5 c 128,-1,76
 1000 767 1000 767 949 767 c 0,77,78
 921 767 921 767 891.5 765.5 c 128,-1,79
 862 764 862 764 836.5 761.5 c 128,-1,80
 811 759 811 759 791.5 755.5 c 128,-1,81
 772 752 772 752 764 747 c 1,82,83
 764 813 764 813 718 850.5 c 128,-1,84
 672 888 672 888 596 888 c 0,85,86
 533 888 533 888 507.5 865.5 c 128,-1,87
 482 843 482 843 482 809 c 0,88,89
 482 776 482 776 515.5 746 c 128,-1,90
 549 716 549 716 604 693.5 c 128,-1,91
 659 671 659 671 728 658 c 128,-1,92
 797 645 797 645 869 645 c 0,93,94
 887 645 887 645 905.5 646 c 128,-1,95
 924 647 924 647 941 649 c 128,-1,96
 958 651 958 651 972.5 654.5 c 128,-1,97
 987 658 987 658 996 663 c 1,98,99
 999 633 999 633 1018.5 604 c 128,-1,100
 1038 575 1038 575 1064.5 550 c 128,-1,101
 1091 525 1091 525 1118.5 506.5 c 128,-1,102
 1146 488 1146 488 1166 480 c 1,103,104
 1153 460 1153 460 1145.5 419.5 c 128,-1,105
 1138 379 1138 379 1138 333 c 0,106,107
 1138 291 1138 291 1144 252.5 c 128,-1,108
 1150 214 1150 214 1166 192 c 1,109,110
 1130 182 1130 182 1095.5 165 c 128,-1,111
 1061 148 1061 148 1031 125 c 128,-1,112
 1001 102 1001 102 976.5 73.5 c 128,-1,113
 952 45 952 45 937 12 c 1,114,115
 897 26 897 26 825 36 c 128,-1,116
 753 46 753 46 659 46 c 0,117,118
 617 46 617 46 587 43 c 128,-1,119
 557 40 557 40 536 34.5 c 128,-1,120
 515 29 515 29 501 21 c 128,-1,121
 487 13 487 13 478 2 c 1,122,123
 463 11 463 11 440.5 17.5 c 128,-1,124
 418 24 418 24 390.5 28 c 128,-1,125
 363 32 363 32 333.5 34 c 128,-1,126
 304 36 304 36 276 36 c 0,127,128
 225 36 225 36 183 34 c 128,-1,129
 141 32 141 32 115 22 c 1,0,1
EndSplineSet
EndChar

StartChar: n
Encoding: 110 110 33
Width: 1704
Flags: W
LayerCount: 2
Fore
SplineSet
139 0 m 1,0,1
 147 26 147 26 150 62 c 128,-1,2
 153 98 153 98 153 133 c 0,3,4
 153 165 153 165 149 197 c 128,-1,5
 145 229 145 229 139 260 c 1,6,7
 195 260 195 260 231.5 265 c 128,-1,8
 268 270 268 270 290 282.5 c 128,-1,9
 312 295 312 295 320.5 318 c 128,-1,10
 329 341 329 341 329 377 c 2,11,-1
 329 655 l 1,12,13
 328 698 328 698 318 723.5 c 128,-1,14
 308 749 308 749 290.5 762.5 c 128,-1,15
 273 776 273 776 247.5 780.5 c 128,-1,16
 222 785 222 785 190 785 c 2,17,-1
 159 785 l 1,18,19
 167 805 167 805 173 840.5 c 128,-1,20
 179 876 179 876 179 915 c 0,21,22
 179 953 179 953 173.5 987.5 c 128,-1,23
 168 1022 168 1022 159 1043 c 1,24,25
 196 1038 196 1038 250 1035 c 128,-1,26
 304 1032 304 1032 364 1032 c 0,27,28
 408 1032 408 1032 452.5 1034 c 128,-1,29
 497 1036 497 1036 539 1040.5 c 128,-1,30
 581 1045 581 1045 618 1052 c 128,-1,31
 655 1059 655 1059 684 1070 c 1,32,33
 677 1050 677 1050 674.5 1029.5 c 128,-1,34
 672 1009 672 1009 672 988 c 0,35,36
 672 959 672 959 676 931 c 128,-1,37
 680 903 680 903 685 876 c 1,38,39
 729 890 729 890 757.5 915.5 c 128,-1,40
 786 941 786 941 803.5 970 c 128,-1,41
 821 999 821 999 830.5 1028.5 c 128,-1,42
 840 1058 840 1058 846 1080 c 1,43,44
 859 1072 859 1072 885.5 1065.5 c 128,-1,45
 912 1059 912 1059 946.5 1054.5 c 128,-1,46
 981 1050 981 1050 1020 1047.5 c 128,-1,47
 1059 1045 1059 1045 1096 1045 c 0,48,49
 1129 1045 1129 1045 1163 1047 c 128,-1,50
 1197 1049 1197 1049 1227 1053.5 c 128,-1,51
 1257 1058 1257 1058 1281 1064.5 c 128,-1,52
 1305 1071 1305 1071 1317 1080 c 1,53,54
 1349 995 1349 995 1397.5 936 c 128,-1,55
 1446 877 1446 877 1527 853 c 1,56,57
 1511 833 1511 833 1499 810 c 128,-1,58
 1487 787 1487 787 1478.5 757.5 c 128,-1,59
 1470 728 1470 728 1466 690 c 128,-1,60
 1462 652 1462 652 1462 602 c 2,61,-1
 1462 377 l 2,62,63
 1462 341 1462 341 1472.5 318 c 128,-1,64
 1483 295 1483 295 1504.5 282.5 c 128,-1,65
 1526 270 1526 270 1560.5 265 c 128,-1,66
 1595 260 1595 260 1643 260 c 1,67,68
 1640 248 1640 248 1637 235 c 128,-1,69
 1634 222 1634 222 1632 205.5 c 128,-1,70
 1630 189 1630 189 1628.5 167.5 c 128,-1,71
 1627 146 1627 146 1627 117 c 256,72,73
 1627 88 1627 88 1630.5 54 c 128,-1,74
 1634 20 1634 20 1643 0 c 1,75,76
 1612 5 1612 5 1569.5 9.5 c 128,-1,77
 1527 14 1527 14 1478.5 17.5 c 128,-1,78
 1430 21 1430 21 1377.5 23 c 128,-1,79
 1325 25 1325 25 1274 25 c 0,80,81
 1233 25 1233 25 1189.5 23.5 c 128,-1,82
 1146 22 1146 22 1105 18.5 c 128,-1,83
 1064 15 1064 15 1028.5 10.5 c 128,-1,84
 993 6 993 6 969 0 c 1,85,86
 972 12 972 12 974.5 28 c 128,-1,87
 977 44 977 44 978.5 63 c 128,-1,88
 980 82 980 82 981 102 c 128,-1,89
 982 122 982 122 982 140 c 0,90,91
 982 150 982 150 981 167 c 128,-1,92
 980 184 980 184 978.5 201.5 c 128,-1,93
 977 219 977 219 974.5 235 c 128,-1,94
 972 251 972 251 969 260 c 1,95,96
 1003 260 1003 260 1025.5 263.5 c 128,-1,97
 1048 267 1048 267 1062 279 c 128,-1,98
 1076 291 1076 291 1082 314.5 c 128,-1,99
 1088 338 1088 338 1088 377 c 2,100,-1
 1088 585 l 2,101,102
 1088 624 1088 624 1080 659 c 128,-1,103
 1072 694 1072 694 1055.5 720.5 c 128,-1,104
 1039 747 1039 747 1013 762.5 c 128,-1,105
 987 778 987 778 950 778 c 0,106,107
 925 778 925 778 883.5 769.5 c 128,-1,108
 842 761 842 761 801.5 740.5 c 128,-1,109
 761 720 761 720 731.5 685.5 c 128,-1,110
 702 651 702 651 702 600 c 1,111,-1
 701 600 l 1,112,-1
 702 377 l 2,113,114
 702 312 702 312 742 286 c 128,-1,115
 782 260 782 260 854 260 c 1,116,117
 848 239 848 239 844.5 208 c 128,-1,118
 841 177 841 177 841 142 c 0,119,120
 841 104 841 104 844 65.5 c 128,-1,121
 847 27 847 27 854 0 c 1,122,123
 790 10 790 10 702 17.5 c 128,-1,124
 614 25 614 25 487 25 c 0,125,126
 439 25 439 25 388.5 23.5 c 128,-1,127
 338 22 338 22 291.5 18.5 c 128,-1,128
 245 15 245 15 205 10.5 c 128,-1,129
 165 6 165 6 139 0 c 1,0,1
EndSplineSet
EndChar

StartChar: d
Encoding: 100 100 34
Width: 1535
Flags: W
LayerCount: 2
Fore
SplineSet
114 215 m 1,0,1
 126 241 126 241 141.5 321 c 128,-1,2
 157 401 157 401 157 543 c 0,3,4
 157 684 157 684 141.5 764 c 128,-1,5
 126 844 126 844 114 870 c 1,6,7
 169 874 169 874 223 894 c 128,-1,8
 277 914 277 914 323.5 943.5 c 128,-1,9
 370 973 370 973 405 1008.5 c 128,-1,10
 440 1044 440 1044 457 1080 c 1,11,12
 479 1063 479 1063 528 1054 c 128,-1,13
 577 1045 577 1045 634 1045 c 0,14,15
 667 1045 667 1045 699 1048 c 128,-1,16
 731 1051 731 1051 758 1056 c 128,-1,17
 785 1061 785 1061 806 1067 c 128,-1,18
 827 1073 827 1073 838 1080 c 1,19,20
 860 1035 860 1035 894.5 1002.5 c 128,-1,21
 929 970 929 970 977 952 c 1,22,-1
 977 1210 l 1,23,24
 976 1253 976 1253 960 1278.5 c 128,-1,25
 944 1304 944 1304 918.5 1317.5 c 128,-1,26
 893 1331 893 1331 860 1335.5 c 128,-1,27
 827 1340 827 1340 792 1340 c 2,28,-1
 760 1340 l 1,29,30
 768 1360 768 1360 774 1395.5 c 128,-1,31
 780 1431 780 1431 780 1470 c 0,32,33
 780 1508 780 1508 774.5 1543.5 c 128,-1,34
 769 1579 769 1579 760 1600 c 1,35,36
 779 1597 779 1597 807.5 1595 c 128,-1,37
 836 1593 836 1593 871 1591.5 c 128,-1,38
 906 1590 906 1590 946.5 1589 c 128,-1,39
 987 1588 987 1588 1029 1588 c 0,40,41
 1086 1588 1086 1588 1144 1590 c 128,-1,42
 1202 1592 1202 1592 1254.5 1596 c 128,-1,43
 1307 1600 1307 1600 1350.5 1607 c 128,-1,44
 1394 1614 1394 1614 1422 1625 c 1,45,46
 1401 1586 1401 1586 1387 1538 c 128,-1,47
 1373 1490 1373 1490 1364.5 1436 c 128,-1,48
 1356 1382 1356 1382 1352 1323 c 128,-1,49
 1348 1264 1348 1264 1348 1203 c 2,50,-1
 1348 1003 l 2,51,52
 1348 941 1348 941 1351 893.5 c 128,-1,53
 1354 846 1354 846 1362 813 c 128,-1,54
 1370 780 1370 780 1384 760 c 128,-1,55
 1398 740 1398 740 1420 733 c 1,56,-1
 1419 733 l 1,57,58
 1401 728 1401 728 1387 709 c 128,-1,59
 1373 690 1373 690 1364 663 c 128,-1,60
 1355 636 1355 636 1350.5 602.5 c 128,-1,61
 1346 569 1346 569 1346 535 c 2,62,-1
 1346 413 l 2,63,64
 1346 331 1346 331 1380 295.5 c 128,-1,65
 1414 260 1414 260 1470 260 c 1,66,67
 1465 238 1465 238 1462.5 204 c 128,-1,68
 1460 170 1460 170 1460 133 c 256,69,70
 1460 96 1460 96 1462 58.5 c 128,-1,71
 1464 21 1464 21 1470 0 c 1,72,73
 1456 5 1456 5 1433 9.5 c 128,-1,74
 1410 14 1410 14 1383.5 17.5 c 128,-1,75
 1357 21 1357 21 1329.5 23 c 128,-1,76
 1302 25 1302 25 1278 25 c 0,77,78
 1221 25 1221 25 1178.5 17 c 128,-1,79
 1136 9 1136 9 1104 0 c 1,80,81
 1101 40 1101 40 1079.5 84 c 128,-1,82
 1058 128 1058 128 1025 163 c 1,83,84
 1001 147 1001 147 979.5 125 c 128,-1,85
 958 103 958 103 941.5 79.5 c 128,-1,86
 925 56 925 56 913.5 32.5 c 128,-1,87
 902 9 902 9 898 -10 c 1,88,89
 868 4 868 4 809.5 14.5 c 128,-1,90
 751 25 751 25 676 25 c 0,91,92
 603 25 603 25 544 14.5 c 128,-1,93
 485 4 485 4 457 -10 c 1,94,95
 440 25 440 25 405 63 c 128,-1,96
 370 101 370 101 324 133.5 c 128,-1,97
 278 166 278 166 223.5 188.5 c 128,-1,98
 169 211 169 211 114 215 c 1,0,1
573 542 m 256,99,100
 573 465 573 465 583.5 410 c 128,-1,101
 594 355 594 355 618 319.5 c 128,-1,102
 642 284 642 284 680 267 c 128,-1,103
 718 250 718 250 773 250 c 0,104,105
 831 250 831 250 868 272 c 128,-1,106
 905 294 905 294 926 333 c 128,-1,107
 947 372 947 372 955 425.5 c 128,-1,108
 963 479 963 479 963 542 c 256,109,110
 963 605 963 605 955 657.5 c 128,-1,111
 947 710 947 710 926 748.5 c 128,-1,112
 905 787 905 787 868 808.5 c 128,-1,113
 831 830 831 830 773 830 c 0,114,115
 718 830 718 830 680 814 c 128,-1,116
 642 798 642 798 618 763 c 128,-1,117
 594 728 594 728 583.5 673.5 c 128,-1,118
 573 619 573 619 573 542 c 256,99,100
EndSplineSet
EndChar

StartChar: h
Encoding: 104 104 35
Width: 1706
Flags: W
LayerCount: 2
Fore
SplineSet
126 0 m 1,0,1
 134 26 134 26 137 62 c 128,-1,2
 140 98 140 98 140 133 c 0,3,4
 140 165 140 165 136 197 c 128,-1,5
 132 229 132 229 126 260 c 1,6,7
 182 260 182 260 218.5 265 c 128,-1,8
 255 270 255 270 277 282.5 c 128,-1,9
 299 295 299 295 307.5 318 c 128,-1,10
 316 341 316 341 316 377 c 2,11,-1
 316 545 l 2,12,13
 316 577 316 577 311.5 609 c 128,-1,14
 307 641 307 641 298.5 667.5 c 128,-1,15
 290 694 290 694 277 712 c 128,-1,16
 264 730 264 730 247 735 c 1,17,18
 283 747 283 747 299.5 789.5 c 128,-1,19
 316 832 316 832 316 913 c 2,20,-1
 316 1210 l 1,21,22
 315 1253 315 1253 305 1278.5 c 128,-1,23
 295 1304 295 1304 277.5 1317.5 c 128,-1,24
 260 1331 260 1331 234.5 1335.5 c 128,-1,25
 209 1340 209 1340 177 1340 c 2,26,-1
 146 1340 l 1,27,28
 154 1360 154 1360 160 1395.5 c 128,-1,29
 166 1431 166 1431 166 1470 c 0,30,31
 166 1508 166 1508 160.5 1543.5 c 128,-1,32
 155 1579 155 1579 146 1600 c 1,33,34
 165 1597 165 1597 192 1595 c 128,-1,35
 219 1593 219 1593 251 1591.5 c 128,-1,36
 283 1590 283 1590 319 1589 c 128,-1,37
 355 1588 355 1588 393 1588 c 0,38,39
 444 1588 444 1588 496 1590 c 128,-1,40
 548 1592 548 1592 595.5 1596 c 128,-1,41
 643 1600 643 1600 683.5 1607 c 128,-1,42
 724 1614 724 1614 751 1625 c 1,43,44
 731 1586 731 1586 718.5 1538 c 128,-1,45
 706 1490 706 1490 699 1436 c 128,-1,46
 692 1382 692 1382 690 1323 c 128,-1,47
 688 1264 688 1264 688 1203 c 2,48,-1
 688 882 l 1,49,50
 727 898 727 898 752.5 923 c 128,-1,51
 778 948 778 948 794.5 976 c 128,-1,52
 811 1004 811 1004 819.5 1031.5 c 128,-1,53
 828 1059 828 1059 833 1080 c 1,54,55
 846 1072 846 1072 872.5 1065.5 c 128,-1,56
 899 1059 899 1059 933.5 1054.5 c 128,-1,57
 968 1050 968 1050 1007 1047.5 c 128,-1,58
 1046 1045 1046 1045 1083 1045 c 0,59,60
 1116 1045 1116 1045 1150 1047 c 128,-1,61
 1184 1049 1184 1049 1214 1053.5 c 128,-1,62
 1244 1058 1244 1058 1268 1064.5 c 128,-1,63
 1292 1071 1292 1071 1304 1080 c 1,64,65
 1336 995 1336 995 1384.5 936 c 128,-1,66
 1433 877 1433 877 1514 853 c 1,67,68
 1498 833 1498 833 1486 810 c 128,-1,69
 1474 787 1474 787 1465.5 757.5 c 128,-1,70
 1457 728 1457 728 1453 690 c 128,-1,71
 1449 652 1449 652 1449 602 c 2,72,-1
 1449 377 l 2,73,74
 1449 341 1449 341 1457.5 318 c 128,-1,75
 1466 295 1466 295 1486.5 282.5 c 128,-1,76
 1507 270 1507 270 1539.5 265 c 128,-1,77
 1572 260 1572 260 1620 260 c 1,78,79
 1617 248 1617 248 1614 235 c 128,-1,80
 1611 222 1611 222 1609 205.5 c 128,-1,81
 1607 189 1607 189 1605.5 167.5 c 128,-1,82
 1604 146 1604 146 1604 117 c 256,83,84
 1604 88 1604 88 1607.5 54 c 128,-1,85
 1611 20 1611 20 1620 0 c 1,86,87
 1589 5 1589 5 1548 9.5 c 128,-1,88
 1507 14 1507 14 1460.5 17.5 c 128,-1,89
 1414 21 1414 21 1363 23 c 128,-1,90
 1312 25 1312 25 1261 25 c 0,91,92
 1220 25 1220 25 1176.5 23.5 c 128,-1,93
 1133 22 1133 22 1092 18.5 c 128,-1,94
 1051 15 1051 15 1015.5 10.5 c 128,-1,95
 980 6 980 6 956 0 c 1,96,97
 959 12 959 12 961.5 28 c 128,-1,98
 964 44 964 44 965.5 63 c 128,-1,99
 967 82 967 82 968 102 c 128,-1,100
 969 122 969 122 969 140 c 0,101,102
 969 150 969 150 968 167 c 128,-1,103
 967 184 967 184 965.5 201.5 c 128,-1,104
 964 219 964 219 961.5 235 c 128,-1,105
 959 251 959 251 956 260 c 1,106,107
 990 260 990 260 1012.5 263.5 c 128,-1,108
 1035 267 1035 267 1049 279 c 128,-1,109
 1063 291 1063 291 1069 314.5 c 128,-1,110
 1075 338 1075 338 1075 377 c 2,111,-1
 1075 585 l 2,112,113
 1075 624 1075 624 1067 659 c 128,-1,114
 1059 694 1059 694 1042.5 720.5 c 128,-1,115
 1026 747 1026 747 1000 762.5 c 128,-1,116
 974 778 974 778 937 778 c 0,117,118
 912 778 912 778 870.5 769.5 c 128,-1,119
 829 761 829 761 788.5 740.5 c 128,-1,120
 748 720 748 720 718.5 685.5 c 128,-1,121
 689 651 689 651 689 600 c 2,122,-1
 689 377 l 2,123,124
 689 312 689 312 729 286 c 128,-1,125
 769 260 769 260 841 260 c 1,126,127
 835 239 835 239 831.5 208 c 128,-1,128
 828 177 828 177 828 142 c 0,129,130
 828 104 828 104 831 65.5 c 128,-1,131
 834 27 834 27 841 0 c 1,132,133
 777 10 777 10 689 17.5 c 128,-1,134
 601 25 601 25 474 25 c 0,135,136
 426 25 426 25 375.5 23.5 c 128,-1,137
 325 22 325 22 278.5 18.5 c 128,-1,138
 232 15 232 15 192 10.5 c 128,-1,139
 152 6 152 6 126 0 c 1,0,1
EndSplineSet
EndChar

StartChar: a
Encoding: 97 97 36
Width: 1368
Flags: W
LayerCount: 2
Fore
SplineSet
76 147 m 1,0,1
 89 170 89 170 95 200 c 128,-1,2
 101 230 101 230 101 261 c 0,3,4
 101 293 101 293 94 325 c 128,-1,5
 87 357 87 357 76 377 c 1,6,7
 103 386 103 386 124.5 406 c 128,-1,8
 146 426 146 426 161.5 451 c 128,-1,9
 177 476 177 476 187 502 c 128,-1,10
 197 528 197 528 200 550 c 1,11,12
 205 548 205 548 211 548 c 128,-1,13
 217 548 217 548 224 548 c 0,14,15
 298 548 298 548 403 562 c 128,-1,16
 508 576 508 576 630 599 c 0,17,18
 687 610 687 610 724 626 c 128,-1,19
 761 642 761 642 783 662.5 c 128,-1,20
 805 683 805 683 813.5 707 c 128,-1,21
 822 731 822 731 822 758 c 0,22,23
 822 807 822 807 797.5 833.5 c 128,-1,24
 773 860 773 860 713 860 c 0,25,26
 634 860 634 860 596.5 820.5 c 128,-1,27
 559 781 559 781 559 691 c 1,28,29
 526 699 526 699 479 702.5 c 128,-1,30
 432 706 432 706 375 706 c 0,31,32
 346 706 346 706 316.5 705 c 128,-1,33
 287 704 287 704 259 702.5 c 128,-1,34
 231 701 231 701 207 698 c 128,-1,35
 183 695 183 695 166 691 c 1,36,37
 172 722 172 722 176.5 761 c 128,-1,38
 181 800 181 800 181 852 c 0,39,40
 181 869 181 869 180.5 883.5 c 128,-1,41
 180 898 180 898 178.5 912 c 128,-1,42
 177 926 177 926 174 941.5 c 128,-1,43
 171 957 171 957 166 976 c 1,44,45
 208 976 208 976 258 984.5 c 128,-1,46
 308 993 308 993 355.5 1007 c 128,-1,47
 403 1021 403 1021 442 1040 c 128,-1,48
 481 1059 481 1059 502 1080 c 1,49,50
 520 1071 520 1071 537 1064.5 c 128,-1,51
 554 1058 554 1058 576 1053.5 c 128,-1,52
 598 1049 598 1049 627 1047 c 128,-1,53
 656 1045 656 1045 697 1045 c 0,54,55
 791 1045 791 1045 857.5 1054.5 c 128,-1,56
 924 1064 924 1064 953 1080 c 1,57,58
 969 1050 969 1050 999 1023 c 128,-1,59
 1029 996 1029 996 1064.5 976.5 c 128,-1,60
 1100 957 1100 957 1136.5 945.5 c 128,-1,61
 1173 934 1173 934 1203 934 c 2,62,-1
 1212 934 l 1,63,64
 1203 912 1203 912 1197 873 c 128,-1,65
 1191 834 1191 834 1187 785.5 c 128,-1,66
 1183 737 1183 737 1181 683 c 128,-1,67
 1179 629 1179 629 1177.5 576.5 c 128,-1,68
 1176 524 1176 524 1176 478 c 128,-1,69
 1176 432 1176 432 1176 400 c 0,70,71
 1176 359 1176 359 1183 333.5 c 128,-1,72
 1190 308 1190 308 1210.5 294 c 128,-1,73
 1231 280 1231 280 1268.5 275 c 128,-1,74
 1306 270 1306 270 1366 270 c 1,75,76
 1362 258 1362 258 1358.5 240.5 c 128,-1,77
 1355 223 1355 223 1352 203 c 128,-1,78
 1349 183 1349 183 1347.5 163 c 128,-1,79
 1346 143 1346 143 1346 126 c 0,80,81
 1346 48 1346 48 1366 0 c 1,82,83
 1342 11 1342 11 1288 18 c 128,-1,84
 1234 25 1234 25 1170 25 c 0,85,86
 1098 25 1098 25 1042.5 18 c 128,-1,87
 987 11 987 11 955 0 c 1,88,89
 947 55 947 55 924.5 88 c 128,-1,90
 902 121 902 121 879 140 c 1,91,92
 844 129 844 129 815 110.5 c 128,-1,93
 786 92 786 92 763.5 70.5 c 128,-1,94
 741 49 741 49 727 27.5 c 128,-1,95
 713 6 713 6 709 -10 c 1,96,97
 686 -4 686 -4 667.5 2 c 128,-1,98
 649 8 649 8 630 13.5 c 128,-1,99
 611 19 611 19 589 22 c 128,-1,100
 567 25 567 25 537 25 c 0,101,102
 506 25 506 25 471.5 22 c 128,-1,103
 437 19 437 19 403 13.5 c 128,-1,104
 369 8 369 8 339.5 2 c 128,-1,105
 310 -4 310 -4 289 -10 c 1,106,107
 272 18 272 18 247 45.5 c 128,-1,108
 222 73 222 73 193.5 95.5 c 128,-1,109
 165 118 165 118 134.5 132 c 128,-1,110
 104 146 104 146 76 147 c 1,0,1
506 333 m 0,111,112
 506 309 506 309 516 290.5 c 128,-1,113
 526 272 526 272 541.5 259.5 c 128,-1,114
 557 247 557 247 576 240.5 c 128,-1,115
 595 234 595 234 613 234 c 0,116,117
 646 234 646 234 680.5 247 c 128,-1,118
 715 260 715 260 744 288.5 c 128,-1,119
 773 317 773 317 793 363 c 128,-1,120
 813 409 813 409 817 475 c 1,121,122
 731 473 731 473 671.5 463.5 c 128,-1,123
 612 454 612 454 575 436.5 c 128,-1,124
 538 419 538 419 522 393 c 128,-1,125
 506 367 506 367 506 333 c 0,111,112
EndSplineSet
EndChar

StartChar: e
Encoding: 101 101 37
Width: 1366
Flags: W
LayerCount: 2
Fore
SplineSet
109 166 m 1,0,1
 129 190 129 190 140 233 c 128,-1,2
 151 276 151 276 156.5 326.5 c 128,-1,3
 162 377 162 377 163.5 428 c 128,-1,4
 165 479 165 479 165 518 c 0,5,6
 165 559 165 559 162 611 c 128,-1,7
 159 663 159 663 152.5 712.5 c 128,-1,8
 146 762 146 762 135.5 802 c 128,-1,9
 125 842 125 842 110 860 c 1,10,11
 154 860 154 860 207 882.5 c 128,-1,12
 260 905 260 905 307.5 938.5 c 128,-1,13
 355 972 355 972 390 1010 c 128,-1,14
 425 1048 425 1048 434 1080 c 1,15,16
 489 1061 489 1061 564 1053 c 128,-1,17
 639 1045 639 1045 750 1045 c 0,18,19
 828 1045 828 1045 879 1054 c 128,-1,20
 930 1063 930 1063 962 1080 c 1,21,22
 979 1045 979 1045 1018.5 1017 c 128,-1,23
 1058 989 1058 989 1104.5 969 c 128,-1,24
 1151 949 1151 949 1197.5 937.5 c 128,-1,25
 1244 926 1244 926 1274 925 c 1,26,27
 1266 908 1266 908 1259.5 888 c 128,-1,28
 1253 868 1253 868 1248.5 841 c 128,-1,29
 1244 814 1244 814 1241.5 777.5 c 128,-1,30
 1239 741 1239 741 1239 692 c 0,31,32
 1239 658 1239 658 1240.5 626 c 128,-1,33
 1242 594 1242 594 1245 567 c 128,-1,34
 1248 540 1248 540 1251.5 519.5 c 128,-1,35
 1255 499 1255 499 1259 489 c 1,36,37
 1234 491 1234 491 1192 492.5 c 128,-1,38
 1150 494 1150 494 1100 495.5 c 128,-1,39
 1050 497 1050 497 995.5 497.5 c 128,-1,40
 941 498 941 498 892 498 c 0,41,42
 834 498 834 498 776.5 497.5 c 128,-1,43
 719 497 719 497 658 497 c 0,44,45
 607 497 607 497 577 488 c 128,-1,46
 547 479 547 479 531.5 463.5 c 128,-1,47
 516 448 516 448 511.5 426 c 128,-1,48
 507 404 507 404 507 378 c 0,49,50
 507 339 507 339 526 307 c 128,-1,51
 545 275 545 275 578 252.5 c 128,-1,52
 611 230 611 230 656 217.5 c 128,-1,53
 701 205 701 205 752 205 c 0,54,55
 794 205 794 205 819 217.5 c 128,-1,56
 844 230 844 230 857.5 251 c 128,-1,57
 871 272 871 272 875 300 c 128,-1,58
 879 328 879 328 879 360 c 1,59,60
 891 356 891 356 915 353 c 128,-1,61
 939 350 939 350 967 348.5 c 128,-1,62
 995 347 995 347 1023.5 346 c 128,-1,63
 1052 345 1052 345 1073 345 c 256,64,65
 1094 345 1094 345 1121 346 c 128,-1,66
 1148 347 1148 347 1174.5 348.5 c 128,-1,67
 1201 350 1201 350 1224 353 c 128,-1,68
 1247 356 1247 356 1261 360 c 1,69,70
 1259 349 1259 349 1256.5 330.5 c 128,-1,71
 1254 312 1254 312 1252.5 291 c 128,-1,72
 1251 270 1251 270 1250 249 c 128,-1,73
 1249 228 1249 228 1249 214 c 0,74,75
 1249 165 1249 165 1252.5 135.5 c 128,-1,76
 1256 106 1256 106 1264 83 c 1,77,-1
 1246 83 l 2,78,79
 1205 83 1205 83 1162 75.5 c 128,-1,80
 1119 68 1119 68 1079 55.5 c 128,-1,81
 1039 43 1039 43 1004 26 c 128,-1,82
 969 9 969 9 944 -10 c 1,83,84
 930 -1 930 -1 905.5 5.5 c 128,-1,85
 881 12 881 12 851.5 16.5 c 128,-1,86
 822 21 822 21 789.5 23 c 128,-1,87
 757 25 757 25 727 25 c 0,88,89
 691 25 691 25 652 22 c 128,-1,90
 613 19 613 19 577.5 13.5 c 128,-1,91
 542 8 542 8 513 2 c 128,-1,92
 484 -4 484 -4 468 -10 c 1,93,94
 459 16 459 16 421.5 47 c 128,-1,95
 384 78 384 78 334 104.5 c 128,-1,96
 284 131 284 131 228 149 c 128,-1,97
 172 167 172 167 126 167 c 0,98,99
 121 167 121 167 117 166.5 c 128,-1,100
 113 166 113 166 109 166 c 1,0,1
774 678 m 2,101,102
 814 678 814 678 837.5 681 c 128,-1,103
 861 684 861 684 873.5 693 c 128,-1,104
 886 702 886 702 889.5 717.5 c 128,-1,105
 893 733 893 733 893 759 c 0,106,107
 893 807 893 807 852 837 c 128,-1,108
 811 867 811 867 724 867 c 0,109,110
 670 867 670 867 631 858 c 128,-1,111
 592 849 592 849 565.5 827 c 128,-1,112
 539 805 539 805 525 769 c 128,-1,113
 511 733 511 733 508 678 c 1,114,-1
 774 678 l 2,101,102
EndSplineSet
EndChar

StartChar: m
Encoding: 109 109 38
Width: 2389
Flags: W
LayerCount: 2
Fore
SplineSet
127 0 m 1,0,1
 135 26 135 26 138 62 c 128,-1,2
 141 98 141 98 141 133 c 0,3,4
 141 165 141 165 137 197 c 128,-1,5
 133 229 133 229 127 260 c 1,6,7
 183 260 183 260 219.5 265 c 128,-1,8
 256 270 256 270 278 282.5 c 128,-1,9
 300 295 300 295 308.5 318 c 128,-1,10
 317 341 317 341 317 377 c 2,11,-1
 317 655 l 1,12,13
 316 698 316 698 306 723.5 c 128,-1,14
 296 749 296 749 278.5 762.5 c 128,-1,15
 261 776 261 776 235.5 780.5 c 128,-1,16
 210 785 210 785 178 785 c 2,17,-1
 147 785 l 1,18,19
 155 805 155 805 161 840.5 c 128,-1,20
 167 876 167 876 167 915 c 0,21,22
 167 953 167 953 161.5 987.5 c 128,-1,23
 156 1022 156 1022 147 1043 c 1,24,25
 184 1038 184 1038 238 1035 c 128,-1,26
 292 1032 292 1032 352 1032 c 0,27,28
 396 1032 396 1032 440.5 1034 c 128,-1,29
 485 1036 485 1036 527 1040.5 c 128,-1,30
 569 1045 569 1045 606 1052 c 128,-1,31
 643 1059 643 1059 672 1070 c 1,32,33
 665 1050 665 1050 662.5 1029.5 c 128,-1,34
 660 1009 660 1009 660 988 c 0,35,36
 660 960 660 960 663.5 932.5 c 128,-1,37
 667 905 667 905 672 879 c 1,38,39
 713 894 713 894 739.5 919.5 c 128,-1,40
 766 945 766 945 783 973.5 c 128,-1,41
 800 1002 800 1002 809 1030.5 c 128,-1,42
 818 1059 818 1059 824 1080 c 1,43,44
 837 1072 837 1072 863.5 1065.5 c 128,-1,45
 890 1059 890 1059 924.5 1054.5 c 128,-1,46
 959 1050 959 1050 998 1047.5 c 128,-1,47
 1037 1045 1037 1045 1074 1045 c 0,48,49
 1107 1045 1107 1045 1141 1047 c 128,-1,50
 1175 1049 1175 1049 1205 1053.5 c 128,-1,51
 1235 1058 1235 1058 1259 1064.5 c 128,-1,52
 1283 1071 1283 1071 1295 1080 c 1,53,54
 1319 1014 1319 1014 1352 965 c 128,-1,55
 1385 916 1385 916 1434 884 c 1,56,57
 1471 900 1471 900 1495.5 925 c 128,-1,58
 1520 950 1520 950 1536 977.5 c 128,-1,59
 1552 1005 1552 1005 1560.5 1032 c 128,-1,60
 1569 1059 1569 1059 1574 1080 c 1,61,62
 1587 1072 1587 1072 1613.5 1065.5 c 128,-1,63
 1640 1059 1640 1059 1674.5 1054.5 c 128,-1,64
 1709 1050 1709 1050 1748 1047.5 c 128,-1,65
 1787 1045 1787 1045 1824 1045 c 0,66,67
 1857 1045 1857 1045 1891 1047 c 128,-1,68
 1925 1049 1925 1049 1955 1053.5 c 128,-1,69
 1985 1058 1985 1058 2009 1064.5 c 128,-1,70
 2033 1071 2033 1071 2045 1080 c 1,71,72
 2077 995 2077 995 2125.5 936 c 128,-1,73
 2174 877 2174 877 2255 853 c 1,74,75
 2239 833 2239 833 2227 810 c 128,-1,76
 2215 787 2215 787 2206.5 757.5 c 128,-1,77
 2198 728 2198 728 2194 690 c 128,-1,78
 2190 652 2190 652 2190 602 c 2,79,-1
 2190 377 l 2,80,81
 2190 341 2190 341 2198.5 318 c 128,-1,82
 2207 295 2207 295 2227.5 282.5 c 128,-1,83
 2248 270 2248 270 2280.5 265 c 128,-1,84
 2313 260 2313 260 2361 260 c 1,85,86
 2358 248 2358 248 2355 235 c 128,-1,87
 2352 222 2352 222 2350 205.5 c 128,-1,88
 2348 189 2348 189 2346.5 167.5 c 128,-1,89
 2345 146 2345 146 2345 117 c 256,90,91
 2345 88 2345 88 2348.5 54 c 128,-1,92
 2352 20 2352 20 2361 0 c 1,93,94
 2330 5 2330 5 2289 9.5 c 128,-1,95
 2248 14 2248 14 2201.5 17.5 c 128,-1,96
 2155 21 2155 21 2104 23 c 128,-1,97
 2053 25 2053 25 2002 25 c 0,98,99
 1961 25 1961 25 1917.5 23.5 c 128,-1,100
 1874 22 1874 22 1833 18.5 c 128,-1,101
 1792 15 1792 15 1756.5 10.5 c 128,-1,102
 1721 6 1721 6 1697 0 c 1,103,104
 1700 12 1700 12 1702.5 28 c 128,-1,105
 1705 44 1705 44 1706.5 63 c 128,-1,106
 1708 82 1708 82 1709 102 c 128,-1,107
 1710 122 1710 122 1710 140 c 0,108,109
 1710 150 1710 150 1709 167 c 128,-1,110
 1708 184 1708 184 1706.5 201.5 c 128,-1,111
 1705 219 1705 219 1702.5 235 c 128,-1,112
 1700 251 1700 251 1697 260 c 1,113,114
 1731 260 1731 260 1753.5 263.5 c 128,-1,115
 1776 267 1776 267 1790 279 c 128,-1,116
 1804 291 1804 291 1810 314.5 c 128,-1,117
 1816 338 1816 338 1816 377 c 2,118,-1
 1816 585 l 2,119,120
 1816 624 1816 624 1808 659 c 128,-1,121
 1800 694 1800 694 1783.5 720.5 c 128,-1,122
 1767 747 1767 747 1741 762.5 c 128,-1,123
 1715 778 1715 778 1678 778 c 0,124,125
 1657 778 1657 778 1623 772 c 128,-1,126
 1589 766 1589 766 1553.5 751.5 c 128,-1,127
 1518 737 1518 737 1487 713.5 c 128,-1,128
 1456 690 1456 690 1441 655 c 1,129,130
 1440 642 1440 642 1440 629 c 128,-1,131
 1440 616 1440 616 1440 602 c 2,132,-1
 1440 377 l 2,133,134
 1440 341 1440 341 1448.5 318 c 128,-1,135
 1457 295 1457 295 1477.5 282.5 c 128,-1,136
 1498 270 1498 270 1530.5 265 c 128,-1,137
 1563 260 1563 260 1611 260 c 1,138,139
 1608 248 1608 248 1605 235 c 128,-1,140
 1602 222 1602 222 1600 205.5 c 128,-1,141
 1598 189 1598 189 1596.5 167.5 c 128,-1,142
 1595 146 1595 146 1595 117 c 256,143,144
 1595 88 1595 88 1598.5 54 c 128,-1,145
 1602 20 1602 20 1611 0 c 1,146,147
 1580 5 1580 5 1539 9.5 c 128,-1,148
 1498 14 1498 14 1451.5 17.5 c 128,-1,149
 1405 21 1405 21 1354 23 c 128,-1,150
 1303 25 1303 25 1252 25 c 0,151,152
 1211 25 1211 25 1167.5 23.5 c 128,-1,153
 1124 22 1124 22 1083 18.5 c 128,-1,154
 1042 15 1042 15 1006.5 10.5 c 128,-1,155
 971 6 971 6 947 0 c 1,156,157
 950 12 950 12 952.5 28 c 128,-1,158
 955 44 955 44 956.5 63 c 128,-1,159
 958 82 958 82 959 102 c 128,-1,160
 960 122 960 122 960 140 c 0,161,162
 960 150 960 150 959 167 c 128,-1,163
 958 184 958 184 956.5 201.5 c 128,-1,164
 955 219 955 219 952.5 235 c 128,-1,165
 950 251 950 251 947 260 c 1,166,167
 981 260 981 260 1003.5 263.5 c 128,-1,168
 1026 267 1026 267 1040 279 c 128,-1,169
 1054 291 1054 291 1060 314.5 c 128,-1,170
 1066 338 1066 338 1066 377 c 2,171,-1
 1066 585 l 2,172,173
 1066 624 1066 624 1058 659 c 128,-1,174
 1050 694 1050 694 1033.5 720.5 c 128,-1,175
 1017 747 1017 747 991 762.5 c 128,-1,176
 965 778 965 778 928 778 c 0,177,178
 907 778 907 778 872 771.5 c 128,-1,179
 837 765 837 765 801 750 c 128,-1,180
 765 735 765 735 734 710.5 c 128,-1,181
 703 686 703 686 689 650 c 1,182,-1
 690 377 l 2,183,184
 690 312 690 312 730 286 c 128,-1,185
 770 260 770 260 842 260 c 1,186,187
 836 239 836 239 832.5 208 c 128,-1,188
 829 177 829 177 829 142 c 0,189,190
 829 104 829 104 832 65.5 c 128,-1,191
 835 27 835 27 842 0 c 1,192,193
 778 10 778 10 690 17.5 c 128,-1,194
 602 25 602 25 475 25 c 0,195,196
 427 25 427 25 376.5 23.5 c 128,-1,197
 326 22 326 22 279.5 18.5 c 128,-1,198
 233 15 233 15 193 10.5 c 128,-1,199
 153 6 153 6 127 0 c 1,0,1
EndSplineSet
EndChar

StartChar: l
Encoding: 108 108 39
Width: 859
Flags: W
LayerCount: 2
Fore
SplineSet
90 0 m 1,0,1
 98 26 98 26 101 62 c 128,-1,2
 104 98 104 98 104 133 c 0,3,4
 104 165 104 165 100 197 c 128,-1,5
 96 229 96 229 90 260 c 1,6,7
 146 260 146 260 182.5 265 c 128,-1,8
 219 270 219 270 240 282.5 c 128,-1,9
 261 295 261 295 269 318 c 128,-1,10
 277 341 277 341 277 377 c 2,11,-1
 277 545 l 2,12,13
 277 577 277 577 273.5 609 c 128,-1,14
 270 641 270 641 262 667 c 128,-1,15
 254 693 254 693 240.5 711.5 c 128,-1,16
 227 730 227 730 208 735 c 1,17,18
 229 741 229 741 242.5 751.5 c 128,-1,19
 256 762 256 762 263.5 780 c 128,-1,20
 271 798 271 798 274 825.5 c 128,-1,21
 277 853 277 853 277 893 c 2,22,-1
 277 1210 l 1,23,24
 276 1253 276 1253 266 1278.5 c 128,-1,25
 256 1304 256 1304 238.5 1317.5 c 128,-1,26
 221 1331 221 1331 195.5 1335.5 c 128,-1,27
 170 1340 170 1340 138 1340 c 2,28,-1
 107 1340 l 1,29,30
 115 1360 115 1360 121 1395.5 c 128,-1,31
 127 1431 127 1431 127 1470 c 0,32,33
 127 1508 127 1508 121.5 1543.5 c 128,-1,34
 116 1579 116 1579 107 1600 c 1,35,36
 126 1597 126 1597 153 1595 c 128,-1,37
 180 1593 180 1593 212 1591.5 c 128,-1,38
 244 1590 244 1590 280 1589 c 128,-1,39
 316 1588 316 1588 354 1588 c 0,40,41
 405 1588 405 1588 457 1590 c 128,-1,42
 509 1592 509 1592 556.5 1596 c 128,-1,43
 604 1600 604 1600 644.5 1607 c 128,-1,44
 685 1614 685 1614 712 1625 c 1,45,46
 691 1586 691 1586 679 1538 c 128,-1,47
 667 1490 667 1490 660 1436 c 128,-1,48
 653 1382 653 1382 651 1323 c 128,-1,49
 649 1264 649 1264 649 1203 c 2,50,-1
 648 891 l 2,51,52
 648 851 648 851 651.5 823.5 c 128,-1,53
 655 796 655 796 663 778 c 128,-1,54
 671 760 671 760 684 750 c 128,-1,55
 697 740 697 740 717 735 c 1,56,57
 696 729 696 729 682.5 710.5 c 128,-1,58
 669 692 669 692 661.5 666 c 128,-1,59
 654 640 654 640 651 608.5 c 128,-1,60
 648 577 648 577 648 545 c 2,61,-1
 648 377 l 2,62,63
 648 341 648 341 661 318 c 128,-1,64
 674 295 674 295 698.5 282.5 c 128,-1,65
 723 270 723 270 757.5 265 c 128,-1,66
 792 260 792 260 835 260 c 1,67,68
 829 239 829 239 825.5 208 c 128,-1,69
 822 177 822 177 822 142 c 0,70,71
 822 104 822 104 824.5 65.5 c 128,-1,72
 827 27 827 27 835 0 c 1,73,74
 808 5 808 5 762.5 9.5 c 128,-1,75
 717 14 717 14 663 17.5 c 128,-1,76
 609 21 609 21 550.5 23 c 128,-1,77
 492 25 492 25 438 25 c 0,78,79
 390 25 390 25 339.5 23.5 c 128,-1,80
 289 22 289 22 242.5 18.5 c 128,-1,81
 196 15 196 15 156 10.5 c 128,-1,82
 116 6 116 6 90 0 c 1,0,1
EndSplineSet
EndChar

StartChar: c
Encoding: 99 99 40
Width: 1356
Flags: W
LayerCount: 2
Fore
SplineSet
92 166 m 1,0,1
 108 183 108 183 118.5 221 c 128,-1,2
 129 259 129 259 135.5 308 c 128,-1,3
 142 357 142 357 144.5 412 c 128,-1,4
 147 467 147 467 147 518 c 0,5,6
 147 568 147 568 144 621 c 128,-1,7
 141 674 141 674 134 721 c 128,-1,8
 127 768 127 768 117 805 c 128,-1,9
 107 842 107 842 92 860 c 1,10,11
 132 864 132 864 182 883 c 128,-1,12
 232 902 232 902 278.5 931 c 128,-1,13
 325 960 325 960 362.5 998.5 c 128,-1,14
 400 1037 400 1037 416 1080 c 1,15,16
 429 1073 429 1073 451.5 1067 c 128,-1,17
 474 1061 474 1061 502.5 1056 c 128,-1,18
 531 1051 531 1051 564.5 1048 c 128,-1,19
 598 1045 598 1045 633 1045 c 0,20,21
 676 1045 676 1045 717 1049 c 128,-1,22
 758 1053 758 1053 793 1060 c 128,-1,23
 828 1067 828 1067 855.5 1077.5 c 128,-1,24
 883 1088 883 1088 898 1100 c 1,25,26
 912 1081 912 1081 936 1065.5 c 128,-1,27
 960 1050 960 1050 991 1038.5 c 128,-1,28
 1022 1027 1022 1027 1058 1021 c 128,-1,29
 1094 1015 1094 1015 1132 1015 c 0,30,31
 1185 1015 1185 1015 1211 1019.5 c 128,-1,32
 1237 1024 1237 1024 1252 1028 c 1,33,34
 1240 996 1240 996 1233.5 941 c 128,-1,35
 1227 886 1227 886 1227 830 c 0,36,37
 1227 800 1227 800 1228.5 769.5 c 128,-1,38
 1230 739 1230 739 1233.5 712 c 128,-1,39
 1237 685 1237 685 1241.5 663.5 c 128,-1,40
 1246 642 1246 642 1252 630 c 1,41,42
 1227 642 1227 642 1186 647.5 c 128,-1,43
 1145 653 1145 653 1088 653 c 256,44,45
 1031 653 1031 653 987 647.5 c 128,-1,46
 943 642 943 642 913 630 c 1,47,48
 905 736 905 736 866 789.5 c 128,-1,49
 827 843 827 843 744 843 c 0,50,51
 703 843 703 843 667 830 c 128,-1,52
 631 817 631 817 604.5 782.5 c 128,-1,53
 578 748 578 748 562.5 689 c 128,-1,54
 547 630 547 630 547 538 c 0,55,56
 547 434 547 434 561.5 370.5 c 128,-1,57
 576 307 576 307 600.5 271.5 c 128,-1,58
 625 236 625 236 659 224 c 128,-1,59
 693 212 693 212 732 212 c 0,60,61
 784 212 784 212 819 230.5 c 128,-1,62
 854 249 854 249 875 279 c 128,-1,63
 896 309 896 309 906 348.5 c 128,-1,64
 916 388 916 388 919 430 c 1,65,66
 954 417 954 417 1000.5 412.5 c 128,-1,67
 1047 408 1047 408 1095 408 c 0,68,69
 1138 408 1138 408 1178.5 412.5 c 128,-1,70
 1219 417 1219 417 1252 430 c 1,71,72
 1247 415 1247 415 1243 393.5 c 128,-1,73
 1239 372 1239 372 1236.5 349.5 c 128,-1,74
 1234 327 1234 327 1233 305 c 128,-1,75
 1232 283 1232 283 1232 266 c 0,76,77
 1232 235 1232 235 1233.5 211.5 c 128,-1,78
 1235 188 1235 188 1238 169 c 128,-1,79
 1241 150 1241 150 1244.5 134 c 128,-1,80
 1248 118 1248 118 1252 103 c 1,81,82
 1244 104 1244 104 1236 104.5 c 128,-1,83
 1228 105 1228 105 1220 105 c 0,84,85
 1178 105 1178 105 1130.5 95 c 128,-1,86
 1083 85 1083 85 1037.5 69 c 128,-1,87
 992 53 992 53 951.5 32.5 c 128,-1,88
 911 12 911 12 884 -10 c 1,89,90
 855 2 855 2 806.5 13.5 c 128,-1,91
 758 25 758 25 701 25 c 0,92,93
 665 25 665 25 628 22 c 128,-1,94
 591 19 591 19 558 13.5 c 128,-1,95
 525 8 525 8 497 2 c 128,-1,96
 469 -4 469 -4 450 -10 c 1,97,98
 446 7 446 7 426.5 27 c 128,-1,99
 407 47 407 47 377.5 66.5 c 128,-1,100
 348 86 348 86 312 104 c 128,-1,101
 276 122 276 122 239 136 c 128,-1,102
 202 150 202 150 166.5 158 c 128,-1,103
 131 166 131 166 103 166 c 2,104,-1
 92 166 l 1,0,1
EndSplineSet
EndChar

StartChar: j
Encoding: 106 106 41
Width: 856
Flags: W
LayerCount: 2
Fore
SplineSet
192 1185 m 1,0,1
 198 1196 198 1196 203.5 1218 c 128,-1,2
 209 1240 209 1240 212.5 1269 c 128,-1,3
 216 1298 216 1298 218.5 1331.5 c 128,-1,4
 221 1365 221 1365 221 1400 c 0,5,6
 221 1432 221 1432 218.5 1462.5 c 128,-1,7
 216 1493 216 1493 212 1519.5 c 128,-1,8
 208 1546 208 1546 202.5 1567 c 128,-1,9
 197 1588 197 1588 191 1600 c 1,10,11
 209 1594 209 1594 236 1588.5 c 128,-1,12
 263 1583 263 1583 296.5 1579 c 128,-1,13
 330 1575 330 1575 368 1572.5 c 128,-1,14
 406 1570 406 1570 445 1570 c 0,15,16
 481 1570 481 1570 518 1571.5 c 128,-1,17
 555 1573 555 1573 588 1577 c 128,-1,18
 621 1581 621 1581 648 1586.5 c 128,-1,19
 675 1592 675 1592 691 1600 c 1,20,21
 685 1587 685 1587 680.5 1566 c 128,-1,22
 676 1545 676 1545 672.5 1518.5 c 128,-1,23
 669 1492 669 1492 667.5 1461.5 c 128,-1,24
 666 1431 666 1431 666 1400 c 0,25,26
 666 1368 666 1368 667.5 1337 c 128,-1,27
 669 1306 669 1306 672.5 1277.5 c 128,-1,28
 676 1249 676 1249 680.5 1225 c 128,-1,29
 685 1201 685 1201 691 1185 c 1,30,31
 675 1190 675 1190 648.5 1193.5 c 128,-1,32
 622 1197 622 1197 588.5 1199.5 c 128,-1,33
 555 1202 555 1202 517 1203.5 c 128,-1,34
 479 1205 479 1205 440 1205 c 256,35,36
 401 1205 401 1205 363.5 1203.5 c 128,-1,37
 326 1202 326 1202 293.5 1199.5 c 128,-1,38
 261 1197 261 1197 234.5 1193.5 c 128,-1,39
 208 1190 208 1190 192 1185 c 1,0,1
51 -136 m 0,40,41
 82 -136 82 -136 111.5 -133.5 c 128,-1,42
 141 -131 141 -131 166 -127 c 128,-1,43
 191 -123 191 -123 208.5 -119 c 128,-1,44
 226 -115 226 -115 233 -112 c 1,45,46
 233 -129 233 -129 241.5 -143 c 128,-1,47
 250 -157 250 -157 263 -166.5 c 128,-1,48
 276 -176 276 -176 291.5 -181.5 c 128,-1,49
 307 -187 307 -187 322 -187 c 0,50,51
 360 -187 360 -187 376.5 -163 c 128,-1,52
 393 -139 393 -139 393 -94 c 0,53,54
 393 -44 393 -44 371.5 -23.5 c 128,-1,55
 350 -3 350 -3 318 -3 c 0,56,57
 310 -3 310 -3 302 -4 c 128,-1,58
 294 -5 294 -5 286 -7 c 1,59,60
 291 -1 291 -1 294 19.5 c 128,-1,61
 297 40 297 40 298.5 68.5 c 128,-1,62
 300 97 300 97 300.5 130 c 128,-1,63
 301 163 301 163 301 194 c 0,64,65
 301 240 301 240 300.5 280 c 128,-1,66
 300 320 300 320 295 350.5 c 128,-1,67
 290 381 290 381 278.5 401 c 128,-1,68
 267 421 267 421 245 427 c 1,69,70
 263 436 263 436 274.5 447.5 c 128,-1,71
 286 459 286 459 292 480 c 128,-1,72
 298 501 298 501 300.5 534 c 128,-1,73
 303 567 303 567 303 619 c 2,74,-1
 303 655 l 2,75,76
 303 698 303 698 293 723.5 c 128,-1,77
 283 749 283 749 265 762.5 c 128,-1,78
 247 776 247 776 221 780.5 c 128,-1,79
 195 785 195 785 164 785 c 2,80,-1
 133 785 l 1,81,82
 141 805 141 805 147 840.5 c 128,-1,83
 153 876 153 876 153 915 c 0,84,85
 153 953 153 953 147.5 988.5 c 128,-1,86
 142 1024 142 1024 133 1045 c 1,87,88
 164 1040 164 1040 213 1038 c 128,-1,89
 262 1036 262 1036 321 1036 c 0,90,91
 377 1036 377 1036 437.5 1038.5 c 128,-1,92
 498 1041 498 1041 554 1046 c 128,-1,93
 610 1051 610 1051 658 1059.5 c 128,-1,94
 706 1068 706 1068 738 1080 c 1,95,96
 718 1041 718 1041 705.5 991.5 c 128,-1,97
 693 942 693 942 686 886 c 128,-1,98
 679 830 679 830 677 769.5 c 128,-1,99
 675 709 675 709 675 648 c 0,100,101
 675 582 675 582 677 541.5 c 128,-1,102
 679 501 679 501 685.5 478 c 128,-1,103
 692 455 692 455 704 444.5 c 128,-1,104
 716 434 716 434 736 427 c 1,105,106
 713 421 713 421 701 394.5 c 128,-1,107
 689 368 689 368 683.5 331.5 c 128,-1,108
 678 295 678 295 677 253 c 128,-1,109
 676 211 676 211 676 174 c 0,110,111
 676 140 676 140 678.5 93.5 c 128,-1,112
 681 47 681 47 685.5 -5 c 128,-1,113
 690 -57 690 -57 697 -110 c 128,-1,114
 704 -163 704 -163 713.5 -208 c 128,-1,115
 723 -253 723 -253 735.5 -287 c 128,-1,116
 748 -321 748 -321 763 -335 c 1,117,118
 755 -334 755 -334 747.5 -334 c 128,-1,119
 740 -334 740 -334 732 -334 c 0,120,121
 670 -334 670 -334 609.5 -353.5 c 128,-1,122
 549 -373 549 -373 497.5 -404 c 128,-1,123
 446 -435 446 -435 406.5 -473.5 c 128,-1,124
 367 -512 367 -512 346 -550 c 1,125,126
 328 -543 328 -543 293 -537.5 c 128,-1,127
 258 -532 258 -532 217.5 -528 c 128,-1,128
 177 -524 177 -524 135.5 -522 c 128,-1,129
 94 -520 94 -520 64 -520 c 0,130,131
 -66 -520 -66 -520 -147 -550 c 1,132,133
 -142 -533 -142 -533 -138.5 -509 c 128,-1,134
 -135 -485 -135 -485 -133 -457.5 c 128,-1,135
 -131 -430 -131 -430 -130 -400.5 c 128,-1,136
 -129 -371 -129 -371 -129 -344 c 0,137,138
 -129 -311 -129 -311 -130.5 -278.5 c 128,-1,139
 -132 -246 -132 -246 -134 -216.5 c 128,-1,140
 -136 -187 -136 -187 -139.5 -162.5 c 128,-1,141
 -143 -138 -143 -138 -147 -120 c 1,142,143
 -135 -125 -135 -125 -114 -128 c 128,-1,144
 -93 -131 -93 -131 -66.5 -133 c 128,-1,145
 -40 -135 -40 -135 -9.5 -135.5 c 128,-1,146
 21 -136 21 -136 51 -136 c 0,40,41
EndSplineSet
EndChar

StartChar: f
Encoding: 102 102 42
Width: 1195
Flags: W
LayerCount: 2
Fore
SplineSet
110 0 m 1,0,1
 118 26 118 26 121 62 c 128,-1,2
 124 98 124 98 124 133 c 0,3,4
 124 165 124 165 120 197 c 128,-1,5
 116 229 116 229 110 260 c 1,6,7
 166 260 166 260 202.5 265 c 128,-1,8
 239 270 239 270 261 282.5 c 128,-1,9
 283 295 283 295 291.5 318 c 128,-1,10
 300 341 300 341 300 377 c 2,11,-1
 300 696 l 2,12,13
 300 721 300 721 295.5 736.5 c 128,-1,14
 291 752 291 752 280 761 c 128,-1,15
 269 770 269 770 251 773 c 128,-1,16
 233 776 233 776 206 776 c 0,17,18
 191 776 191 776 173.5 774 c 128,-1,19
 156 772 156 772 134 768 c 1,20,21
 139 797 139 797 141 831 c 128,-1,22
 143 865 143 865 143 900 c 0,23,24
 143 932 143 932 141 963 c 128,-1,25
 139 994 139 994 134 1020 c 1,26,27
 177 1014 177 1014 207 1014 c 0,28,29
 231 1014 231 1014 248 1016 c 128,-1,30
 265 1018 265 1018 275.5 1025.5 c 128,-1,31
 286 1033 286 1033 291 1047.5 c 128,-1,32
 296 1062 296 1062 296 1088 c 0,33,34
 296 1136 296 1136 291.5 1185.5 c 128,-1,35
 287 1235 287 1235 278.5 1279 c 128,-1,36
 270 1323 270 1323 259.5 1357.5 c 128,-1,37
 249 1392 249 1392 237 1409 c 1,38,39
 270 1413 270 1413 307.5 1436 c 128,-1,40
 345 1459 345 1459 378.5 1491 c 128,-1,41
 412 1523 412 1523 436 1559 c 128,-1,42
 460 1595 460 1595 466 1625 c 1,43,44
 488 1610 488 1610 537 1605 c 128,-1,45
 586 1600 586 1600 643 1600 c 0,46,47
 731 1600 731 1600 789 1619 c 128,-1,48
 847 1638 847 1638 878 1670 c 1,49,50
 892 1651 892 1651 916 1635 c 128,-1,51
 940 1619 940 1619 971 1607.5 c 128,-1,52
 1002 1596 1002 1596 1038 1589.5 c 128,-1,53
 1074 1583 1074 1583 1112 1583 c 0,54,55
 1165 1583 1165 1583 1191 1587.5 c 128,-1,56
 1217 1592 1217 1592 1232 1596 c 1,57,58
 1220 1564 1220 1564 1213.5 1509 c 128,-1,59
 1207 1454 1207 1454 1207 1398 c 0,60,61
 1207 1368 1207 1368 1208.5 1337.5 c 128,-1,62
 1210 1307 1210 1307 1213.5 1280 c 128,-1,63
 1217 1253 1217 1253 1221.5 1231.5 c 128,-1,64
 1226 1210 1226 1210 1232 1198 c 1,65,66
 1207 1210 1207 1210 1166 1215.5 c 128,-1,67
 1125 1221 1125 1221 1068 1221 c 256,68,69
 1011 1221 1011 1221 967 1215.5 c 128,-1,70
 923 1210 923 1210 893 1198 c 1,71,72
 893 1317 893 1317 871.5 1371.5 c 128,-1,73
 850 1426 850 1426 788 1426 c 0,74,75
 732 1426 732 1426 702 1384 c 128,-1,76
 672 1342 672 1342 672 1244 c 2,77,-1
 672 1111 l 2,78,79
 672 1086 672 1086 678 1067.5 c 128,-1,80
 684 1049 684 1049 702.5 1036.5 c 128,-1,81
 721 1024 721 1024 754.5 1018 c 128,-1,82
 788 1012 788 1012 844 1012 c 0,83,84
 916 1012 916 1012 1036 1030 c 1,85,86
 1031 1004 1031 1004 1029 969 c 128,-1,87
 1027 934 1027 934 1027 897 c 0,88,89
 1027 812 1027 812 1036 755 c 1,90,91
 973 762 973 762 926 765 c 128,-1,92
 879 768 879 768 842 768 c 0,93,94
 785 768 785 768 751.5 765.5 c 128,-1,95
 718 763 718 763 700.5 755 c 128,-1,96
 683 747 683 747 678 732 c 128,-1,97
 673 717 673 717 673 692 c 2,98,-1
 673 377 l 2,99,100
 673 341 673 341 700 318 c 128,-1,101
 727 295 727 295 770.5 282.5 c 128,-1,102
 814 270 814 270 870 265 c 128,-1,103
 926 260 926 260 985 260 c 1,104,105
 979 239 979 239 975.5 208 c 128,-1,106
 972 177 972 177 972 142 c 0,107,108
 972 104 972 104 975 65.5 c 128,-1,109
 978 27 978 27 985 0 c 1,110,111
 953 5 953 5 895 9.5 c 128,-1,112
 837 14 837 14 767.5 17.5 c 128,-1,113
 698 21 698 21 624.5 23 c 128,-1,114
 551 25 551 25 488 25 c 0,115,116
 440 25 440 25 385 23.5 c 128,-1,117
 330 22 330 22 277.5 18.5 c 128,-1,118
 225 15 225 15 180.5 10.5 c 128,-1,119
 136 6 136 6 110 0 c 1,0,1
EndSplineSet
EndChar

StartChar: q
Encoding: 113 113 43
Width: 1704
Flags: W
LayerCount: 2
Fore
SplineSet
121 215 m 1,0,1
 133 241 133 241 148.5 321 c 128,-1,2
 164 401 164 401 164 543 c 0,3,4
 164 684 164 684 148.5 764 c 128,-1,5
 133 844 133 844 121 870 c 1,6,7
 176 874 176 874 230 894 c 128,-1,8
 284 914 284 914 330.5 943.5 c 128,-1,9
 377 973 377 973 412 1008.5 c 128,-1,10
 447 1044 447 1044 464 1080 c 1,11,12
 476 1071 476 1071 496.5 1064.5 c 128,-1,13
 517 1058 517 1058 543.5 1053.5 c 128,-1,14
 570 1049 570 1049 600 1047 c 128,-1,15
 630 1045 630 1045 661 1045 c 0,16,17
 694 1045 694 1045 726.5 1048 c 128,-1,18
 759 1051 759 1051 787.5 1056 c 128,-1,19
 816 1061 816 1061 837.5 1067 c 128,-1,20
 859 1073 859 1073 870 1080 c 1,21,22
 880 1047 880 1047 897.5 1020.5 c 128,-1,23
 915 994 915 994 937 973.5 c 128,-1,24
 959 953 959 953 983.5 939 c 128,-1,25
 1008 925 1008 925 1032 917 c 1,26,27
 1064 952 1064 952 1084 994.5 c 128,-1,28
 1104 1037 1104 1037 1107 1080 c 1,29,30
 1139 1068 1139 1068 1177 1059 c 128,-1,31
 1215 1050 1215 1050 1256 1045 c 128,-1,32
 1297 1040 1297 1040 1339 1037.5 c 128,-1,33
 1381 1035 1381 1035 1421 1035 c 0,34,35
 1460 1035 1460 1035 1495.5 1037 c 128,-1,36
 1531 1039 1531 1039 1560 1043 c 1,37,38
 1551 1022 1551 1022 1545.5 987.5 c 128,-1,39
 1540 953 1540 953 1540 915 c 0,40,41
 1540 876 1540 876 1546 840.5 c 128,-1,42
 1552 805 1552 805 1560 785 c 1,43,-1
 1528 785 l 2,44,45
 1493 785 1493 785 1462.5 780.5 c 128,-1,46
 1432 776 1432 776 1409.5 762.5 c 128,-1,47
 1387 749 1387 749 1373.5 723.5 c 128,-1,48
 1360 698 1360 698 1360 655 c 0,49,50
 1360 583 1360 583 1362.5 514 c 128,-1,51
 1365 445 1365 445 1372.5 389 c 128,-1,52
 1380 333 1380 333 1392.5 294.5 c 128,-1,53
 1405 256 1405 256 1425 246 c 1,54,55
 1404 239 1404 239 1391.5 211.5 c 128,-1,56
 1379 184 1379 184 1372 140 c 128,-1,57
 1365 96 1365 96 1362.5 36.5 c 128,-1,58
 1360 -23 1360 -23 1360 -93 c 1,59,-1
 1362 -172 l 2,60,61
 1362 -208 1362 -208 1384 -231 c 128,-1,62
 1406 -254 1406 -254 1442 -266.5 c 128,-1,63
 1478 -279 1478 -279 1522.5 -284 c 128,-1,64
 1567 -289 1567 -289 1612 -289 c 1,65,66
 1606 -320 1606 -320 1602 -352 c 128,-1,67
 1598 -384 1598 -384 1598 -416 c 0,68,69
 1598 -451 1598 -451 1601 -487.5 c 128,-1,70
 1604 -524 1604 -524 1612 -550 c 1,71,72
 1585 -544 1585 -544 1531.5 -539 c 128,-1,73
 1478 -534 1478 -534 1414.5 -531 c 128,-1,74
 1351 -528 1351 -528 1286.5 -526 c 128,-1,75
 1222 -524 1222 -524 1174 -524 c 0,76,77
 1111 -524 1111 -524 1042 -526 c 128,-1,78
 973 -528 973 -528 909 -532 c 128,-1,79
 845 -536 845 -536 792 -540.5 c 128,-1,80
 739 -545 739 -545 707 -550 c 1,81,82
 714 -523 714 -523 717 -484 c 128,-1,83
 720 -445 720 -445 720 -407 c 0,84,85
 720 -372 720 -372 716.5 -341 c 128,-1,86
 713 -310 713 -310 707 -289 c 1,87,88
 765 -289 765 -289 816.5 -284 c 128,-1,89
 868 -279 868 -279 906.5 -266.5 c 128,-1,90
 945 -254 945 -254 967 -231 c 128,-1,91
 989 -208 989 -208 989 -172 c 2,92,-1
 989 127 l 1,93,94
 919 98 919 98 880 61.5 c 128,-1,95
 841 25 841 25 830 -10 c 1,96,97
 806 4 806 4 756 14.5 c 128,-1,98
 706 25 706 25 643 25 c 0,99,100
 582 25 582 25 534 14.5 c 128,-1,101
 486 4 486 4 464 -10 c 1,102,103
 447 25 447 25 412 63 c 128,-1,104
 377 101 377 101 331 133.5 c 128,-1,105
 285 166 285 166 230.5 188.5 c 128,-1,106
 176 211 176 211 121 215 c 1,0,1
585 542 m 256,107,108
 585 465 585 465 595.5 410 c 128,-1,109
 606 355 606 355 630 319.5 c 128,-1,110
 654 284 654 284 692 267 c 128,-1,111
 730 250 730 250 785 250 c 0,112,113
 843 250 843 250 880 272 c 128,-1,114
 917 294 917 294 938 333 c 128,-1,115
 959 372 959 372 967 425.5 c 128,-1,116
 975 479 975 479 975 542 c 256,117,118
 975 605 975 605 967 657.5 c 128,-1,119
 959 710 959 710 938 748.5 c 128,-1,120
 917 787 917 787 880 808.5 c 128,-1,121
 843 830 843 830 785 830 c 0,122,123
 730 830 730 830 692 814 c 128,-1,124
 654 798 654 798 630 763 c 128,-1,125
 606 728 606 728 595.5 673.5 c 128,-1,126
 585 619 585 619 585 542 c 256,107,108
EndSplineSet
EndChar

StartChar: b
Encoding: 98 98 44
Width: 1704
Flags: W
LayerCount: 2
Fore
SplineSet
177 0 m 1,0,1
 184 10 184 10 188 26.5 c 128,-1,2
 192 43 192 43 194 62 c 128,-1,3
 196 81 196 81 196.5 99.5 c 128,-1,4
 197 118 197 118 197 133 c 256,5,6
 197 148 197 148 196 165.5 c 128,-1,7
 195 183 195 183 193 200.5 c 128,-1,8
 191 218 191 218 187 233.5 c 128,-1,9
 183 249 183 249 177 260 c 1,10,11
 227 260 227 260 257.5 268.5 c 128,-1,12
 288 277 288 277 304.5 295.5 c 128,-1,13
 321 314 321 314 326 343 c 128,-1,14
 331 372 331 372 331 413 c 2,15,-1
 331 535 l 2,16,17
 331 569 331 569 326.5 602.5 c 128,-1,18
 322 636 322 636 313 663 c 128,-1,19
 304 690 304 690 290 709 c 128,-1,20
 276 728 276 728 258 733 c 1,21,22
 299 747 299 747 314.5 801 c 128,-1,23
 330 855 330 855 330 958 c 1,24,25
 331 969 331 969 330.5 980 c 128,-1,26
 330 991 330 991 330 1003 c 2,27,-1
 327 1210 l 2,28,29
 326 1253 326 1253 316.5 1278.5 c 128,-1,30
 307 1304 307 1304 289 1317.5 c 128,-1,31
 271 1331 271 1331 245.5 1335.5 c 128,-1,32
 220 1340 220 1340 188 1340 c 2,33,-1
 157 1340 l 1,34,35
 165 1360 165 1360 171 1395.5 c 128,-1,36
 177 1431 177 1431 177 1470 c 0,37,38
 177 1508 177 1508 171.5 1543.5 c 128,-1,39
 166 1579 166 1579 157 1600 c 1,40,41
 176 1597 176 1597 203 1595 c 128,-1,42
 230 1593 230 1593 262 1591.5 c 128,-1,43
 294 1590 294 1590 330 1589 c 128,-1,44
 366 1588 366 1588 404 1588 c 0,45,46
 455 1588 455 1588 507 1590 c 128,-1,47
 559 1592 559 1592 606.5 1596 c 128,-1,48
 654 1600 654 1600 694.5 1607 c 128,-1,49
 735 1614 735 1614 762 1625 c 1,50,51
 742 1586 742 1586 729.5 1538 c 128,-1,52
 717 1490 717 1490 710 1436 c 128,-1,53
 703 1382 703 1382 701 1323 c 128,-1,54
 699 1264 699 1264 699 1203 c 2,55,-1
 699 952 l 1,56,57
 747 969 747 969 781.5 1002 c 128,-1,58
 816 1035 816 1035 839 1080 c 1,59,60
 850 1072 850 1072 872 1065.5 c 128,-1,61
 894 1059 894 1059 922 1054.5 c 128,-1,62
 950 1050 950 1050 982.5 1047.5 c 128,-1,63
 1015 1045 1015 1045 1048 1045 c 0,64,65
 1076 1045 1076 1045 1103 1047 c 128,-1,66
 1130 1049 1130 1049 1153.5 1053 c 128,-1,67
 1177 1057 1177 1057 1195.5 1063.5 c 128,-1,68
 1214 1070 1214 1070 1225 1080 c 1,69,70
 1242 1044 1242 1044 1277 1008.5 c 128,-1,71
 1312 973 1312 973 1358 943.5 c 128,-1,72
 1404 914 1404 914 1458 894 c 128,-1,73
 1512 874 1512 874 1568 870 c 1,74,75
 1556 844 1556 844 1539.5 763.5 c 128,-1,76
 1523 683 1523 683 1523 543 c 0,77,78
 1523 472 1523 472 1528 417 c 128,-1,79
 1533 362 1533 362 1539.5 321.5 c 128,-1,80
 1546 281 1546 281 1554 254.5 c 128,-1,81
 1562 228 1562 228 1568 215 c 1,82,83
 1512 211 1512 211 1458 188.5 c 128,-1,84
 1404 166 1404 166 1358 133.5 c 128,-1,85
 1312 101 1312 101 1277 63 c 128,-1,86
 1242 25 1242 25 1225 -10 c 1,87,88
 1190 4 1190 4 1134.5 14.5 c 128,-1,89
 1079 25 1079 25 1006 25 c 0,90,91
 931 25 931 25 874 14.5 c 128,-1,92
 817 4 817 4 779 -10 c 1,93,94
 774 11 774 11 763.5 35.5 c 128,-1,95
 753 60 753 60 737 84 c 128,-1,96
 721 108 721 108 700 129.5 c 128,-1,97
 679 151 679 151 653 165 c 1,98,99
 619 130 619 130 597.5 85 c 128,-1,100
 576 40 576 40 573 0 c 1,101,102
 557 4 557 4 538 8.5 c 128,-1,103
 519 13 519 13 494.5 16.5 c 128,-1,104
 470 20 470 20 439 22.5 c 128,-1,105
 408 25 408 25 369 25 c 0,106,107
 292 25 292 25 248.5 17.5 c 128,-1,108
 205 10 205 10 177 0 c 1,0,1
714 542 m 256,109,110
 714 479 714 479 722 424 c 128,-1,111
 730 369 730 369 751 328 c 128,-1,112
 772 287 772 287 809 263.5 c 128,-1,113
 846 240 846 240 904 240 c 0,114,115
 1014 240 1014 240 1059 314.5 c 128,-1,116
 1104 389 1104 389 1104 542 c 0,117,118
 1104 619 1104 619 1093.5 673.5 c 128,-1,119
 1083 728 1083 728 1059 763 c 128,-1,120
 1035 798 1035 798 997 814 c 128,-1,121
 959 830 959 830 904 830 c 0,122,123
 846 830 846 830 809 808.5 c 128,-1,124
 772 787 772 787 751 748.5 c 128,-1,125
 730 710 730 710 722 657.5 c 128,-1,126
 714 605 714 605 714 542 c 256,109,110
EndSplineSet
EndChar

StartChar: p
Encoding: 112 112 45
Width: 1535
Flags: W
LayerCount: 2
Fore
SplineSet
303 -93 m 1,0,1
 303 -23 303 -23 300.5 36.5 c 128,-1,2
 298 96 298 96 291 140 c 128,-1,3
 284 184 284 184 271.5 211.5 c 128,-1,4
 259 239 259 239 238 246 c 1,5,6
 258 256 258 256 270.5 279 c 128,-1,7
 283 302 283 302 290.5 348 c 128,-1,8
 298 394 298 394 300.5 468 c 128,-1,9
 303 542 303 542 303 655 c 1,10,11
 302 698 302 698 292 723.5 c 128,-1,12
 282 749 282 749 264.5 762.5 c 128,-1,13
 247 776 247 776 221.5 780.5 c 128,-1,14
 196 785 196 785 164 785 c 2,15,-1
 133 785 l 1,16,17
 141 805 141 805 147 840.5 c 128,-1,18
 153 876 153 876 153 915 c 0,19,20
 153 953 153 953 147.5 987.5 c 128,-1,21
 142 1022 142 1022 133 1043 c 1,22,23
 162 1039 162 1039 194.5 1037 c 128,-1,24
 227 1035 227 1035 262 1035 c 0,25,26
 334 1035 334 1035 408 1045 c 128,-1,27
 482 1055 482 1055 546 1080 c 1,28,29
 549 1035 549 1035 570 992 c 128,-1,30
 591 949 591 949 624 913 c 1,31,32
 648 923 648 923 673 939 c 128,-1,33
 698 955 698 955 720.5 976.5 c 128,-1,34
 743 998 743 998 761 1024 c 128,-1,35
 779 1050 779 1050 788 1080 c 1,36,37
 799 1073 799 1073 820.5 1067 c 128,-1,38
 842 1061 842 1061 870.5 1056 c 128,-1,39
 899 1051 899 1051 931.5 1048 c 128,-1,40
 964 1045 964 1045 997 1045 c 0,41,42
 1060 1045 1060 1045 1112 1054 c 128,-1,43
 1164 1063 1164 1063 1189 1080 c 1,44,45
 1206 1044 1206 1044 1236 1008.5 c 128,-1,46
 1266 973 1266 973 1306.5 943.5 c 128,-1,47
 1347 914 1347 914 1396.5 894 c 128,-1,48
 1446 874 1446 874 1502 870 c 1,49,50
 1490 844 1490 844 1474.5 764 c 128,-1,51
 1459 684 1459 684 1459 543 c 0,52,53
 1459 401 1459 401 1474.5 321 c 128,-1,54
 1490 241 1490 241 1502 215 c 1,55,56
 1446 211 1446 211 1396.5 188.5 c 128,-1,57
 1347 166 1347 166 1306.5 133.5 c 128,-1,58
 1266 101 1266 101 1236 63 c 128,-1,59
 1206 25 1206 25 1189 -10 c 1,60,61
 1167 4 1167 4 1121.5 14.5 c 128,-1,62
 1076 25 1076 25 1015 25 c 0,63,64
 952 25 952 25 902 14.5 c 128,-1,65
 852 4 852 4 828 -10 c 1,66,67
 816 25 816 25 775 61.5 c 128,-1,68
 734 98 734 98 664 127 c 1,69,-1
 664 -172 l 2,70,71
 664 -208 664 -208 687.5 -231 c 128,-1,72
 711 -254 711 -254 751.5 -266.5 c 128,-1,73
 792 -279 792 -279 844.5 -284 c 128,-1,74
 897 -289 897 -289 956 -289 c 1,75,76
 950 -310 950 -310 946.5 -341 c 128,-1,77
 943 -372 943 -372 943 -407 c 0,78,79
 943 -445 943 -445 946 -484 c 128,-1,80
 949 -523 949 -523 956 -550 c 1,81,82
 924 -545 924 -545 871 -540.5 c 128,-1,83
 818 -536 818 -536 754 -532 c 128,-1,84
 690 -528 690 -528 621 -526 c 128,-1,85
 552 -524 552 -524 489 -524 c 0,86,87
 441 -524 441 -524 389 -526 c 128,-1,88
 337 -528 337 -528 288.5 -531 c 128,-1,89
 240 -534 240 -534 198.5 -539 c 128,-1,90
 157 -544 157 -544 131 -550 c 1,91,92
 139 -524 139 -524 142 -487.5 c 128,-1,93
 145 -451 145 -451 145 -416 c 0,94,95
 145 -384 145 -384 141 -352 c 128,-1,96
 137 -320 137 -320 131 -289 c 1,97,98
 176 -289 176 -289 208 -284 c 128,-1,99
 240 -279 240 -279 261 -266.5 c 128,-1,100
 282 -254 282 -254 291.5 -231 c 128,-1,101
 301 -208 301 -208 301 -172 c 2,102,-1
 303 -93 l 1,0,1
678 542 m 256,103,104
 678 479 678 479 687 425.5 c 128,-1,105
 696 372 696 372 718 333 c 128,-1,106
 740 294 740 294 777.5 272 c 128,-1,107
 815 250 815 250 873 250 c 0,108,109
 928 250 928 250 966 267 c 128,-1,110
 1004 284 1004 284 1028 319.5 c 128,-1,111
 1052 355 1052 355 1062.5 410 c 128,-1,112
 1073 465 1073 465 1073 542 c 256,113,114
 1073 619 1073 619 1062.5 673.5 c 128,-1,115
 1052 728 1052 728 1028 763 c 128,-1,116
 1004 798 1004 798 966 814 c 128,-1,117
 928 830 928 830 873 830 c 0,118,119
 815 830 815 830 777.5 808.5 c 128,-1,120
 740 787 740 787 718 748.5 c 128,-1,121
 696 710 696 710 687 657.5 c 128,-1,122
 678 605 678 605 678 542 c 256,103,104
EndSplineSet
EndChar

StartChar: k
Encoding: 107 107 46
Width: 1703
Flags: W
LayerCount: 2
Fore
SplineSet
110 0 m 1,0,1
 118 26 118 26 121 62 c 128,-1,2
 124 98 124 98 124 133 c 0,3,4
 124 165 124 165 120 197 c 128,-1,5
 116 229 116 229 110 260 c 1,6,7
 166 260 166 260 202.5 265 c 128,-1,8
 239 270 239 270 260 282.5 c 128,-1,9
 281 295 281 295 289 318 c 128,-1,10
 297 341 297 341 297 377 c 2,11,-1
 297 545 l 2,12,13
 297 577 297 577 292.5 609 c 128,-1,14
 288 641 288 641 279.5 667.5 c 128,-1,15
 271 694 271 694 258 712 c 128,-1,16
 245 730 245 730 228 735 c 1,17,18
 264 747 264 747 280.5 789.5 c 128,-1,19
 297 832 297 832 297 913 c 2,20,-1
 297 1210 l 1,21,22
 296 1253 296 1253 286 1278.5 c 128,-1,23
 276 1304 276 1304 258.5 1317.5 c 128,-1,24
 241 1331 241 1331 215.5 1335.5 c 128,-1,25
 190 1340 190 1340 158 1340 c 2,26,-1
 127 1340 l 1,27,28
 135 1360 135 1360 141 1395.5 c 128,-1,29
 147 1431 147 1431 147 1470 c 0,30,31
 147 1508 147 1508 141.5 1543.5 c 128,-1,32
 136 1579 136 1579 127 1600 c 1,33,34
 146 1597 146 1597 173 1595 c 128,-1,35
 200 1593 200 1593 232 1591.5 c 128,-1,36
 264 1590 264 1590 300 1589 c 128,-1,37
 336 1588 336 1588 374 1588 c 0,38,39
 425 1588 425 1588 477 1590 c 128,-1,40
 529 1592 529 1592 576.5 1596 c 128,-1,41
 624 1600 624 1600 664.5 1607 c 128,-1,42
 705 1614 705 1614 732 1625 c 1,43,44
 712 1586 712 1586 699.5 1538 c 128,-1,45
 687 1490 687 1490 680 1436 c 128,-1,46
 673 1382 673 1382 671 1323 c 128,-1,47
 669 1264 669 1264 669 1203 c 2,48,-1
 668 650 l 1,49,50
 691 647 691 647 716.5 647 c 128,-1,51
 742 647 742 647 781 647 c 0,52,53
 806 647 806 647 841.5 656.5 c 128,-1,54
 877 666 877 666 909 684 c 128,-1,55
 941 702 941 702 963.5 727.5 c 128,-1,56
 986 753 986 753 986 786 c 0,57,58
 986 803 986 803 964 816 c 128,-1,59
 942 829 942 829 903 829 c 0,60,61
 879 829 879 829 849 823 c 1,62,63
 854 843 854 843 856.5 869.5 c 128,-1,64
 859 896 859 896 859 922 c 0,65,66
 859 967 859 967 856 1007.5 c 128,-1,67
 853 1048 853 1048 847 1080 c 1,68,69
 873 1073 873 1073 914 1066.5 c 128,-1,70
 955 1060 955 1060 1004.5 1055.5 c 128,-1,71
 1054 1051 1054 1051 1107.5 1048 c 128,-1,72
 1161 1045 1161 1045 1212 1045 c 0,73,74
 1257 1045 1257 1045 1305.5 1047.5 c 128,-1,75
 1354 1050 1354 1050 1397 1054.5 c 128,-1,76
 1440 1059 1440 1059 1474 1065.5 c 128,-1,77
 1508 1072 1508 1072 1525 1080 c 1,78,79
 1515 1045 1515 1045 1511 999 c 128,-1,80
 1507 953 1507 953 1507 905 c 0,81,82
 1507 863 1507 863 1511 826 c 128,-1,83
 1515 789 1515 789 1523 763 c 1,84,85
 1475 763 1475 763 1413.5 752 c 128,-1,86
 1352 741 1352 741 1293.5 718.5 c 128,-1,87
 1235 696 1235 696 1188 662.5 c 128,-1,88
 1141 629 1141 629 1123 584 c 1,89,90
 1138 557 1138 557 1173 539 c 128,-1,91
 1208 521 1208 521 1251 510.5 c 128,-1,92
 1294 500 1294 500 1339.5 496 c 128,-1,93
 1385 492 1385 492 1422 492 c 1,94,95
 1422 456 1422 456 1435.5 423.5 c 128,-1,96
 1449 391 1449 391 1473.5 365.5 c 128,-1,97
 1498 340 1498 340 1534 325 c 128,-1,98
 1570 310 1570 310 1615 310 c 1,99,100
 1607 285 1607 285 1601 243.5 c 128,-1,101
 1595 202 1595 202 1595 157 c 0,102,103
 1595 109 1595 109 1600 66.5 c 128,-1,104
 1605 24 1605 24 1615 0 c 1,105,106
 1601 6 1601 6 1574.5 10.5 c 128,-1,107
 1548 15 1548 15 1514 18.5 c 128,-1,108
 1480 22 1480 22 1442.5 23.5 c 128,-1,109
 1405 25 1405 25 1370 25 c 0,110,111
 1301 25 1301 25 1257 19 c 128,-1,112
 1213 13 1213 13 1180 0 c 1,113,114
 1180 41 1180 41 1169 77.5 c 128,-1,115
 1158 114 1158 114 1140 141 c 128,-1,116
 1122 168 1122 168 1098.5 184 c 128,-1,117
 1075 200 1075 200 1050 200 c 1,118,119
 1063 222 1063 222 1070 245.5 c 128,-1,120
 1077 269 1077 269 1077 295 c 0,121,122
 1077 325 1077 325 1058.5 356 c 128,-1,123
 1040 387 1040 387 1002.5 412 c 128,-1,124
 965 437 965 437 908.5 453 c 128,-1,125
 852 469 852 469 776 469 c 0,126,127
 726 469 726 469 668 457 c 1,128,-1
 668 377 l 2,129,130
 668 341 668 341 681 318 c 128,-1,131
 694 295 694 295 718.5 282.5 c 128,-1,132
 743 270 743 270 777.5 265 c 128,-1,133
 812 260 812 260 855 260 c 1,134,135
 849 239 849 239 845.5 208 c 128,-1,136
 842 177 842 177 842 142 c 0,137,138
 842 104 842 104 844.5 65.5 c 128,-1,139
 847 27 847 27 855 0 c 1,140,141
 828 5 828 5 782.5 9.5 c 128,-1,142
 737 14 737 14 683 17.5 c 128,-1,143
 629 21 629 21 570.5 23 c 128,-1,144
 512 25 512 25 458 25 c 0,145,146
 410 25 410 25 359.5 23.5 c 128,-1,147
 309 22 309 22 262.5 18.5 c 128,-1,148
 216 15 216 15 176 10.5 c 128,-1,149
 136 6 136 6 110 0 c 1,0,1
EndSplineSet
EndChar

StartChar: z
Encoding: 122 122 47
Width: 1370
Flags: W
LayerCount: 2
Fore
SplineSet
120 -10 m 1,0,1
 127 2 127 2 132.5 21 c 128,-1,2
 138 40 138 40 142 63.5 c 128,-1,3
 146 87 146 87 148 113.5 c 128,-1,4
 150 140 150 140 150 166 c 0,5,6
 150 194 150 194 148 226 c 128,-1,7
 146 258 146 258 142 288 c 128,-1,8
 138 318 138 318 132.5 343.5 c 128,-1,9
 127 369 127 369 120 384 c 1,10,11
 170 394 170 394 234 418.5 c 128,-1,12
 298 443 298 443 366 477 c 128,-1,13
 434 511 434 511 502 553 c 128,-1,14
 570 595 570 595 629 639.5 c 128,-1,15
 688 684 688 684 733 729 c 128,-1,16
 778 774 778 774 800 815 c 1,17,18
 781 845 781 845 740 859 c 128,-1,19
 699 873 699 873 650 873 c 0,20,21
 608 873 608 873 578.5 856.5 c 128,-1,22
 549 840 549 840 530.5 812 c 128,-1,23
 512 784 512 784 504 746.5 c 128,-1,24
 496 709 496 709 496 667 c 1,25,26
 468 679 468 679 430.5 685.5 c 128,-1,27
 393 692 393 692 339 692 c 0,28,29
 276 692 276 692 216 685.5 c 128,-1,30
 156 679 156 679 120 667 c 1,31,32
 129 696 129 696 134.5 742 c 128,-1,33
 140 788 140 788 140 840 c 0,34,35
 140 903 140 903 134 962.5 c 128,-1,36
 128 1022 128 1022 120 1070 c 1,37,38
 158 1061 158 1061 215.5 1056 c 128,-1,39
 273 1051 273 1051 341.5 1048.5 c 128,-1,40
 410 1046 410 1046 485.5 1045.5 c 128,-1,41
 561 1045 561 1045 636 1045 c 0,42,43
 724 1045 724 1045 819.5 1047 c 128,-1,44
 915 1049 915 1049 1002 1053.5 c 128,-1,45
 1089 1058 1089 1058 1160 1064.5 c 128,-1,46
 1231 1071 1231 1071 1270 1080 c 1,47,48
 1254 1037 1254 1037 1247 976.5 c 128,-1,49
 1240 916 1240 916 1240 841 c 0,50,51
 1240 785 1240 785 1245 743 c 128,-1,52
 1250 701 1250 701 1258 658 c 1,53,54
 1218 653 1218 653 1160.5 629.5 c 128,-1,55
 1103 606 1103 606 1038 571 c 128,-1,56
 973 536 973 536 905.5 493.5 c 128,-1,57
 838 451 838 451 778.5 407 c 128,-1,58
 719 363 719 363 672 322 c 128,-1,59
 625 281 625 281 601 250 c 1,60,61
 616 215 616 215 658 197.5 c 128,-1,62
 700 180 700 180 760 180 c 0,63,64
 806 180 806 180 837 193.5 c 128,-1,65
 868 207 868 207 886.5 233.5 c 128,-1,66
 905 260 905 260 912.5 299.5 c 128,-1,67
 920 339 920 339 920 390 c 1,68,69
 983 364 983 364 1094 364 c 0,70,71
 1121 364 1121 364 1150.5 366 c 128,-1,72
 1180 368 1180 368 1207.5 371 c 128,-1,73
 1235 374 1235 374 1258 379 c 128,-1,74
 1281 384 1281 384 1295 390 c 1,75,76
 1291 376 1291 376 1286.5 351.5 c 128,-1,77
 1282 327 1282 327 1278.5 297.5 c 128,-1,78
 1275 268 1275 268 1272.5 237 c 128,-1,79
 1270 206 1270 206 1270 179 c 0,80,81
 1270 112 1270 112 1277.5 66.5 c 128,-1,82
 1285 21 1285 21 1295 0 c 1,83,84
 1251 6 1251 6 1189 10.5 c 128,-1,85
 1127 15 1127 15 1054 18.5 c 128,-1,86
 981 22 981 22 901 23.5 c 128,-1,87
 821 25 821 25 742 25 c 0,88,89
 653 25 653 25 559 22.5 c 128,-1,90
 465 20 465 20 380.5 15.5 c 128,-1,91
 296 11 296 11 227.5 4.5 c 128,-1,92
 159 -2 159 -2 120 -10 c 1,0,1
EndSplineSet
EndChar

StartChar: r
Encoding: 114 114 48
Width: 1362
Flags: W
LayerCount: 2
Fore
SplineSet
110 0 m 1,0,1
 118 26 118 26 121 62 c 128,-1,2
 124 98 124 98 124 133 c 0,3,4
 124 165 124 165 120 197 c 128,-1,5
 116 229 116 229 110 260 c 1,6,7
 166 260 166 260 202.5 265 c 128,-1,8
 239 270 239 270 261 282.5 c 128,-1,9
 283 295 283 295 291.5 318 c 128,-1,10
 300 341 300 341 300 377 c 2,11,-1
 300 655 l 1,12,13
 299 698 299 698 289 723.5 c 128,-1,14
 279 749 279 749 261.5 762.5 c 128,-1,15
 244 776 244 776 218.5 780.5 c 128,-1,16
 193 785 193 785 161 785 c 2,17,-1
 130 785 l 1,18,19
 138 805 138 805 144 840.5 c 128,-1,20
 150 876 150 876 150 915 c 0,21,22
 150 953 150 953 144.5 987.5 c 128,-1,23
 139 1022 139 1022 130 1043 c 1,24,25
 159 1039 159 1039 199.5 1037 c 128,-1,26
 240 1035 240 1035 287 1035 c 0,27,28
 335 1035 335 1035 386.5 1037.5 c 128,-1,29
 438 1040 438 1040 487 1045 c 128,-1,30
 536 1050 536 1050 579.5 1059 c 128,-1,31
 623 1068 623 1068 655 1080 c 1,32,33
 648 1060 648 1060 645.5 1039.5 c 128,-1,34
 643 1019 643 1019 643 997 c 0,35,36
 643 966 643 966 647.5 935 c 128,-1,37
 652 904 652 904 657 875 c 1,38,39
 700 887 700 887 747.5 909.5 c 128,-1,40
 795 932 795 932 836.5 960 c 128,-1,41
 878 988 878 988 907 1019 c 128,-1,42
 936 1050 936 1050 943 1080 c 1,43,44
 972 1063 972 1063 1018.5 1054 c 128,-1,45
 1065 1045 1065 1045 1125 1045 c 0,46,47
 1149 1045 1149 1045 1175 1046.5 c 128,-1,48
 1201 1048 1201 1048 1225.5 1051.5 c 128,-1,49
 1250 1055 1250 1055 1270.5 1062 c 128,-1,50
 1291 1069 1291 1069 1304 1080 c 1,51,52
 1296 1060 1296 1060 1291.5 1030 c 128,-1,53
 1287 1000 1287 1000 1284.5 965.5 c 128,-1,54
 1282 931 1282 931 1281 895.5 c 128,-1,55
 1280 860 1280 860 1280 829 c 256,56,57
 1280 798 1280 798 1282 758.5 c 128,-1,58
 1284 719 1284 719 1287 682.5 c 128,-1,59
 1290 646 1290 646 1294.5 619 c 128,-1,60
 1299 592 1299 592 1304 585 c 1,61,62
 1271 593 1271 593 1221.5 598.5 c 128,-1,63
 1172 604 1172 604 1118 604 c 256,64,65
 1064 604 1064 604 1016 598.5 c 128,-1,66
 968 593 968 593 938 585 c 1,67,68
 938 692 938 692 913.5 735 c 128,-1,69
 889 778 889 778 841 778 c 0,70,71
 817 778 817 778 788.5 764.5 c 128,-1,72
 760 751 760 751 735.5 725 c 128,-1,73
 711 699 711 699 693 661.5 c 128,-1,74
 675 624 675 624 672 576 c 1,75,-1
 673 377 l 2,76,77
 673 341 673 341 693.5 318 c 128,-1,78
 714 295 714 295 750 282.5 c 128,-1,79
 786 270 786 270 836 265 c 128,-1,80
 886 260 886 260 945 260 c 1,81,82
 939 239 939 239 935.5 208 c 128,-1,83
 932 177 932 177 932 142 c 0,84,85
 932 104 932 104 935 65.5 c 128,-1,86
 938 27 938 27 945 0 c 1,87,88
 913 5 913 5 866 9.5 c 128,-1,89
 819 14 819 14 763 17.5 c 128,-1,90
 707 21 707 21 644 23 c 128,-1,91
 581 25 581 25 518 25 c 0,92,93
 470 25 470 25 410.5 23.5 c 128,-1,94
 351 22 351 22 293 18.5 c 128,-1,95
 235 15 235 15 185.5 10.5 c 128,-1,96
 136 6 136 6 110 0 c 1,0,1
EndSplineSet
EndChar

StartChar: x
Encoding: 120 120 49
Width: 1364
Flags: W
LayerCount: 2
Fore
SplineSet
54 4 m 1,0,1
 62 31 62 31 64.5 64 c 128,-1,2
 67 97 67 97 67 137 c 0,3,4
 67 171 67 171 64 206 c 128,-1,5
 61 241 61 241 54 263 c 1,6,7
 135 263 135 263 194.5 279.5 c 128,-1,8
 254 296 254 296 303 329 c 128,-1,9
 352 362 352 362 395.5 411.5 c 128,-1,10
 439 461 439 461 488 527 c 1,11,12
 445 572 445 572 391.5 622 c 128,-1,13
 338 672 338 672 281.5 714 c 128,-1,14
 225 756 225 756 168.5 783.5 c 128,-1,15
 112 811 112 811 64 811 c 1,16,17
 69 835 69 835 73 866.5 c 128,-1,18
 77 898 77 898 77 933 c 0,19,20
 77 975 77 975 73.5 1008 c 128,-1,21
 70 1041 70 1041 64 1070 c 1,22,23
 89 1059 89 1059 130 1053.5 c 128,-1,24
 171 1048 171 1048 218.5 1045.5 c 128,-1,25
 266 1043 266 1043 316 1042.5 c 128,-1,26
 366 1042 366 1042 411 1042 c 0,27,28
 459 1042 459 1042 508.5 1043 c 128,-1,29
 558 1044 558 1044 603 1047 c 128,-1,30
 648 1050 648 1050 686 1055.5 c 128,-1,31
 724 1061 724 1061 750 1070 c 1,32,33
 740 1045 740 1045 736.5 1017 c 128,-1,34
 733 989 733 989 733 952 c 0,35,36
 733 918 733 918 738.5 893 c 128,-1,37
 744 868 744 868 752 851 c 1,38,39
 699 851 699 851 680 838.5 c 128,-1,40
 661 826 661 826 661 805 c 0,41,42
 661 789 661 789 672 770.5 c 128,-1,43
 683 752 683 752 701 732 c 128,-1,44
 719 712 719 712 741.5 691.5 c 128,-1,45
 764 671 764 671 787 651 c 1,46,47
 806 669 806 669 826.5 690 c 128,-1,48
 847 711 847 711 864.5 732.5 c 128,-1,49
 882 754 882 754 893 774.5 c 128,-1,50
 904 795 904 795 904 812 c 0,51,52
 904 835 904 835 889.5 843.5 c 128,-1,53
 875 852 875 852 853 852 c 0,54,55
 849 852 849 852 845.5 851.5 c 128,-1,56
 842 851 842 851 837 851 c 1,57,58
 840 871 840 871 842.5 897.5 c 128,-1,59
 845 924 845 924 845 952 c 0,60,61
 845 966 845 966 844.5 982.5 c 128,-1,62
 844 999 844 999 843 1015.5 c 128,-1,63
 842 1032 842 1032 840 1046.5 c 128,-1,64
 838 1061 838 1061 836 1070 c 1,65,66
 857 1058 857 1058 922.5 1050 c 128,-1,67
 988 1042 988 1042 1085 1042 c 0,68,69
 1178 1042 1178 1042 1230.5 1050 c 128,-1,70
 1283 1058 1283 1058 1308 1070 c 1,71,72
 1305 1059 1305 1059 1302 1042 c 128,-1,73
 1299 1025 1299 1025 1296.5 1006 c 128,-1,74
 1294 987 1294 987 1292.5 968 c 128,-1,75
 1291 949 1291 949 1291 933 c 0,76,77
 1291 898 1291 898 1292 866.5 c 128,-1,78
 1293 835 1293 835 1300 811 c 1,79,80
 1217 811 1217 811 1160 787.5 c 128,-1,81
 1103 764 1103 764 1059.5 724.5 c 128,-1,82
 1016 685 1016 685 982 634 c 128,-1,83
 948 583 948 583 912 528 c 1,84,85
 957 480 957 480 1004.5 433.5 c 128,-1,86
 1052 387 1052 387 1102 349.5 c 128,-1,87
 1152 312 1152 312 1204.5 288.5 c 128,-1,88
 1257 265 1257 265 1313 263 c 1,89,90
 1308 241 1308 241 1303 209.5 c 128,-1,91
 1298 178 1298 178 1298 146 c 0,92,93
 1298 104 1298 104 1302.5 68.5 c 128,-1,94
 1307 33 1307 33 1313 4 c 1,95,96
 1284 10 1284 10 1248 14.5 c 128,-1,97
 1212 19 1212 19 1171.5 22.5 c 128,-1,98
 1131 26 1131 26 1088 27.5 c 128,-1,99
 1045 29 1045 29 1004 29 c 0,100,101
 910 29 910 29 826.5 21.5 c 128,-1,102
 743 14 743 14 683 4 c 1,103,104
 689 29 689 29 693.5 59.5 c 128,-1,105
 698 90 698 90 698 127 c 0,106,107
 698 147 698 147 693 168 c 128,-1,108
 688 189 688 189 683 203 c 1,109,110
 719 203 719 203 737 216.5 c 128,-1,111
 755 230 755 230 755 250 c 0,112,113
 755 266 755 266 745 283 c 128,-1,114
 735 300 735 300 717.5 318 c 128,-1,115
 700 336 700 336 677 355.5 c 128,-1,116
 654 375 654 375 628 396 c 1,117,118
 602 373 602 373 579.5 353 c 128,-1,119
 557 333 557 333 540 315 c 128,-1,120
 523 297 523 297 513 280 c 128,-1,121
 503 263 503 263 503 247 c 0,122,123
 503 223 503 223 520 212.5 c 128,-1,124
 537 202 537 202 573 202 c 0,125,126
 578 202 578 202 582 202.5 c 128,-1,127
 586 203 586 203 591 203 c 1,128,129
 586 189 586 189 582.5 168 c 128,-1,130
 579 147 579 147 579 127 c 0,131,132
 579 90 579 90 583 59.5 c 128,-1,133
 587 29 587 29 593 4 c 1,134,135
 570 9 570 9 537.5 13.5 c 128,-1,136
 505 18 505 18 467.5 21.5 c 128,-1,137
 430 25 430 25 390 27 c 128,-1,138
 350 29 350 29 311 29 c 0,139,140
 236 29 236 29 167.5 22 c 128,-1,141
 99 15 99 15 54 4 c 1,0,1
EndSplineSet
EndChar

StartChar: v
Encoding: 118 118 50
Width: 1364
Flags: W
LayerCount: 2
Fore
SplineSet
476 0 m 1,0,1
 477 7 477 7 477.5 16.5 c 128,-1,2
 478 26 478 26 478 34 c 0,3,4
 478 77 478 77 461 137 c 128,-1,5
 444 197 444 197 410 267 c 0,6,7
 375 339 375 339 337 381 c 128,-1,8
 299 423 299 423 262 434 c 1,9,10
 279 440 279 440 279 466 c 0,11,12
 279 479 279 479 277.5 501.5 c 128,-1,13
 276 524 276 524 268 553.5 c 128,-1,14
 260 583 260 583 244 618 c 128,-1,15
 228 653 228 653 198 691 c 0,16,17
 181 713 181 713 161.5 732.5 c 128,-1,18
 142 752 142 752 115.5 767 c 128,-1,19
 89 782 89 782 54 791 c 128,-1,20
 19 800 19 800 -29 800 c 1,21,22
 -24 829 -24 829 -20.5 863.5 c 128,-1,23
 -17 898 -17 898 -17 940 c 0,24,25
 -17 977 -17 977 -20 1011.5 c 128,-1,26
 -23 1046 -23 1046 -29 1070 c 1,27,28
 -14 1064 -14 1064 23.5 1059.5 c 128,-1,29
 61 1055 61 1055 113 1052 c 128,-1,30
 165 1049 165 1049 225 1047 c 128,-1,31
 285 1045 285 1045 345 1045 c 0,32,33
 409 1045 409 1045 468 1045.5 c 128,-1,34
 527 1046 527 1046 577.5 1048.5 c 128,-1,35
 628 1051 628 1051 667.5 1056 c 128,-1,36
 707 1061 707 1061 731 1070 c 1,37,38
 725 1045 725 1045 722 1016 c 128,-1,39
 719 987 719 987 719 950 c 0,40,41
 719 908 719 908 721.5 868.5 c 128,-1,42
 724 829 724 829 729 800 c 1,43,44
 654 800 654 800 621.5 784 c 128,-1,45
 589 768 589 768 589 733 c 0,46,47
 589 706 589 706 607 662 c 128,-1,48
 625 618 625 618 652 562 c 128,-1,49
 679 506 679 506 709 440.5 c 128,-1,50
 739 375 739 375 763 305 c 1,51,52
 789 368 789 368 820 430 c 128,-1,53
 851 492 851 492 877.5 548 c 128,-1,54
 904 604 904 604 922 652 c 128,-1,55
 940 700 940 700 940 736 c 0,56,57
 940 776 940 776 911 788 c 128,-1,58
 882 800 882 800 816 800 c 1,59,60
 821 829 821 829 823.5 868.5 c 128,-1,61
 826 908 826 908 826 950 c 0,62,63
 826 1022 826 1022 814 1070 c 1,64,65
 827 1061 827 1061 857.5 1056 c 128,-1,66
 888 1051 888 1051 928 1048.5 c 128,-1,67
 968 1046 968 1046 1013.5 1045.5 c 128,-1,68
 1059 1045 1059 1045 1103 1045 c 0,69,70
 1152 1045 1152 1045 1198 1046.5 c 128,-1,71
 1244 1048 1244 1048 1281.5 1051.5 c 128,-1,72
 1319 1055 1319 1055 1345.5 1059.5 c 128,-1,73
 1372 1064 1372 1064 1382 1070 c 1,74,75
 1377 1050 1377 1050 1374.5 1018 c 128,-1,76
 1372 986 1372 986 1372 950 c 0,77,78
 1372 908 1372 908 1374.5 868.5 c 128,-1,79
 1377 829 1377 829 1382 800 c 1,80,81
 1358 800 1358 800 1332 793 c 128,-1,82
 1306 786 1306 786 1280.5 771.5 c 128,-1,83
 1255 757 1255 757 1231.5 735 c 128,-1,84
 1208 713 1208 713 1191 684 c 1,85,86
 1167 649 1167 649 1152.5 616.5 c 128,-1,87
 1138 584 1138 584 1130.5 555.5 c 128,-1,88
 1123 527 1123 527 1121 504 c 128,-1,89
 1119 481 1119 481 1119 466 c 0,90,91
 1119 440 1119 440 1136 434 c 1,92,93
 1099 426 1099 426 1063.5 392.5 c 128,-1,94
 1028 359 1028 359 1000.5 307.5 c 128,-1,95
 973 256 973 256 956 189.5 c 128,-1,96
 939 123 939 123 939 50 c 0,97,98
 939 36 939 36 940.5 23.5 c 128,-1,99
 942 11 942 11 944 0 c 1,100,101
 935 5 935 5 906 9.5 c 128,-1,102
 877 14 877 14 839.5 17.5 c 128,-1,103
 802 21 802 21 763 23 c 128,-1,104
 724 25 724 25 696 25 c 0,105,106
 665 25 665 25 632.5 22.5 c 128,-1,107
 600 20 600 20 570.5 16.5 c 128,-1,108
 541 13 541 13 516 8.5 c 128,-1,109
 491 4 491 4 476 0 c 1,0,1
EndSplineSet
EndChar

StartChar: w
Encoding: 119 119 51
Width: 2046
Flags: W
LayerCount: 2
Fore
SplineSet
490 0 m 1,0,1
 491 7 491 7 491.5 16.5 c 128,-1,2
 492 26 492 26 492 34 c 0,3,4
 492 77 492 77 480 137 c 128,-1,5
 468 197 468 197 435 267 c 0,6,7
 401 339 401 339 363.5 381 c 128,-1,8
 326 423 326 423 290 434 c 1,9,10
 307 440 307 440 307 466 c 0,11,12
 307 479 307 479 305.5 501.5 c 128,-1,13
 304 524 304 524 296.5 553.5 c 128,-1,14
 289 583 289 583 273 618 c 128,-1,15
 257 653 257 653 228 691 c 0,16,17
 211 713 211 713 184.5 734 c 128,-1,18
 158 755 158 755 128 772 c 128,-1,19
 98 789 98 789 67 799.5 c 128,-1,20
 36 810 36 810 10 810 c 1,21,22
 15 839 15 839 18.5 873.5 c 128,-1,23
 22 908 22 908 22 950 c 0,24,25
 22 1022 22 1022 10 1070 c 1,26,27
 39 1059 39 1059 109.5 1052 c 128,-1,28
 180 1045 180 1045 301 1045 c 0,29,30
 363 1045 363 1045 432 1045.5 c 128,-1,31
 501 1046 501 1046 563.5 1048.5 c 128,-1,32
 626 1051 626 1051 675.5 1056 c 128,-1,33
 725 1061 725 1061 749 1070 c 1,34,35
 743 1045 743 1045 740 1016 c 128,-1,36
 737 987 737 987 737 950 c 0,37,38
 737 866 737 866 747 810 c 1,39,40
 675 810 675 810 642.5 794 c 128,-1,41
 610 778 610 778 610 743 c 0,42,43
 610 716 610 716 627.5 670.5 c 128,-1,44
 645 625 645 625 671 567.5 c 128,-1,45
 697 510 697 510 726.5 443 c 128,-1,46
 756 376 756 376 780 305 c 1,47,48
 805 369 805 369 835 432 c 128,-1,49
 865 495 865 495 891 553 c 128,-1,50
 917 611 917 611 935 660.5 c 128,-1,51
 953 710 953 710 953 746 c 0,52,53
 953 786 953 786 924 798 c 128,-1,54
 895 810 895 810 832 810 c 1,55,56
 836 839 836 839 838.5 873.5 c 128,-1,57
 841 908 841 908 841 950 c 0,58,59
 841 987 841 987 838 1016.5 c 128,-1,60
 835 1046 835 1046 830 1070 c 1,61,62
 878 1060 878 1060 942.5 1052.5 c 128,-1,63
 1007 1045 1007 1045 1092 1045 c 0,64,65
 1219 1045 1219 1045 1298.5 1052.5 c 128,-1,66
 1378 1060 1378 1060 1403 1070 c 1,67,68
 1397 1045 1397 1045 1394 1016 c 128,-1,69
 1391 987 1391 987 1391 950 c 0,70,71
 1391 866 1391 866 1401 810 c 1,72,73
 1357 810 1357 810 1329 806 c 128,-1,74
 1301 802 1301 802 1284.5 794 c 128,-1,75
 1268 786 1268 786 1261.5 773.5 c 128,-1,76
 1255 761 1255 761 1255 743 c 0,77,78
 1255 716 1255 716 1272.5 670.5 c 128,-1,79
 1290 625 1290 625 1316 567.5 c 128,-1,80
 1342 510 1342 510 1371.5 443 c 128,-1,81
 1401 376 1401 376 1425 305 c 1,82,83
 1450 369 1450 369 1480 432 c 128,-1,84
 1510 495 1510 495 1536 553 c 128,-1,85
 1562 611 1562 611 1580 660.5 c 128,-1,86
 1598 710 1598 710 1598 746 c 0,87,88
 1598 786 1598 786 1565.5 798 c 128,-1,89
 1533 810 1533 810 1476 810 c 1,90,91
 1486 866 1486 866 1486 950 c 0,92,93
 1486 1022 1486 1022 1474 1070 c 1,94,95
 1487 1061 1487 1061 1518 1056 c 128,-1,96
 1549 1051 1549 1051 1589.5 1048.5 c 128,-1,97
 1630 1046 1630 1046 1676 1045.5 c 128,-1,98
 1722 1045 1722 1045 1764 1045 c 0,99,100
 1801 1045 1801 1045 1846 1047 c 128,-1,101
 1891 1049 1891 1049 1932 1052 c 128,-1,102
 1973 1055 1973 1055 2004.5 1059.5 c 128,-1,103
 2036 1064 2036 1064 2047 1070 c 1,104,105
 2041 1045 2041 1045 2039 1016 c 128,-1,106
 2037 987 2037 987 2037 950 c 0,107,108
 2037 866 2037 866 2047 810 c 1,109,110
 1992 810 1992 810 1938.5 777 c 128,-1,111
 1885 744 1885 744 1843 684 c 0,112,113
 1819 650 1819 650 1805 617 c 128,-1,114
 1791 584 1791 584 1783.5 555.5 c 128,-1,115
 1776 527 1776 527 1774 504 c 128,-1,116
 1772 481 1772 481 1772 466 c 0,117,118
 1772 440 1772 440 1789 434 c 1,119,120
 1762 426 1762 426 1727.5 391.5 c 128,-1,121
 1693 357 1693 357 1661.5 304.5 c 128,-1,122
 1630 252 1630 252 1608.5 186 c 128,-1,123
 1587 120 1587 120 1587 50 c 0,124,125
 1587 36 1587 36 1588.5 23.5 c 128,-1,126
 1590 11 1590 11 1592 0 c 1,127,128
 1583 5 1583 5 1554.5 9.5 c 128,-1,129
 1526 14 1526 14 1489.5 17.5 c 128,-1,130
 1453 21 1453 21 1415 23 c 128,-1,131
 1377 25 1377 25 1349 25 c 0,132,133
 1319 25 1319 25 1287.5 22.5 c 128,-1,134
 1256 20 1256 20 1227 16.5 c 128,-1,135
 1198 13 1198 13 1173.5 8.5 c 128,-1,136
 1149 4 1149 4 1134 0 c 1,137,138
 1135 7 1135 7 1135.5 16.5 c 128,-1,139
 1136 26 1136 26 1136 34 c 0,140,141
 1136 61 1136 61 1131.5 95.5 c 128,-1,142
 1127 130 1127 130 1116 169.5 c 128,-1,143
 1105 209 1105 209 1086 252.5 c 128,-1,144
 1067 296 1067 296 1038 341 c 1,145,146
 1014 308 1014 308 996 268.5 c 128,-1,147
 978 229 978 229 966 190 c 128,-1,148
 954 151 954 151 948 114.5 c 128,-1,149
 942 78 942 78 942 50 c 0,150,151
 942 36 942 36 943.5 23.5 c 128,-1,152
 945 11 945 11 947 0 c 1,153,154
 938 5 938 5 909.5 9.5 c 128,-1,155
 881 14 881 14 844.5 17.5 c 128,-1,156
 808 21 808 21 770 23 c 128,-1,157
 732 25 732 25 705 25 c 0,158,159
 675 25 675 25 643.5 22.5 c 128,-1,160
 612 20 612 20 582.5 16.5 c 128,-1,161
 553 13 553 13 529 8.5 c 128,-1,162
 505 4 505 4 490 0 c 1,0,1
EndSplineSet
EndChar

